<svg width="25" height="25" viewBox="0 0 25 25" fill="none" xmlns="http://www.w3.org/2000/svg">
<g clip-path="url(#clip0_33_6)">
<path d="M23.7115 0.635335C22.9025 0.026871 21.8513 -0.157733 20.8836 0.138778L12.9162 2.52831C12.7835 2.56855 12.6455 2.5889 12.5069 2.58881H12.4929C12.3543 2.5889 12.2163 2.56855 12.0837 2.52831L4.11625 0.138778C3.14805 -0.152105 2.09935 0.032129 1.28835 0.635591C0.477355 1.23905 -0.000434955 2.19063 3.01603e-05 3.20163V18.1132C-0.00296774 18.8016 0.217599 19.4724 0.628657 20.0247C1.03963 20.5771 1.61875 20.981 2.27909 21.176L11.5814 23.9667C11.7619 24.0193 11.9468 24.0555 12.1337 24.0748C12.2495 24.1244 12.374 24.1505 12.5 24.1515C12.6129 24.1506 12.7243 24.1256 12.8268 24.0783C13.0273 24.0581 13.2254 24.0191 13.4186 23.962L22.7209 21.1714C23.3813 20.9764 23.9604 20.5724 24.3713 20.0201C24.7824 19.4678 25.003 18.797 25 18.1085V3.20156C25.0044 2.18965 24.5258 1.23631 23.7115 0.635335ZM2.78132 19.5051C2.48036 19.4167 2.21627 19.2327 2.02913 18.981C1.84209 18.7293 1.74197 18.4234 1.74406 18.1097V3.20161C1.74433 2.81617 1.89759 2.44652 2.17001 2.17382C2.44255 1.9011 2.81199 1.74759 3.19755 1.74703C3.34017 1.7473 3.48197 1.76847 3.61852 1.8098L11.5813 4.19933C11.5964 4.19933 11.6127 4.19933 11.6278 4.20978V22.1597L2.78132 19.5051ZM23.2557 18.1097C23.2578 18.4234 23.1577 18.7293 22.9706 18.981C22.7835 19.2327 22.5194 19.4167 22.2184 19.5051L13.3719 22.1597V4.20974C13.387 4.20974 13.4034 4.20975 13.4185 4.1993L21.3859 1.80977C21.8263 1.67759 22.3034 1.7618 22.6719 2.03688C23.0405 2.31185 23.257 2.74527 23.2556 3.20511L23.2557 18.1097Z" fill="#7C2A7A"/>
<path d="M20.4278 5.04342L15.7766 6.20621C15.588 6.25354 15.4206 6.36255 15.301 6.51589C15.1813 6.66923 15.1163 6.85819 15.1162 7.05268V10.541C15.1165 10.8095 15.2403 11.063 15.4519 11.2283C15.6635 11.3936 15.9393 11.4522 16.2 11.3875L20.8511 10.2248C21.0397 10.1775 21.2072 10.0683 21.3268 9.91506C21.4464 9.76171 21.5115 9.57276 21.5116 9.37827V5.8899C21.5117 5.62128 21.388 5.36756 21.1763 5.20214C20.9646 5.0368 20.6884 4.9782 20.4278 5.04342ZM19.7674 8.69807L16.8604 9.42481V7.73295L19.7674 7.00621V8.69807Z" fill="#7C2A7A"/>
<path d="M20.4278 12.0201L15.7767 13.1829C15.4984 13.2517 15.2718 13.4531 15.1705 13.7213C15.0692 13.9895 15.1063 14.2904 15.2696 14.5261C15.4329 14.7617 15.7016 14.9021 15.9883 14.9014C16.06 14.9015 16.1315 14.893 16.2011 14.8758L20.8522 13.713C21.1547 13.6374 21.3938 13.4063 21.4796 13.1066C21.5653 12.8068 21.4846 12.4841 21.2679 12.26C21.0513 12.0359 20.7314 11.9444 20.429 12.0201H20.4278Z" fill="#7C2A7A"/>
<path d="M20.4278 15.5085L15.7767 16.6712C15.4984 16.7401 15.2718 16.9415 15.1705 17.2097C15.0692 17.4779 15.1063 17.7788 15.2696 18.0144C15.4329 18.2501 15.7016 18.3904 15.9883 18.3898C16.06 18.3899 16.1315 18.3813 16.2011 18.3642L20.8522 17.2014C21.1547 17.1258 21.3938 16.8946 21.4796 16.5949C21.5653 16.2951 21.4846 15.9725 21.2679 15.7484C21.0513 15.5243 20.7314 15.4328 20.429 15.5085H20.4278Z" fill="#7C2A7A"/>
<path d="M9.22322 13.1829L4.57206 12.0201C4.26955 11.9444 3.94979 12.0359 3.73314 12.26C3.51639 12.4841 3.43572 12.8068 3.52147 13.1066C3.60723 13.4062 3.84633 13.6374 4.14875 13.713L8.7999 14.8758C8.86921 14.8929 8.94025 14.9014 9.01156 14.9014C9.29817 14.9017 9.56652 14.7612 9.72959 14.5254C9.89265 14.2898 9.92944 13.989 9.82806 13.7209C9.72677 13.4529 9.5002 13.2517 9.22204 13.1828L9.22322 13.1829Z" fill="#7C2A7A"/>
<path d="M9.22322 16.6712L4.57206 15.5085C4.26955 15.4328 3.94979 15.5243 3.73314 15.7484C3.51639 15.9725 3.43572 16.2952 3.52147 16.5949C3.60723 16.8946 3.84633 17.1258 4.14875 17.2014L8.7999 18.3642C8.86921 18.3813 8.94025 18.3898 9.01156 18.3898C9.29817 18.3901 9.56652 18.2495 9.72959 18.0138C9.89265 17.7781 9.92944 17.4774 9.82806 17.2093C9.72677 16.9413 9.5002 16.7401 9.22204 16.6712H9.22322Z" fill="#7C2A7A"/>
<path d="M9.22322 6.20623L4.57206 5.04344C4.26955 4.96777 3.94979 5.05925 3.73314 5.28335C3.51639 5.50746 3.43572 5.83014 3.52147 6.12991C3.60723 6.4296 3.84633 6.66079 4.14875 6.73637L8.7999 7.89916C8.86921 7.91624 8.94025 7.92478 9.01156 7.92478C9.29817 7.92505 9.56652 7.78452 9.72959 7.54878C9.89265 7.31313 9.92944 7.01236 9.82806 6.74427C9.72677 6.47629 9.5002 6.27506 9.22204 6.2062L9.22322 6.20623Z" fill="#7C2A7A"/>
<path d="M9.22322 9.69463L4.57206 8.53185C4.26955 8.45617 3.94979 8.54765 3.73314 8.77175C3.51639 8.99586 3.43572 9.31854 3.52147 9.61831C3.60723 9.918 3.84633 10.1492 4.14875 10.2247L8.7999 11.3875C8.86921 11.4046 8.94025 11.4131 9.01156 11.4131C9.29817 11.4134 9.56652 11.2729 9.72959 11.0371C9.89265 10.8015 9.92944 10.5007 9.82806 10.2326C9.72677 9.96469 9.5002 9.76346 9.22204 9.6946L9.22322 9.69463Z" fill="#7C2A7A"/>
</g>
<defs>
<clipPath id="clip0_33_6">
<rect width="25" height="25" fill="white"/>
</clipPath>
</defs>
</svg>
