<svg width="71" height="72" viewBox="0 0 71 72" fill="none" xmlns="http://www.w3.org/2000/svg">
<g clip-path="url(#clip0_44_10)">
<path d="M68.5232 66.5465H67.6976V19.4884C67.6958 17.9562 67.0864 16.4874 66.0031 15.4038C64.9196 14.3205 63.4507 13.7111 61.9185 13.7093H48.7093C48.4324 13.7168 48.1564 13.7444 47.8837 13.7919V6.27907C47.8819 4.74686 47.2725 3.27805 46.1892 2.19449C45.1056 1.11119 43.6368 0.501783 42.1046 0.5H28.8954C27.3632 0.501806 25.8944 1.11119 24.8108 2.19449C23.7275 3.27805 23.1181 4.74686 23.1163 6.27907V27.0012C22.8436 26.9537 22.5676 26.9261 22.2907 26.9186H9.08146C7.54926 26.9204 6.08045 27.5298 4.99689 28.6131C3.9136 29.6967 3.30419 31.1655 3.30241 32.6977V66.5465H2.47683C1.59194 66.5465 0.774354 67.0186 0.331843 67.7849C-0.110614 68.5512 -0.110614 69.4954 0.331843 70.2616C0.774301 71.0279 1.59188 71.5 2.47683 71.5H68.5232C69.4081 71.5 70.2256 71.0279 70.6682 70.2616C71.1106 69.4954 71.1106 68.5512 70.6682 67.7849C70.2257 67.0186 69.4081 66.5465 68.5232 66.5465ZM8.25588 32.6977C8.25588 32.2418 8.62559 31.8721 9.08146 31.8721H22.2907C22.5098 31.8721 22.7198 31.959 22.8746 32.1138C23.0294 32.2686 23.1163 32.4786 23.1163 32.6977V66.5465H8.25588V32.6977ZM28.0698 32.6977V6.27907C28.0698 5.8232 28.4395 5.45349 28.8954 5.45349H42.1046C42.3237 5.45349 42.5337 5.54043 42.6885 5.69523C42.8433 5.85003 42.9302 6.06003 42.9302 6.27907V66.5465H28.0698V32.6977ZM47.8837 66.5465V19.4884C47.8837 19.0325 48.2534 18.6628 48.7093 18.6628H61.9185C62.1376 18.6628 62.3476 18.7497 62.5024 18.9045C62.6572 19.0593 62.7441 19.2693 62.7441 19.4884V66.5465H47.8837Z" fill="#7C2A7A"/>
</g>
<defs>
<clipPath id="clip0_44_10">
<rect width="71" height="71" fill="white" transform="translate(0 0.5)"/>
</clipPath>
</defs>
</svg>
