<svg width="72" height="72" viewBox="0 0 72 72" fill="none" xmlns="http://www.w3.org/2000/svg">
<g clip-path="url(#clip0_50_15)">
<mask id="mask0_50_15" style="mask-type:luminance" maskUnits="userSpaceOnUse" x="0" y="0" width="72" height="72">
<path d="M71.5 0.5H0.5V71.5H71.5V0.5Z" fill="white"/>
</mask>
<g mask="url(#mask0_50_15)">
<path d="M69.0232 66.5465H68.1976V19.4884C68.1958 17.9562 67.5864 16.4874 66.5031 15.4038C65.4196 14.3205 63.9507 13.7111 62.4185 13.7093H49.2093C48.9324 13.7168 48.6564 13.7444 48.3837 13.7919V6.27907C48.3819 4.74686 47.7725 3.27805 46.6892 2.19449C45.6056 1.11119 44.1368 0.501783 42.6046 0.5H29.3954C27.8632 0.501806 26.3944 1.11119 25.3108 2.19449C24.2275 3.27805 23.6181 4.74686 23.6163 6.27907V27.0012C23.3436 26.9537 23.0676 26.9261 22.7907 26.9186H9.58146C8.04926 26.9204 6.58045 27.5298 5.49689 28.6131C4.4136 29.6967 3.80419 31.1655 3.80241 32.6977V66.5465H2.97683C2.09194 66.5465 1.27435 67.0186 0.831843 67.7849C0.389386 68.5512 0.389386 69.4954 0.831843 70.2616C1.2743 71.0279 2.09188 71.5 2.97683 71.5H69.0232C69.9081 71.5 70.7256 71.0279 71.1682 70.2616C71.6106 69.4954 71.6106 68.5512 71.1682 67.7849C70.7257 67.0186 69.9081 66.5465 69.0232 66.5465ZM8.75588 32.6977C8.75588 32.2418 9.12559 31.8721 9.58146 31.8721H22.7907C23.0098 31.8721 23.2198 31.959 23.3746 32.1138C23.5294 32.2686 23.6163 32.4786 23.6163 32.6977V66.5465H8.75588V32.6977ZM28.5698 32.6977V6.27907C28.5698 5.8232 28.9395 5.45349 29.3954 5.45349H42.6046C42.8237 5.45349 43.0337 5.54043 43.1885 5.69523C43.3433 5.85003 43.4302 6.06003 43.4302 6.27907V66.5465H28.5698V32.6977ZM48.3837 66.5465V19.4884C48.3837 19.0325 48.7534 18.6628 49.2093 18.6628H62.4185C62.6376 18.6628 62.8476 18.7497 63.0024 18.9045C63.1572 19.0593 63.2441 19.2693 63.2441 19.4884V66.5465H48.3837Z" fill="white"/>
</g>
</g>
<defs>
<clipPath id="clip0_50_15">
<rect width="71" height="72" fill="white" transform="translate(0.5)"/>
</clipPath>
</defs>
</svg>
