<svg width="15" height="14" viewBox="0 0 15 14" fill="none" xmlns="http://www.w3.org/2000/svg">
<g clip-path="url(#clip0_35_36)">
<path d="M12.1118 10.4979C11.8822 9.45052 10.9496 8.6665 9.83325 8.6665C8.54453 8.6665 7.49997 9.71107 7.49997 10.9998C7.49997 11.3219 7.76112 11.5831 8.08328 11.5831C8.40544 11.5831 8.66659 11.3219 8.66659 10.9998C8.66659 10.3554 9.18882 9.83313 9.83325 9.83313C10.3185 9.83313 10.7343 10.1293 10.9102 10.5507C10.2777 10.8143 9.83325 11.4382 9.83325 12.1664C9.83325 12.4886 10.0944 12.7497 10.4166 12.7497C10.7387 12.7497 10.9999 12.4886 10.9999 12.1664C10.9999 11.844 11.2608 11.5831 11.5832 11.5831C11.9056 11.5831 12.1665 11.844 12.1665 12.1664C12.1665 12.4886 12.4277 12.7497 12.7498 12.7497C13.072 12.7497 13.3331 12.4886 13.3331 12.1664C13.3332 11.384 12.82 10.7219 12.1118 10.4979Z" fill="#7C2A7A"/>
<path d="M12.9263 4.74143C12.7441 3.24969 11.5282 2.08706 10.0414 2.08706C9.29478 2.08706 8.61653 2.38042 8.10314 2.86131C7.49297 2.18369 6.66048 1.75396 5.74998 1.67904V1.08331C5.74998 0.761155 5.48882 0.5 5.16667 0.5C4.84451 0.5 4.58335 0.761155 4.58335 1.08331V1.77942C4.15171 1.8918 3.75108 2.08489 3.39641 2.34236L2.59698 1.77444C2.33435 1.58785 1.97019 1.64951 1.7836 1.91214C1.59701 2.17477 1.65867 2.53893 1.9213 2.72552L2.56233 3.18092C2.26585 3.59181 2.04708 4.06736 1.92824 4.58327H1.08339C0.761236 4.58327 0.50008 4.84443 0.50008 5.16659C0.50008 5.48874 0.761236 5.7499 1.08339 5.7499H1.83574C1.8822 6.44502 2.10789 7.10084 2.47817 7.65684C1.84296 7.88158 1.28207 8.33454 0.916108 8.97235C0.0957288 10.3994 0.524307 12.2572 1.88581 13.133C2.15675 13.3073 2.51768 13.229 2.69197 12.958C2.86625 12.6871 2.78791 12.3261 2.51697 12.1518C1.6836 11.6158 1.414 10.4471 1.92778 9.5534C2.29987 8.90492 2.98555 8.57839 3.65511 8.6815C3.78263 9.00071 3.98325 9.29363 4.25529 9.53062C4.49821 9.74223 4.86666 9.71685 5.07829 9.47394C5.2899 9.23102 5.26453 8.86257 5.02161 8.65093C4.86255 8.51236 4.75419 8.33041 4.69918 8.13308C4.69497 8.0951 4.68707 8.0578 4.67566 8.02171C4.63191 7.77007 4.67156 7.51288 4.78834 7.29372L4.78963 7.29129C4.79857 7.27461 4.808 7.25815 4.81785 7.24194L4.81954 7.23909C4.84035 7.205 4.86313 7.17196 4.88782 7.14019C4.91557 7.10451 4.94535 7.0717 4.97638 7.04096C4.98051 7.03689 4.9844 7.03243 4.98858 7.02844C4.99711 7.02026 5.00608 7.01288 5.01483 7.00509C5.02456 6.99645 5.03408 6.98745 5.04406 6.97925C5.05054 6.97392 5.05732 6.96921 5.06391 6.96407C5.07654 6.95423 5.08909 6.94425 5.10208 6.93514C5.10782 6.93113 5.11378 6.92763 5.11958 6.92372C5.13372 6.91423 5.14785 6.90474 5.16237 6.8961C5.16806 6.89271 5.17391 6.88984 5.17965 6.88661C5.19456 6.87816 5.20946 6.86974 5.22469 6.86219C5.2307 6.85921 5.23691 6.85672 5.24295 6.85388C5.2581 6.84677 5.27328 6.83966 5.2887 6.83343C5.29534 6.83075 5.30212 6.82859 5.3088 6.82607C5.32383 6.82038 5.3389 6.8147 5.35416 6.80983C5.36162 6.80745 5.36922 6.80565 5.37674 6.80346C5.38568 6.80086 5.39465 6.79843 5.40368 6.7961C5.3981 6.98436 5.41516 7.17617 5.45773 7.36782C5.52762 7.68233 5.83923 7.88059 6.1537 7.81073C6.46818 7.74087 6.66647 7.42924 6.59661 7.11476C6.55012 6.90556 6.56423 6.69759 6.62543 6.51097L6.64186 6.46722C6.73945 6.20721 6.92349 6.00381 7.15362 5.89547L7.15684 5.89397C7.17371 5.8861 7.19083 5.87874 7.20817 5.8719L7.2097 5.8713C7.24606 5.85706 7.28344 5.84511 7.32169 5.83562C7.42787 5.80907 7.53664 5.80338 7.64648 5.8176L7.70414 5.82506C8.06808 5.89577 8.381 6.19258 8.4753 6.6166C8.54525 6.93107 8.85685 7.12931 9.17133 7.05939C9.4858 6.98945 9.68404 6.67785 9.61412 6.36337C9.45091 5.6294 8.95408 5.06252 8.32686 4.80065C8.3276 4.79619 8.32834 4.79174 8.32907 4.78728C8.37055 4.54885 8.45502 4.32223 8.57812 4.11696L8.62413 4.04024C8.9414 3.56299 9.46029 3.25371 10.0414 3.25371C10.8791 3.25371 11.5881 3.89584 11.7489 4.75857C10.8682 5.03528 10.233 5.88812 10.233 6.88746C10.233 7.20962 10.4942 7.47077 10.8163 7.47077C11.1385 7.47077 11.3997 7.20962 11.3997 6.88746C11.3997 6.29665 11.8402 5.83048 12.3662 5.83048C12.8928 5.83048 13.3334 6.2966 13.3334 6.88746C13.3334 7.20962 13.5945 7.47077 13.9167 7.47077C14.2388 7.47077 14.5 7.20962 14.5 6.88746C14.5001 5.86633 13.837 4.99837 12.9263 4.74143ZM7.40364 3.84749C7.2885 4.10632 7.20704 4.38465 7.16529 4.67627C7.14916 4.67925 7.13303 4.68266 7.11689 4.68606C7.10333 4.6889 7.08977 4.69193 7.07623 4.69505C7.06418 4.69784 7.05212 4.70006 7.04006 4.70306C6.97698 4.71879 6.91548 4.73771 6.85522 4.75876C6.85186 4.75994 6.84838 4.76098 6.84502 4.76218C6.81885 4.77148 6.79315 4.78151 6.76753 4.79176C6.76138 4.79423 6.75512 4.79652 6.74899 4.79904C6.72378 4.80943 6.69898 4.82048 6.67434 4.83177C6.66838 4.8345 6.66234 4.83713 6.65641 4.83992C6.63117 4.85178 6.60631 4.86422 6.5817 4.87702C6.57689 4.87954 6.57203 4.88197 6.56724 4.88451C6.54156 4.8981 6.51627 4.91227 6.49128 4.92687C6.48803 4.92878 6.48475 4.93067 6.48149 4.93258C6.45519 4.94814 6.42929 4.96425 6.40378 4.98087L6.39924 4.98385C6.15031 5.14704 5.93958 5.36004 5.77718 5.60695C5.27024 5.56908 4.76437 5.72122 4.35408 6.03799C4.34651 6.04384 4.3389 6.04966 4.33141 6.05562C4.3211 6.0638 4.3109 6.07208 4.30073 6.08048C4.29084 6.08863 4.28102 6.09691 4.27126 6.10525C4.26267 6.11258 4.25406 6.11988 4.24558 6.12737C4.23197 6.13938 4.21854 6.15165 4.2052 6.16404C4.20003 6.16882 4.19478 6.1735 4.18967 6.17834C4.17252 6.19455 4.15565 6.21115 4.13897 6.22802C4.13222 6.23486 4.1256 6.24186 4.11893 6.2488C4.10813 6.26004 4.09738 6.27133 4.08677 6.28285C4.07928 6.29097 4.07187 6.29917 4.06446 6.3074C4.05492 6.31806 4.04551 6.32886 4.03613 6.33975C4.0285 6.34861 4.02088 6.35741 4.01336 6.36643C4.00439 6.37723 3.99558 6.38825 3.98678 6.39924C3.98024 6.40739 3.97352 6.41532 3.96706 6.42358C3.78548 6.65693 3.65677 6.91734 3.57917 7.18892C3.20681 6.72034 2.99307 6.12155 2.99307 5.48177C2.99307 4.01185 4.10679 2.8335 5.46402 2.8335C6.23089 2.83347 6.93949 3.21398 7.40364 3.84749Z" fill="#7C2A7A"/>
</g>
<defs>
<clipPath id="clip0_35_36">
<rect width="14" height="13" fill="white" transform="translate(0.5 0.5)"/>
</clipPath>
</defs>
</svg>
