<svg width="25" height="25" viewBox="0 0 25 25" fill="none" xmlns="http://www.w3.org/2000/svg">
<g clip-path="url(#clip0_33_15)">
<path d="M21.5314 9.75677C21.9782 9.80377 22.4261 9.88868 22.8503 10.0227C24.1562 10.435 25 11.2344 25 12.5C25 13.7657 24.1562 14.565 22.8503 14.9774C22.4261 15.1114 21.9782 15.1963 21.5314 15.2433C21.4502 15.2518 21.3743 15.2586 21.3042 15.264L20.6808 16.7697C20.8419 16.9567 21.0254 17.1912 21.2089 17.4629C21.6663 18.1399 21.9633 18.8239 22.0152 19.4991C22.0684 20.1912 21.8529 20.825 21.3389 21.3391C20.825 21.8528 20.1913 22.0683 19.4994 22.0152C18.8238 21.9633 18.1398 21.6663 17.4625 21.2087C17.1909 21.0251 16.9564 20.8417 16.7693 20.6804L15.264 21.3042C15.2585 21.3742 15.2517 21.4502 15.2432 21.5314C15.1962 21.9782 15.1113 22.4261 14.9774 22.8503C14.565 24.1562 13.7656 25 12.5 25C11.2344 25 10.435 24.1562 10.0226 22.8503C9.88867 22.4261 9.80376 21.9782 9.75676 21.5314C9.74826 21.4502 9.74145 21.3742 9.73599 21.3042L8.2307 20.6804C8.04365 20.8417 7.80909 21.0251 7.53739 21.2087C6.86037 21.6661 6.17651 21.9631 5.50132 22.0151C4.8091 22.0684 4.1752 21.853 3.66103 21.339C3.14713 20.8249 2.93164 20.1909 2.98484 19.4987C3.03683 18.8235 3.33369 18.1397 3.79112 17.4626C3.97465 17.1909 4.15807 16.9564 4.31923 16.7693L3.69576 15.264C3.62567 15.2586 3.54976 15.2518 3.46862 15.2433C3.02176 15.1963 2.57394 15.1114 2.14966 14.9774C0.843811 14.565 0 13.7657 0 12.5C0 11.2344 0.843811 10.435 2.14966 10.0227C2.57394 9.88868 3.02176 9.80377 3.46862 9.75677C3.54976 9.74827 3.62567 9.74146 3.69576 9.736L4.31923 8.23071C4.15805 8.04366 3.97464 7.8091 3.79112 7.5374C3.33369 6.86038 3.03683 6.17651 2.98484 5.50133C2.93164 4.8091 3.14712 4.17521 3.66115 3.66091C4.17505 3.14722 4.80872 2.93177 5.50058 2.98472C6.17604 3.03659 6.86024 3.33345 7.53751 3.79113C7.80923 3.97466 8.04364 4.15808 8.2307 4.31924L9.73599 3.69576C9.74145 3.62568 9.74826 3.54976 9.75676 3.46863C9.80376 3.02177 9.88867 2.57394 10.0226 2.14966C10.435 0.843812 11.2344 0 12.5 0C13.7656 0 14.565 0.843812 14.9774 2.14966C15.1113 2.57394 15.1962 3.02177 15.2432 3.46863C15.2517 3.54976 15.2585 3.62568 15.264 3.69576L16.7693 4.31924C16.9563 4.15806 17.1909 3.97465 17.4626 3.79113C18.1396 3.3337 18.8235 3.03684 19.4987 2.98485C20.1909 2.93165 20.8248 3.14712 21.339 3.66103C21.8529 4.17518 22.0684 4.8091 22.0152 5.50133C21.9632 6.17655 21.6663 6.86038 21.2089 7.5374C21.0253 7.80911 20.8419 8.04365 20.6808 8.23071L21.3042 9.736C21.3743 9.74146 21.4502 9.74827 21.5314 9.75677ZM23.8806 12.5C23.8806 11.822 23.4054 11.3719 22.5132 11.0901C22.1681 10.9811 21.7917 10.9098 21.4142 10.87C21.2814 10.856 21.1586 10.8471 21.0492 10.8422C20.9856 10.8393 20.9425 10.8384 20.9232 10.8384H20.5492L19.3667 7.98343L19.6311 7.719C19.6667 7.68341 19.7359 7.60944 19.8274 7.5034C19.9823 7.32376 20.1374 7.12396 20.2813 6.91077C20.6399 6.38011 20.8647 5.8623 20.8991 5.41544C20.9281 5.03879 20.8222 4.72735 20.5475 4.4526C20.2727 4.17785 19.9612 4.07194 19.5846 4.10095C19.1377 4.13532 18.6199 4.36015 18.0892 4.7187C17.8761 4.86264 17.6763 5.01774 17.4966 5.17262C17.3906 5.26408 17.3166 5.33332 17.281 5.3689L17.0166 5.63333L14.1616 4.45077V4.0768C14.1616 4.05749 14.1608 4.01437 14.1578 3.95084C14.1529 3.8414 14.144 3.7186 14.13 3.58585C14.0902 3.20834 14.0189 2.83194 13.9099 2.48685C13.6281 1.59459 13.178 1.1194 12.5 1.1194C11.822 1.1194 11.3719 1.59456 11.09 2.48685C10.9811 2.83194 10.9098 3.20834 10.87 3.58585C10.856 3.71861 10.8471 3.84141 10.8421 3.95084C10.8392 4.01437 10.8384 4.05749 10.8384 4.0768V4.45077L7.98341 5.63333L7.71898 5.3689C7.68339 5.33332 7.60942 5.26408 7.50338 5.17262C7.32374 5.01775 7.12394 4.86264 6.91075 4.71858C6.37997 4.36003 5.86203 4.13506 5.41505 4.10095C5.03865 4.07204 4.72733 4.17796 4.45258 4.45247C4.17783 4.72734 4.07192 5.03876 4.10093 5.41544C4.13531 5.8623 4.36013 6.38008 4.71869 6.91077C4.86262 7.12394 5.01773 7.32374 5.1726 7.5034C5.26406 7.60944 5.3333 7.68341 5.36889 7.719L5.63331 7.98343L4.45076 10.8384H4.07678C4.05747 10.8384 4.01435 10.8393 3.95083 10.8422C3.84139 10.8471 3.71859 10.856 3.58584 10.87C3.20832 10.9098 2.83192 10.9811 2.48683 11.0901C1.59458 11.3719 1.11939 11.822 1.11939 12.5C1.11939 13.178 1.59455 13.6282 2.48683 13.91C2.83192 14.0189 3.20832 14.0902 3.58584 14.1301C3.7186 14.144 3.8414 14.1529 3.95083 14.1579C4.01435 14.1608 4.05747 14.1616 4.07678 14.1616H4.45076L5.63331 17.0166L5.36889 17.281C5.3333 17.3166 5.26406 17.3906 5.1726 17.4966C5.01774 17.6763 4.86263 17.8761 4.71869 18.0893C4.36014 18.6199 4.13529 19.1377 4.10093 19.5846C4.0719 19.9613 4.17782 20.2727 4.45245 20.5474C4.72732 20.8222 5.03874 20.928 5.41542 20.8991C5.86215 20.8646 6.37997 20.6398 6.91063 20.2812C7.1238 20.1372 7.32359 19.9821 7.50326 19.8272C7.60942 19.7357 7.68339 19.6664 7.71898 19.6308L7.98352 19.3663L10.8384 20.5494V20.9232C10.8384 20.9426 10.8392 20.9857 10.8421 21.0492C10.8471 21.1586 10.856 21.2814 10.87 21.4142C10.9098 21.7917 10.9811 22.1681 11.09 22.5132C11.3718 23.4055 11.822 23.8806 12.5 23.8806C13.178 23.8806 13.6281 23.4055 13.9099 22.5132C14.0189 22.1681 14.0902 21.7917 14.13 21.4142C14.144 21.2814 14.1529 21.1586 14.1578 21.0492C14.1608 20.9857 14.1616 20.9426 14.1616 20.9232V20.5494L17.0166 19.3663L17.281 19.6309C17.3166 19.6665 17.3906 19.7357 17.4967 19.8272C17.6762 19.982 17.876 20.1372 18.0892 20.2812C18.6201 20.6399 19.138 20.8649 19.5849 20.8991C19.9613 20.928 20.2728 20.8221 20.5474 20.5476C20.8222 20.2727 20.9279 19.9614 20.8991 19.5849C20.8648 19.1381 20.64 18.6203 20.2814 18.0895C20.1374 17.8765 19.9823 17.6767 19.8274 17.497C19.7359 17.391 19.6667 17.317 19.6311 17.2814L19.3667 17.017L20.5492 14.1616H20.9232C20.9425 14.1616 20.9856 14.1608 21.0492 14.1579C21.1586 14.1529 21.2814 14.144 21.4141 14.1301C21.7917 14.0902 22.1681 14.0189 22.5131 13.91C23.4054 13.6282 23.8806 13.178 23.8806 12.5ZM12.5 18.6567C9.09983 18.6567 6.34331 15.9003 6.34331 12.5C6.34331 9.09977 9.09977 6.3433 12.5 6.3433C15.9003 6.3433 18.6567 9.09977 18.6567 12.5C18.6567 15.9003 15.9003 18.6567 12.5 18.6567ZM12.5 17.5373C15.282 17.5373 17.5373 15.282 17.5373 12.5C17.5373 9.71803 15.282 7.46271 12.5 7.46271C9.71802 7.46271 7.46271 9.71803 7.46271 12.5C7.46271 15.282 9.71802 17.5373 12.5 17.5373Z" fill="#7C2A7A"/>
</g>
<defs>
<clipPath id="clip0_33_15">
<rect width="25" height="25" fill="white"/>
</clipPath>
</defs>
</svg>
