<svg width="25" height="26" viewBox="0 0 25 26" fill="none" xmlns="http://www.w3.org/2000/svg">
<g clip-path="url(#clip0_39_18)">
<path d="M21.5314 10.2568C21.9782 10.3038 22.4261 10.3887 22.8503 10.5227C24.1562 10.935 25 11.7344 25 13C25 14.2657 24.1562 15.065 22.8503 15.4774C22.4261 15.6114 21.9782 15.6963 21.5314 15.7433C21.4502 15.7518 21.3743 15.7586 21.3042 15.764L20.6808 17.2697C20.8419 17.4567 21.0254 17.6912 21.2089 17.9629C21.6663 18.6399 21.9633 19.3239 22.0152 19.9991C22.0684 20.6912 21.8529 21.325 21.3389 21.8391C20.825 22.3528 20.1913 22.5683 19.4994 22.5152C18.8238 22.4633 18.1398 22.1663 17.4625 21.7087C17.1909 21.5251 16.9564 21.3417 16.7693 21.1804L15.264 21.8042C15.2585 21.8742 15.2517 21.9502 15.2432 22.0314C15.1962 22.4782 15.1113 22.9261 14.9774 23.3503C14.565 24.6562 13.7656 25.5 12.5 25.5C11.2344 25.5 10.435 24.6562 10.0226 23.3503C9.88867 22.9261 9.80376 22.4782 9.75676 22.0314C9.74826 21.9502 9.74145 21.8742 9.73599 21.8042L8.2307 21.1804C8.04365 21.3417 7.80909 21.5251 7.53739 21.7087C6.86037 22.1661 6.17651 22.4631 5.50132 22.5151C4.8091 22.5684 4.1752 22.353 3.66103 21.839C3.14713 21.3249 2.93164 20.6909 2.98484 19.9987C3.03683 19.3235 3.33369 18.6397 3.79112 17.9626C3.97465 17.6909 4.15807 17.4564 4.31923 17.2693L3.69576 15.764C3.62567 15.7586 3.54976 15.7518 3.46862 15.7433C3.02176 15.6963 2.57394 15.6114 2.14966 15.4774C0.843811 15.065 0 14.2657 0 13C0 11.7344 0.843811 10.935 2.14966 10.5227C2.57394 10.3887 3.02176 10.3038 3.46862 10.2568C3.54976 10.2483 3.62567 10.2415 3.69576 10.236L4.31923 8.73071C4.15805 8.54366 3.97464 8.3091 3.79112 8.0374C3.33369 7.36038 3.03683 6.67651 2.98484 6.00133C2.93164 5.3091 3.14712 4.67521 3.66115 4.16091C4.17505 3.64722 4.80872 3.43177 5.50058 3.48472C6.17604 3.53659 6.86024 3.83345 7.53751 4.29113C7.80923 4.47466 8.04364 4.65808 8.2307 4.81924L9.73599 4.19576C9.74145 4.12568 9.74826 4.04976 9.75676 3.96863C9.80376 3.52177 9.88867 3.07394 10.0226 2.64966C10.435 1.34381 11.2344 0.5 12.5 0.5C13.7656 0.5 14.565 1.34381 14.9774 2.64966C15.1113 3.07394 15.1962 3.52177 15.2432 3.96863C15.2517 4.04976 15.2585 4.12568 15.264 4.19576L16.7693 4.81924C16.9563 4.65806 17.1909 4.47465 17.4626 4.29113C18.1396 3.8337 18.8235 3.53684 19.4987 3.48485C20.1909 3.43165 20.8248 3.64712 21.339 4.16103C21.8529 4.67518 22.0684 5.3091 22.0152 6.00133C21.9632 6.67655 21.6663 7.36038 21.2089 8.0374C21.0253 8.30911 20.8419 8.54365 20.6808 8.73071L21.3042 10.236C21.3743 10.2415 21.4502 10.2483 21.5314 10.2568ZM23.8806 13C23.8806 12.322 23.4054 11.8719 22.5132 11.5901C22.1681 11.4811 21.7917 11.4098 21.4142 11.37C21.2814 11.356 21.1586 11.3471 21.0492 11.3422C20.9856 11.3393 20.9425 11.3384 20.9232 11.3384H20.5492L19.3667 8.48343L19.6311 8.219C19.6667 8.18341 19.7359 8.10944 19.8274 8.0034C19.9823 7.82376 20.1374 7.62396 20.2813 7.41077C20.6399 6.88011 20.8647 6.3623 20.8991 5.91544C20.9281 5.53879 20.8222 5.22735 20.5475 4.9526C20.2727 4.67785 19.9612 4.57194 19.5846 4.60095C19.1377 4.63532 18.6199 4.86015 18.0892 5.2187C17.8761 5.36264 17.6763 5.51774 17.4966 5.67262C17.3906 5.76408 17.3166 5.83332 17.281 5.8689L17.0166 6.13333L14.1616 4.95077V4.5768C14.1616 4.55749 14.1608 4.51437 14.1578 4.45084C14.1529 4.3414 14.144 4.2186 14.13 4.08585C14.0902 3.70834 14.0189 3.33194 13.9099 2.98685C13.6281 2.09459 13.178 1.6194 12.5 1.6194C11.822 1.6194 11.3719 2.09456 11.09 2.98685C10.9811 3.33194 10.9098 3.70834 10.87 4.08585C10.856 4.21861 10.8471 4.34141 10.8421 4.45084C10.8392 4.51437 10.8384 4.55749 10.8384 4.5768V4.95077L7.98341 6.13333L7.71898 5.8689C7.68339 5.83332 7.60942 5.76408 7.50338 5.67262C7.32374 5.51775 7.12394 5.36264 6.91075 5.21858C6.37997 4.86003 5.86203 4.63506 5.41505 4.60095C5.03865 4.57204 4.72733 4.67796 4.45258 4.95247C4.17783 5.22734 4.07192 5.53876 4.10093 5.91544C4.13531 6.3623 4.36013 6.88008 4.71869 7.41077C4.86262 7.62394 5.01773 7.82374 5.1726 8.0034C5.26406 8.10944 5.3333 8.18341 5.36889 8.219L5.63331 8.48343L4.45076 11.3384H4.07678C4.05747 11.3384 4.01435 11.3393 3.95083 11.3422C3.84139 11.3471 3.71859 11.356 3.58584 11.37C3.20832 11.4098 2.83192 11.4811 2.48683 11.5901C1.59458 11.8719 1.11939 12.322 1.11939 13C1.11939 13.678 1.59455 14.1282 2.48683 14.41C2.83192 14.5189 3.20832 14.5902 3.58584 14.6301C3.7186 14.644 3.8414 14.6529 3.95083 14.6579C4.01435 14.6608 4.05747 14.6616 4.07678 14.6616H4.45076L5.63331 17.5166L5.36889 17.781C5.3333 17.8166 5.26406 17.8906 5.1726 17.9966C5.01774 18.1763 4.86263 18.3761 4.71869 18.5893C4.36014 19.1199 4.13529 19.6377 4.10093 20.0846C4.0719 20.4613 4.17782 20.7727 4.45245 21.0474C4.72732 21.3222 5.03874 21.428 5.41542 21.3991C5.86215 21.3646 6.37997 21.1398 6.91063 20.7812C7.1238 20.6372 7.32359 20.4821 7.50326 20.3272C7.60942 20.2357 7.68339 20.1664 7.71898 20.1308L7.98352 19.8663L10.8384 21.0494V21.4232C10.8384 21.4426 10.8392 21.4857 10.8421 21.5492C10.8471 21.6586 10.856 21.7814 10.87 21.9142C10.9098 22.2917 10.9811 22.6681 11.09 23.0132C11.3718 23.9055 11.822 24.3806 12.5 24.3806C13.178 24.3806 13.6281 23.9055 13.9099 23.0132C14.0189 22.6681 14.0902 22.2917 14.13 21.9142C14.144 21.7814 14.1529 21.6586 14.1578 21.5492C14.1608 21.4857 14.1616 21.4426 14.1616 21.4232V21.0494L17.0166 19.8663L17.281 20.1309C17.3166 20.1665 17.3906 20.2357 17.4967 20.3272C17.6762 20.482 17.876 20.6372 18.0892 20.7812C18.6201 21.1399 19.138 21.3649 19.5849 21.3991C19.9613 21.428 20.2728 21.3221 20.5474 21.0476C20.8222 20.7727 20.9279 20.4614 20.8991 20.0849C20.8648 19.6381 20.64 19.1203 20.2814 18.5895C20.1374 18.3765 19.9823 18.1767 19.8274 17.997C19.7359 17.891 19.6667 17.817 19.6311 17.7814L19.3667 17.517L20.5492 14.6616H20.9232C20.9425 14.6616 20.9856 14.6608 21.0492 14.6579C21.1586 14.6529 21.2814 14.644 21.4141 14.6301C21.7917 14.5902 22.1681 14.5189 22.5131 14.41C23.4054 14.1282 23.8806 13.678 23.8806 13ZM12.5 19.1567C9.09983 19.1567 6.34331 16.4003 6.34331 13C6.34331 9.59977 9.09977 6.8433 12.5 6.8433C15.9003 6.8433 18.6567 9.59977 18.6567 13C18.6567 16.4003 15.9003 19.1567 12.5 19.1567ZM12.5 18.0373C15.282 18.0373 17.5373 15.782 17.5373 13C17.5373 10.218 15.282 7.96271 12.5 7.96271C9.71802 7.96271 7.46271 10.218 7.46271 13C7.46271 15.782 9.71802 18.0373 12.5 18.0373Z" fill="#272531"/>
</g>
<defs>
<clipPath id="clip0_39_18">
<rect width="25" height="25" fill="white" transform="translate(0 0.5)"/>
</clipPath>
</defs>
</svg>
