<svg width="25" height="32" viewBox="0 0 25 32" fill="none" xmlns="http://www.w3.org/2000/svg">
<g clip-path="url(#clip0_39_4)">
<path d="M0.0460785 23.8496C-0.109402 24.6703 0.133972 25.5187 0.694757 26.1103C1.25554 26.7018 2.05929 26.958 2.83637 26.793L7.22145 25.8667C7.94248 25.7156 8.60459 25.3414 9.12359 24.7917L23.8615 9.23806C24.5584 8.49984 24.9497 7.49992 24.9497 6.45757C24.9497 5.41522 24.5584 4.4153 23.8615 3.67708L21.9472 1.64856C21.2478 0.913 20.301 0.5 19.314 0.5C18.3268 0.5 17.38 0.913 16.6807 1.64856L1.94151 17.2107C1.42207 17.7568 1.06774 18.4532 0.923366 19.2121L0.0460785 23.8496ZM2.91486 19.6381C2.97959 19.2921 3.14079 18.9745 3.37793 18.7261L18.1172 3.16538C18.4348 2.83044 18.8652 2.64237 19.314 2.64237C19.7628 2.64237 20.1932 2.83044 20.5108 3.16538L22.4251 5.18675C22.7419 5.52224 22.9198 5.9767 22.9198 6.45045C22.9198 6.92421 22.7419 7.37866 22.4251 7.71415L7.68858 23.2749C7.45335 23.5253 7.15254 23.6955 6.82488 23.7639L2.4398 24.6902C2.32938 24.7128 2.21525 24.6764 2.13508 24.593C2.05311 24.5096 2.01778 24.3874 2.04169 24.2699L2.91486 19.6381Z" fill="#272531"/>
<path d="M25 29.9143C25 29.63 24.893 29.3573 24.7026 29.1562C24.5121 28.9551 24.2539 28.8422 23.9846 28.8422H3.67705C3.31427 28.8422 2.97909 29.0465 2.79767 29.3782C2.61626 29.7099 2.61628 30.1187 2.79767 30.4504C2.97907 30.7821 3.31424 30.9865 3.67705 30.9865H23.9846C24.2539 30.9865 24.5121 30.8736 24.7026 30.6724C24.893 30.4714 25 30.1987 25 29.9143Z" fill="#272531"/>
</g>
<defs>
<clipPath id="clip0_39_4">
<rect width="25" height="31" fill="white" transform="translate(0 0.5)"/>
</clipPath>
</defs>
</svg>
