<svg width="25" height="31" viewBox="0 0 25 31" fill="none" xmlns="http://www.w3.org/2000/svg">
<g clip-path="url(#clip0_33_25)">
<path d="M0.0460785 23.3496C-0.109402 24.1703 0.133972 25.0187 0.694757 25.6103C1.25554 26.2018 2.05929 26.458 2.83637 26.293L7.22145 25.3667C7.94248 25.2156 8.60459 24.8414 9.12359 24.2917L23.8615 8.73806C24.5584 7.99984 24.9497 6.99992 24.9497 5.95757C24.9497 4.91522 24.5584 3.9153 23.8615 3.17708L21.9472 1.14856C21.2478 0.413 20.301 0 19.314 0C18.3268 0 17.38 0.413 16.6807 1.14856L1.94151 16.7107C1.42207 17.2568 1.06774 17.9532 0.923366 18.7121L0.0460785 23.3496ZM2.91486 19.1381C2.97959 18.7921 3.14079 18.4745 3.37793 18.2261L18.1172 2.66538C18.4348 2.33044 18.8652 2.14237 19.314 2.14237C19.7628 2.14237 20.1932 2.33044 20.5108 2.66538L22.4251 4.68675C22.7419 5.02224 22.9198 5.4767 22.9198 5.95045C22.9198 6.42421 22.7419 6.87866 22.4251 7.21415L7.68858 22.7749C7.45335 23.0253 7.15254 23.1955 6.82488 23.2639L2.4398 24.1902C2.32938 24.2128 2.21525 24.1764 2.13508 24.093C2.05311 24.0096 2.01778 23.8874 2.04169 23.7699L2.91486 19.1381Z" fill="#7C2A7A"/>
<path d="M25 29.4143C25 29.13 24.893 28.8573 24.7026 28.6562C24.5121 28.4551 24.2539 28.3422 23.9846 28.3422H3.67705C3.31427 28.3422 2.97909 28.5465 2.79767 28.8782C2.61626 29.2099 2.61628 29.6187 2.79767 29.9504C2.97907 30.2821 3.31424 30.4865 3.67705 30.4865H23.9846C24.2539 30.4865 24.5121 30.3736 24.7026 30.1724C24.893 29.9714 25 29.6987 25 29.4143Z" fill="#7C2A7A"/>
</g>
<defs>
<clipPath id="clip0_33_25">
<rect width="25" height="31" fill="white"/>
</clipPath>
</defs>
</svg>
