<svg width="25" height="25" viewBox="0 0 25 25" fill="none" xmlns="http://www.w3.org/2000/svg">
<path d="M24.3987 8.66756C23.5889 6.14999 22.0007 3.95449 19.863 2.39688C17.7253 0.839269 15.1482 0 12.5029 0C9.85764 0 7.28075 0.839176 5.14281 2.39688C3.00514 3.95449 1.41682 6.14999 0.60709 8.66756L0.601275 8.68155C-0.200425 11.164 -0.200425 13.8358 0.601275 16.3185L0.60709 16.3324C1.41695 18.85 3.0051 21.0455 5.14281 22.6031C7.28056 24.1607 9.85764 25 12.5029 25C15.1482 25 17.7251 24.1607 19.863 22.6031C22.0007 21.0455 23.589 18.85 24.3987 16.3324V16.3185C25.2004 13.836 25.2004 11.1642 24.3987 8.68155V8.66756ZM12.5029 23.26C11.1746 23.26 9.73016 20.702 9.07768 16.8649H15.9281C15.2756 20.7078 13.8312 23.26 12.5029 23.26ZM8.85205 15.1208C8.77182 14.2871 8.72293 13.4162 8.72293 12.5046C8.72293 11.593 8.77182 10.7222 8.85205 9.88844H16.1538C16.234 10.7222 16.2829 11.593 16.2829 12.5046C16.2829 13.4162 16.234 14.2871 16.1538 15.1208H8.85205ZM1.74457 12.5046C1.7482 11.6221 1.86069 10.7434 2.07948 9.88844H7.10159C7.02363 10.7559 6.97829 11.6326 6.97829 12.5046C6.97829 13.3767 7.02363 14.2487 7.10159 15.1208H2.07948C1.86068 14.2658 1.7482 13.3871 1.74457 12.5046ZM12.5029 1.74923C13.8312 1.74923 15.2757 4.30727 15.9281 8.14432H9.07768C9.73019 4.30146 11.1746 1.74923 12.5029 1.74923ZM17.9042 9.88844H22.9263C23.3729 11.604 23.3729 13.4053 22.9263 15.1208H17.9042C17.9821 14.2534 18.0275 13.3767 18.0275 12.5046C18.0275 11.6326 17.9821 10.7605 17.9042 9.88844ZM22.3238 8.14432H17.6902C17.427 6.07636 16.7717 4.07751 15.7595 2.25503C17.2073 2.71931 18.5408 3.48381 19.6727 4.49866C20.8047 5.51352 21.7097 6.75582 22.3285 8.14432H22.3238ZM9.24633 2.25503C8.23409 4.07753 7.57877 6.07627 7.31564 8.14432H2.67734C3.29605 6.75585 4.20105 5.5135 5.33308 4.49866C6.46498 3.48379 7.79855 2.71929 9.24633 2.25503ZM2.67734 16.8649H7.31564C7.57877 18.9329 8.23409 20.9317 9.24633 22.7542C7.7985 22.2899 6.46498 21.5254 5.33308 20.5106C4.2011 19.4957 3.29609 18.2534 2.67734 16.8649ZM15.7595 22.7542C16.7717 20.9317 17.427 18.933 17.6902 16.8649H22.3285C21.7098 18.2534 20.8048 19.4957 19.6727 20.5106C18.5408 21.5254 17.2073 22.2899 15.7595 22.7542Z" fill="#7C2A7A"/>
</svg>
