<svg width="77" height="77" viewBox="0 0 77 77" fill="none" xmlns="http://www.w3.org/2000/svg">
<path d="M75.1481 26.6961C72.6537 18.942 67.7622 12.1798 61.1781 7.38239C54.5938 2.58495 46.6564 0 38.509 0C30.3615 0 22.4247 2.58466 15.8398 7.38239C9.25584 12.1798 4.36379 18.942 1.86984 26.6961L1.85193 26.7392C-0.617309 34.3851 -0.617309 42.6141 1.85193 50.2608L1.86984 50.3039C4.36422 58.058 9.25569 64.8202 15.8398 69.6176C22.4241 74.4148 30.3615 77 38.509 77C46.6564 77 54.5932 74.4151 61.1781 69.6176C67.7621 64.8202 72.6541 58.058 75.1481 50.3039V50.2608C77.6173 42.6149 77.6173 34.3859 75.1481 26.7392V26.6961ZM38.509 71.6408C34.4179 71.6408 29.9689 63.762 27.9593 51.9439H49.0586C47.0489 63.7799 42.6 71.6408 38.509 71.6408ZM27.2643 46.572C27.0172 44.0041 26.8666 41.3218 26.8666 38.5142C26.8666 35.7066 27.0172 33.0243 27.2643 30.4564H49.7536C50.0007 33.0243 50.1513 35.7066 50.1513 38.5142C50.1513 41.3218 50.0007 44.0041 49.7536 46.572H27.2643ZM5.37327 38.5142C5.38446 35.7961 5.73093 33.0898 6.40481 30.4564H21.8729C21.6328 33.1281 21.4931 35.8283 21.4931 38.5142C21.4931 41.2002 21.6328 43.8861 21.8729 46.572H6.40481C5.7309 43.9387 5.38444 41.2323 5.37327 38.5142ZM38.509 5.38764C42.6 5.38764 47.049 13.2664 49.0586 25.0845H27.9593C29.969 13.2485 34.4179 5.38764 38.509 5.38764ZM55.1449 30.4564H70.613C71.9885 35.7402 71.9885 41.2883 70.613 46.572H55.1449C55.385 43.9003 55.5246 41.2002 55.5246 38.5142C55.5246 35.8283 55.385 33.1423 55.1449 30.4564ZM68.7574 25.0845H54.4857C53.6753 18.7152 51.6569 12.5587 48.5392 6.94548C52.9985 8.37547 57.1058 10.7301 60.592 13.8559C64.0785 16.9817 66.8659 20.8079 68.7717 25.0845H68.7574ZM28.4787 6.94548C25.361 12.5588 23.3426 18.7149 22.5322 25.0845H8.24622C10.1518 20.808 12.9392 16.9816 16.4259 13.8559C19.9121 10.7301 24.0195 8.3754 28.4787 6.94548ZM8.24622 51.9439H22.5322C23.3426 58.3132 25.361 64.4697 28.4787 70.0829C24.0194 68.653 19.9121 66.2983 16.4259 63.1726C12.9394 60.0468 10.152 56.2205 8.24622 51.9439ZM48.5392 70.0829C51.6569 64.4696 53.6753 58.3135 54.4857 51.9439H68.7717C66.8661 56.2204 64.0787 60.0469 60.592 63.1726C57.1058 66.2984 52.9984 68.653 48.5392 70.0829Z" fill="url(#paint0_linear_27_2)"/>
<defs>
<linearGradient id="paint0_linear_27_2" x1="38.5" y1="0" x2="38.5" y2="77" gradientUnits="userSpaceOnUse">
<stop stop-color="#3DD36F"/>
<stop offset="1" stop-color="#1F6D66"/>
</linearGradient>
</defs>
</svg>
