<svg width="25" height="24" viewBox="0 0 25 24" fill="none" xmlns="http://www.w3.org/2000/svg">
<path d="M7.84891 23.6875H17.1511C18.6154 23.6857 20.0192 23.1032 21.0545 22.0678C22.0898 21.0324 22.6724 19.6286 22.6742 18.1644V11.1428C22.6742 10.6741 23.2164 10.4135 23.5824 10.7064C23.8255 10.9013 24.1543 10.9515 24.4446 10.8383C24.7349 10.725 24.9428 10.4655 24.9899 10.1574C25.0371 9.84941 24.9163 9.53965 24.673 9.34479L14.4976 1.20538C13.9319 0.748996 13.2269 0.5 12.5 0.5C11.7731 0.5 11.068 0.748996 10.5024 1.20538L0.326961 9.34479C0.146368 9.48941 0.0306397 9.6999 0.0052913 9.9298C-0.0201455 10.1597 0.0468069 10.3904 0.191516 10.571C0.336137 10.7515 0.546534 10.8672 0.77653 10.8926C1.00645 10.918 1.2371 10.851 1.41759 10.7064C1.78354 10.4135 2.32574 10.6741 2.32574 11.1428V18.1644C2.32756 19.6287 2.91012 21.0325 3.94543 22.0679C4.98084 23.1033 6.38475 23.6857 7.84891 23.6875ZM11.5919 2.56695C11.849 2.35955 12.1692 2.24646 12.4995 2.24646C12.8297 2.24646 13.15 2.35956 13.407 2.56695L15.2994 4.08062C18.8583 6.92718 20.9301 11.2373 20.9301 15.7945V18.1644C20.9288 19.1663 20.5303 20.1267 19.8219 20.8353C19.1135 21.5436 18.153 21.9423 17.151 21.9434H7.84886C6.84697 21.9423 5.8865 21.5436 5.17798 20.8353C4.46959 20.1268 4.07106 19.1663 4.06981 18.1644V15.7939C4.06981 11.237 6.14127 6.92721 9.69968 4.08063L11.5919 2.56695Z" fill="#272531"/>
</svg>
