<svg width="25" height="24" viewBox="0 0 25 24" fill="none" xmlns="http://www.w3.org/2000/svg">
<path d="M7.84891 23.1875H17.1511C18.6154 23.1857 20.0192 22.6032 21.0545 21.5678C22.0898 20.5324 22.6724 19.1286 22.6742 17.6644V10.6428C22.6742 10.1741 23.2164 9.91355 23.5824 10.2064C23.8255 10.4013 24.1543 10.4515 24.4446 10.3383C24.7349 10.225 24.9428 9.96549 24.9899 9.65745C25.0371 9.34941 24.9163 9.03965 24.673 8.84479L14.4976 0.705384C13.9319 0.248996 13.2269 0 12.5 0C11.7731 0 11.068 0.248996 10.5024 0.705384L0.326961 8.84479C0.146368 8.98941 0.0306397 9.1999 0.0052913 9.4298C-0.0201455 9.65972 0.0468069 9.89038 0.191516 10.071C0.336137 10.2515 0.546534 10.3672 0.77653 10.3926C1.00645 10.418 1.2371 10.351 1.41759 10.2064C1.78354 9.91355 2.32574 10.1741 2.32574 10.6428V17.6644C2.32756 19.1287 2.91012 20.5325 3.94543 21.5679C4.98084 22.6033 6.38475 23.1857 7.84891 23.1875ZM11.5919 2.06695C11.849 1.85955 12.1692 1.74646 12.4995 1.74646C12.8297 1.74646 13.15 1.85956 13.407 2.06695L15.2994 3.58062C18.8583 6.42718 20.9301 10.7373 20.9301 15.2945V17.6644C20.9288 18.6663 20.5303 19.6267 19.8219 20.3353C19.1135 21.0436 18.153 21.4423 17.151 21.4434H7.84886C6.84697 21.4423 5.8865 21.0436 5.17798 20.3353C4.46959 19.6268 4.07106 18.6663 4.06981 17.6644V15.2939C4.06981 10.737 6.14127 6.42721 9.69968 3.58063L11.5919 2.06695Z" fill="#7C2A7A"/>
</svg>
