<svg width="53" height="53" viewBox="0 0 53 53" fill="none" xmlns="http://www.w3.org/2000/svg">
<path fill-rule="evenodd" clip-rule="evenodd" d="M52.5526 21.6322C52.4094 20.8603 51.7435 20.2956 50.9585 20.2791C50.1742 20.2625 49.4861 20.7991 49.3097 21.5644C47.7901 28.1837 41.8574 33.125 34.781 33.125C26.5545 33.125 19.8748 26.4453 19.8748 18.2188C19.8748 11.1424 24.8161 5.20994 31.4354 3.69017C32.2005 3.51385 32.7373 2.82565 32.7207 2.04134C32.7042 1.25636 32.1393 0.590376 31.3676 0.447187C29.7892 0.153205 28.1628 0 26.5 0C11.8746 0 0 11.8746 0 26.5C0 41.1253 11.8746 53 26.5 53C41.1253 53 53 41.1253 53 26.5C53 24.8372 52.8468 23.2106 52.5528 21.6324L52.5526 21.6322ZM24.1438 3.43069C19.5526 6.73992 16.5621 12.1324 16.5621 18.2186C16.5621 28.2736 24.7259 36.4373 34.7809 36.4373C40.8666 36.4373 46.2593 33.4469 49.5687 28.8557C48.3878 40.547 38.5028 49.6873 26.4996 49.6873C13.7019 49.6873 3.3121 39.2976 3.3121 26.4998C3.3121 14.4971 12.4524 4.61171 24.1438 3.43069Z" fill="#FEFEFE"/>
</svg>
