<svg width="54" height="53" viewBox="0 0 54 53" fill="none" xmlns="http://www.w3.org/2000/svg">
<g clip-path="url(#clip0_39_39)">
<path fill-rule="evenodd" clip-rule="evenodd" d="M53.0526 21.6322C52.9094 20.8603 52.2435 20.2956 51.4585 20.2791C50.6742 20.2625 49.9861 20.7991 49.8097 21.5644C48.2901 28.1837 42.3574 33.125 35.281 33.125C27.0545 33.125 20.3748 26.4453 20.3748 18.2188C20.3748 11.1424 25.3161 5.20994 31.9354 3.69017C32.7005 3.51385 33.2373 2.82565 33.2207 2.04134C33.2042 1.25636 32.6393 0.590376 31.8676 0.447187C30.2892 0.153205 28.6628 0 27 0C12.3746 0 0.5 11.8746 0.5 26.5C0.5 41.1253 12.3746 53 27 53C41.6253 53 53.5 41.1253 53.5 26.5C53.5 24.8372 53.3466 23.2104 53.0526 21.6322ZM24.6438 3.43069C20.0526 6.73992 17.0621 12.1324 17.0621 18.2186C17.0621 28.2736 25.2259 36.4373 35.2809 36.4373C41.3666 36.4373 46.7593 33.4469 50.0687 28.8557C48.8878 40.547 39.0028 49.6873 26.9996 49.6873C14.2019 49.6873 3.8121 39.2976 3.8121 26.4998C3.8121 14.4971 12.9524 4.61171 24.6438 3.43069Z" fill="#272531"/>
</g>
<defs>
<clipPath id="clip0_39_39">
<rect width="53" height="53" fill="white" transform="translate(0.5)"/>
</clipPath>
</defs>
</svg>
