<svg width="54" height="54" viewBox="0 0 54 54" fill="none" xmlns="http://www.w3.org/2000/svg">
<g clip-path="url(#clip0_35_39)">
<path fill-rule="evenodd" clip-rule="evenodd" d="M53.0526 22.1322C52.9094 21.3603 52.2435 20.7956 51.4585 20.7791C50.6742 20.7625 49.9861 21.2991 49.8097 22.0644C48.2901 28.6837 42.3574 33.625 35.281 33.625C27.0545 33.625 20.3748 26.9453 20.3748 18.7188C20.3748 11.6424 25.3161 5.70994 31.9354 4.19017C32.7005 4.01385 33.2373 3.32565 33.2207 2.54134C33.2042 1.75636 32.6393 1.09038 31.8676 0.947187C30.2892 0.653205 28.6628 0.5 27 0.5C12.3746 0.5 0.5 12.3746 0.5 27C0.5 41.6253 12.3746 53.5 27 53.5C41.6253 53.5 53.5 41.6253 53.5 27C53.5 25.3372 53.3466 23.7104 53.0526 22.1322ZM24.6438 3.93069C20.0526 7.23992 17.0621 12.6324 17.0621 18.7186C17.0621 28.7736 25.2259 36.9373 35.2809 36.9373C41.3666 36.9373 46.7593 33.9469 50.0687 29.3557C48.8878 41.047 39.0028 50.1873 26.9996 50.1873C14.2019 50.1873 3.8121 39.7976 3.8121 26.9998C3.8121 14.9971 12.9524 5.11171 24.6438 3.93069Z" fill="#7C2A7A"/>
</g>
<defs>
<clipPath id="clip0_35_39">
<rect width="53" height="53" fill="white" transform="translate(0.5 0.5)"/>
</clipPath>
</defs>
</svg>
