<svg width="8" height="8" viewBox="0 0 8 8" fill="none" xmlns="http://www.w3.org/2000/svg">
<path d="M0.872132 4.64873H2.90703V6.68253C2.90703 6.99395 3.07327 7.28168 3.34308 7.43741C3.6129 7.59312 3.94536 7.59312 4.21518 7.43741C4.485 7.28169 4.65123 6.99397 4.65123 6.68253V4.64873H6.68613C6.99771 4.64873 7.2856 4.48257 7.44142 4.21291C7.59721 3.94324 7.59721 3.61095 7.44142 3.34128C7.28562 3.07161 6.99774 2.90547 6.68613 2.90547H4.65123V0.871662C4.65123 0.560246 4.48499 0.272516 4.21518 0.116784C3.94536 -0.0389282 3.6129 -0.0389282 3.34308 0.116784C3.07326 0.272497 2.90703 0.560223 2.90703 0.871662V2.90547H0.872132C0.560548 2.90547 0.272663 3.07162 0.116847 3.34128C-0.0389491 3.61095 -0.0389491 3.94324 0.116847 4.21291C0.272644 4.48258 0.560525 4.64873 0.872132 4.64873Z" fill="#FEFEFE"/>
</svg>
