<svg width="18" height="26" viewBox="0 0 18 26" fill="none" xmlns="http://www.w3.org/2000/svg">
<g clip-path="url(#clip0_39_2)">
<path d="M9.87099 9.51165V9.22096H11.3226C13.0929 9.21878 14.79 8.51365 16.0419 7.26027C17.2936 6.00682 17.9978 4.30746 18 2.5349V1.3721C18 1.14081 17.9083 0.918979 17.7449 0.755443C17.5816 0.591833 17.36 0.5 17.129 0.5H14.8065C13.451 0.502362 12.1285 0.917421 11.0139 1.68996C9.89944 2.4625 9.04599 3.55606 8.56684 4.82556C8.05469 4.20274 7.41173 3.70055 6.68374 3.3549C5.95575 3.00915 5.16054 2.82845 4.35489 2.82555H2.0323C1.80132 2.82555 1.57977 2.91739 1.41645 3.08099C1.25305 3.24451 1.16134 3.46634 1.16134 3.69765V5.02668C1.16315 6.49099 1.74498 7.89483 2.77897 8.93019C3.81305 9.96561 5.21512 10.5481 6.67742 10.5499H8.12903V15.6267C5.43716 15.686 0 16.0744 0 18.2325V22.3023C0.000635086 23.1502 0.337309 23.9632 0.936023 24.5628C1.53481 25.1622 2.34671 25.4993 3.19355 25.5H14.8065C15.6533 25.4994 16.4652 25.1623 17.064 24.5628C17.6627 23.9632 17.9993 23.1502 18 22.3023V18.2325C18 16.0743 12.5628 15.686 9.87097 15.6267L9.87099 9.51165ZM9.87099 7.18606C9.87253 5.87582 10.393 4.61977 11.3182 3.69325C12.2434 2.76673 13.4979 2.24566 14.8065 2.24413H16.2581V2.53483C16.2566 3.84507 15.7361 5.10112 14.8109 6.02764C13.8857 6.95415 12.6312 7.47522 11.3226 7.47676H9.87099V7.18606ZM2.90325 5.0267V4.56977H4.35486C5.35548 4.57104 6.31472 4.96956 7.02235 5.67796C7.72983 6.38645 8.12785 7.34695 8.1291 8.3489V8.80584H6.67749C5.67688 8.80466 4.71763 8.40611 4.01001 7.69764C3.30252 6.98915 2.9045 6.02866 2.90325 5.0267ZM14.8065 23.7559H3.19357C2.80881 23.7552 2.43992 23.6019 2.16783 23.3295C1.89574 23.057 1.74259 22.6876 1.74196 22.3024V19.9419C4.10333 20.6015 6.54924 20.9072 9.00002 20.8489C11.4508 20.9072 13.8967 20.6015 16.2581 19.9419V22.3024C16.2575 22.6876 16.1043 23.057 15.8322 23.3295C15.5601 23.6019 15.1912 23.7552 14.8065 23.7559ZM9.00002 19.1047C6.67071 19.1963 4.34232 18.9016 2.10893 18.2326C4.34223 17.5635 6.67071 17.2688 9.00002 17.3605C11.3293 17.2688 13.6577 17.5635 15.8911 18.2326C13.6578 18.9017 11.3293 19.1963 9.00002 19.1047Z" fill="#272531"/>
</g>
<defs>
<clipPath id="clip0_39_2">
<rect width="18" height="25" fill="white" transform="translate(0 0.5)"/>
</clipPath>
</defs>
</svg>
