<svg width="44" height="42" viewBox="0 0 44 42" fill="none" xmlns="http://www.w3.org/2000/svg">
<path d="M37.7256 11.2975H31.4695C31.1195 11.2997 30.7781 11.1911 30.4951 10.9874C30.2122 10.7839 30.0027 10.496 29.8972 10.1661L27.9647 4.28466C27.4153 2.61319 26.1743 1.25086 24.5503 0.536013C22.9265 -0.178671 21.0719 -0.178671 19.448 0.536013C17.824 1.25086 16.583 2.61319 16.0336 4.28466L14.1012 10.1682C13.9953 10.4977 13.7856 10.785 13.5027 10.9882C13.2198 11.1915 12.8786 11.2998 12.5288 11.2975H6.27267C4.49498 11.2968 2.80062 12.0423 1.61084 13.3484C0.421225 14.6545 -0.151657 16.3984 0.0345131 18.1463C0.220839 19.8941 1.14879 21.4816 2.58755 22.5139L7.64817 26.1569C7.92997 26.3589 8.13998 26.6439 8.24807 26.9711C8.35619 27.2982 8.35683 27.6508 8.24999 27.9785L6.31541 33.8599V33.8598C5.76779 35.5311 5.96259 37.3535 6.85136 38.8746C7.74028 40.3959 9.23984 41.4731 10.9781 41.839C12.7161 42.2049 14.5294 41.8249 15.9683 40.7937L21.0289 37.1507C21.3105 36.9453 21.6512 36.8344 22.0013 36.8344C22.3512 36.8344 22.692 36.9453 22.9737 37.1507L28.0343 40.7937H28.0342C29.0995 41.577 30.3916 42 31.7191 42C33.0467 42 34.3388 41.577 35.404 40.7937C36.4876 40.0343 37.2946 38.9497 37.7053 37.7011C38.1162 36.4524 38.1088 35.1061 37.6847 33.8618L35.7501 27.9925C35.6434 27.6648 35.6442 27.3124 35.7523 26.9852C35.8604 26.6583 36.0703 26.3732 36.3519 26.1709L41.4126 22.5279H41.4124C42.8512 21.4957 43.7793 19.908 43.9654 18.1603C44.1518 16.4125 43.5789 14.6686 42.3893 13.3624C41.1997 12.0563 39.5053 11.3108 37.7274 11.3115L37.7256 11.2975ZM39.607 20.057L34.5463 23.7C33.7375 24.2782 33.1354 25.0957 32.827 26.0343C32.5187 26.9729 32.52 27.9841 32.8309 28.9217L34.7634 34.8032C35.0426 35.6561 34.9431 36.5858 34.4896 37.362C34.036 38.1381 33.2708 38.6877 32.384 38.8744C31.4972 39.061 30.5719 38.8671 29.8378 38.3411L24.7772 34.698H24.7773C23.971 34.1153 22.9981 33.8015 21.9992 33.8015C21.0004 33.8015 20.0276 34.1154 19.2211 34.698L14.1605 38.3411H14.1607C13.4266 38.8671 12.5014 39.061 11.6145 38.8744C10.7277 38.6877 9.9625 38.1381 9.50893 37.362C9.05536 36.5858 8.95586 35.6561 9.23512 34.8032L11.1676 28.9217C11.479 27.9837 11.4804 26.9721 11.1721 26.0332C10.8637 25.0942 10.2614 24.2764 9.45214 23.6981L4.39356 20.057C3.65945 19.5303 3.18589 18.7204 3.0909 17.8286C2.99574 16.9368 3.28779 16.0471 3.89458 15.3805C4.50137 14.714 5.36585 14.3334 6.27283 14.3334H12.529C13.5293 14.338 14.5049 14.0276 15.3148 13.4472C16.1245 12.8667 16.7262 12.0465 17.0328 11.1053L18.9653 5.22381C19.2463 4.37154 19.8796 3.67709 20.7081 3.31263C21.5365 2.94832 22.4824 2.94832 23.3109 3.31263C24.1393 3.67709 24.7727 4.37154 25.0537 5.22381L26.9862 11.1033C27.291 12.0465 27.8919 12.869 28.7018 13.4513C29.5118 14.0337 30.4884 14.3455 31.4899 14.3415H37.7461C38.6533 14.3411 39.5182 14.7212 40.1255 15.3876C40.7327 16.0541 41.0253 16.944 40.9303 17.8361C40.8353 18.7282 40.3617 19.5384 39.6274 20.0652L39.607 20.057Z" fill="url(#paint0_linear_23_26)"/>
<defs>
<linearGradient id="paint0_linear_23_26" x1="-1.00497e-07" y1="15" x2="46.5" y2="16" gradientUnits="userSpaceOnUse">
<stop stop-color="#DFCF6D"/>
<stop offset="1" stop-color="#C1B534"/>
</linearGradient>
</defs>
</svg>
