<svg width="57" height="46" viewBox="0 0 57 46" fill="none" xmlns="http://www.w3.org/2000/svg">
<g clip-path="url(#clip0_44_7)">
<path d="M0 43.5459C0 44.244 0.372483 44.8891 0.977011 45.2382C1.58156 45.5873 2.32648 45.5873 2.93103 45.2382C3.53558 44.8891 3.90804 44.2441 3.90804 43.5459V39.8984C3.90804 36.2706 5.34912 32.7915 7.9142 30.2262C10.4794 27.6612 13.9586 26.2201 17.5864 26.2201C21.2141 26.2201 24.6933 27.6612 27.2585 30.2262C29.8236 32.7915 31.2647 36.2707 31.2647 39.8984V43.5459C31.2647 44.244 31.6371 44.8891 32.2417 45.2382C32.8462 45.5873 33.5911 45.5873 34.1957 45.2382C34.8002 44.8891 35.1727 44.2441 35.1727 43.5459V39.8984C35.1672 36.3502 34.089 32.8868 32.08 29.9621C30.071 27.0375 27.2249 24.7886 23.9148 23.5107C26.244 22.1247 28.0537 20.0123 29.0661 17.4985C30.0785 14.9844 30.2375 12.2076 29.5188 9.59386C28.8001 6.98058 27.2434 4.67541 25.0878 3.03252C22.9321 1.38973 20.2968 0.5 17.5865 0.5C14.8761 0.5 12.2408 1.38968 10.0851 3.03252C7.9296 4.6753 6.3729 6.98048 5.65418 9.59386C4.93547 12.2071 5.09445 14.9844 6.10686 17.4985C7.11931 20.0125 8.92899 22.1249 11.2581 23.5107C7.94813 24.7887 5.10219 27.0377 3.09293 29.9621C1.08394 32.8866 0.00578396 36.3499 0.000260592 39.8984L0 43.5459ZM17.5862 4.46547C19.8319 4.46547 21.9856 5.35759 23.5738 6.94546C25.1617 8.53353 26.0538 10.6872 26.0538 12.9331C26.0538 15.179 25.1617 17.3325 23.5738 18.9207C21.9858 20.5086 19.8321 21.4007 17.5862 21.4007C15.3403 21.4007 13.1868 20.5086 11.5986 18.9207C10.0107 17.3327 9.11856 15.179 9.11856 12.9331C9.12141 10.6882 10.0143 8.53614 11.6016 6.94858C13.189 5.36135 15.3412 4.46828 17.5862 4.46547Z" fill="#4F207E"/>
<path d="M49.7678 27.6428C51.3406 26.3735 52.481 24.6478 53.0322 22.7036C53.5832 20.7592 53.5177 18.6917 52.8448 16.7858C52.1716 14.8802 50.9243 13.2301 49.2744 12.0631C47.6244 10.896 45.6531 10.2693 43.6322 10.2693C41.6112 10.2693 39.6401 10.896 37.99 12.0631C36.3401 13.2301 35.0926 14.8802 34.4196 16.7858C33.7467 18.6915 33.6812 20.7589 34.2322 22.7036C34.7831 24.6478 35.9238 26.3735 37.4964 27.6428C36.5941 28.1441 35.7582 28.7568 35.0083 29.4665C34.6171 29.8225 34.3871 30.3222 34.3706 30.8508C34.3541 31.3796 34.5528 31.8925 34.9212 32.2721C35.2896 32.652 35.7962 32.8661 36.3252 32.8655C36.8544 32.8651 37.3606 32.6501 37.7285 32.2699C39.3523 30.7708 41.4855 29.9452 43.6958 29.9607C45.9056 29.9762 48.0272 30.8315 49.6298 32.3532C51.2221 33.94 52.1132 36.0978 52.1048 38.3455V40.9509C52.1048 41.649 52.4773 42.294 53.0819 42.6432C53.6864 42.9923 54.4313 42.9922 55.0359 42.6432C55.6404 42.2941 56.0129 41.6491 56.0129 40.9509V38.3455C56.0176 36.7169 55.699 35.1037 55.0756 33.5993C54.4521 32.0947 53.5362 30.7289 52.3811 29.5811C51.5978 28.8242 50.7193 28.1726 49.7678 27.6428ZM37.7831 20.0872C37.786 18.5326 38.4062 17.0428 39.5072 15.9455C40.6083 14.8481 42.1003 14.2331 43.6548 14.2356C45.2095 14.2382 46.6994 14.858 47.7969 15.959C48.8944 17.06 49.5097 18.5517 49.5073 20.1064C49.505 21.6609 48.8852 23.1508 47.7845 24.2485C46.6838 25.3462 45.192 25.9617 43.6375 25.9597C42.0832 25.9583 40.5929 25.3403 39.4939 24.2412C38.3948 23.1423 37.7768 21.652 37.7754 20.0977L37.7831 20.0872Z" fill="#4F207E"/>
</g>
<defs>
<clipPath id="clip0_44_7">
<rect width="57" height="45" fill="white" transform="translate(0 0.5)"/>
</clipPath>
</defs>
</svg>
