<svg width="25" height="25" viewBox="0 0 25 25" fill="none" xmlns="http://www.w3.org/2000/svg">
<g clip-path="url(#clip0_39_26)">
<path d="M0.596209 23.7894C3.51902 24.6335 6.55067 25.0404 9.59279 24.9968C12.6349 25.0404 15.6666 24.6335 18.5894 23.7894C18.7629 23.7315 18.914 23.6207 19.021 23.4724C19.1281 23.3241 19.1857 23.1459 19.1859 22.963V21.2198C19.183 19.3074 18.6087 17.4395 17.5366 15.8554C16.4644 14.2713 14.9433 13.0434 13.1684 12.3291C14.3924 11.5549 15.3318 10.4043 15.8452 9.05042C16.3584 7.69659 16.418 6.21263 16.0146 4.82221C15.6113 3.4316 14.7671 2.20964 13.609 1.33987C12.4508 0.470146 11.0415 0 9.59293 0C8.14431 0 6.735 0.470146 5.57685 1.33987C4.41868 2.2095 3.57446 3.4315 3.17125 4.82221C2.7679 6.21272 2.82741 7.69649 3.34068 9.05042C3.85403 10.4044 4.79336 11.5549 6.01744 12.3291C4.24245 13.0434 2.72137 14.2713 1.64927 15.8554C0.577121 17.4394 0.00281397 19.3075 0 21.2198V22.963C0.000181676 23.1459 0.0577771 23.3241 0.16488 23.4724C0.271895 23.6207 0.422696 23.7315 0.596209 23.7894ZM4.65089 6.69263C4.65089 5.38265 5.17152 4.12632 6.0983 3.20007C7.0251 2.27377 8.28208 1.75344 9.59274 1.75344C10.9034 1.75344 12.1604 2.27379 13.0872 3.20007C14.014 4.12637 14.5346 5.38267 14.5346 6.69263C14.5346 8.00259 14.014 9.25894 13.0872 10.1852C12.1604 11.1115 10.9034 11.6318 9.59274 11.6318C8.2825 11.6303 7.02644 11.1094 6.09993 10.1835C5.17341 9.25757 4.65242 8.00221 4.65089 6.69263ZM1.74389 21.2198C1.74389 19.1392 2.57085 17.1438 4.04279 15.6727C5.51474 14.2016 7.51119 13.3751 9.59284 13.3751C11.6745 13.3751 13.671 14.2016 15.1429 15.6727C16.6148 17.1439 17.4418 19.1393 17.4418 21.2198V22.3064C14.8755 22.9496 12.2385 23.2678 9.59288 23.2536C6.94728 23.2678 4.31028 22.9496 1.74399 22.3064L1.74389 21.2198Z" fill="#272531"/>
<path d="M18.314 10.4685H20.3489V12.5023C20.3489 12.8138 20.5152 13.1015 20.785 13.2572C21.0548 13.4129 21.3873 13.4129 21.6571 13.2572C21.9269 13.1015 22.0931 12.8138 22.0931 12.5023V10.4685H24.128C24.4396 10.4685 24.7275 10.3024 24.8833 10.0327C25.0391 9.76307 25.0391 9.43078 24.8833 9.16111C24.7275 8.89144 24.4396 8.72529 24.128 8.72529H22.0931V6.69149C22.0931 6.38008 21.9269 6.09234 21.6571 5.93661C21.3873 5.7809 21.0548 5.7809 20.785 5.93661C20.5152 6.09233 20.3489 6.38005 20.3489 6.69149V8.72529H18.314C18.0024 8.72529 17.7146 8.89145 17.5587 9.16111C17.4029 9.43078 17.4029 9.76307 17.5587 10.0327C17.7145 10.3024 18.0024 10.4685 18.314 10.4685Z" fill="#272531"/>
</g>
<defs>
<clipPath id="clip0_39_26">
<rect width="25" height="25" fill="white"/>
</clipPath>
</defs>
</svg>
