<svg width="25" height="22" viewBox="0 0 25 22" fill="none" xmlns="http://www.w3.org/2000/svg">
<g clip-path="url(#clip0_33_28)">
<path d="M0 19.7125C0 20.0241 0.166249 20.312 0.436066 20.4678C0.705892 20.6236 1.03837 20.6236 1.3082 20.4678C1.57802 20.312 1.74426 20.0241 1.74426 19.7125V18.0845C1.74426 16.4654 2.38745 14.9125 3.53232 13.7676C4.67725 12.6227 6.23011 11.9796 7.84925 11.9796C9.4684 11.9796 11.0213 12.6227 12.1662 13.7676C13.3111 14.9125 13.9542 16.4654 13.9542 18.0845V19.7125C13.9542 20.0241 14.1205 20.312 14.3903 20.4678C14.6601 20.6236 14.9926 20.6236 15.2624 20.4678C15.5323 20.312 15.6985 20.0241 15.6985 19.7125V18.0845C15.6961 16.5009 15.2148 14.9551 14.3182 13.6497C13.4215 12.3444 12.1512 11.3406 10.6738 10.7703C11.7134 10.1517 12.5211 9.20888 12.973 8.08689C13.4248 6.96475 13.4958 5.7254 13.175 4.55883C12.8542 3.39245 12.1594 2.36359 11.1974 1.63033C10.2352 0.897111 9.05902 0.5 7.84931 0.5C6.63961 0.5 5.46339 0.897087 4.50126 1.63033C3.53919 2.36355 2.84439 3.39241 2.52361 4.55883C2.20283 5.72521 2.27379 6.96475 2.72566 8.08689C3.17754 9.20894 3.98525 10.1517 5.0248 10.7703C3.54746 11.3407 2.27724 12.3445 1.38046 13.6497C0.483789 14.955 0.00258153 16.5008 0.000116309 18.0845L0 19.7125ZM7.84918 2.26989C8.85151 2.26989 9.81276 2.66807 10.5216 3.37678C11.2303 4.08558 11.6285 5.04683 11.6285 6.04922C11.6285 7.05162 11.2303 8.0128 10.5216 8.72167C9.81283 9.43037 8.85158 9.82855 7.84918 9.82855C6.84679 9.82855 5.88561 9.43037 5.17674 8.72167C4.46803 8.01287 4.06985 7.05162 4.06985 6.04922C4.07113 5.04727 4.46966 4.08674 5.17809 3.37817C5.88661 2.66975 6.84718 2.27115 7.84918 2.26989Z" fill="#7C2A7A"/>
<path d="M22.2127 12.6145C22.9147 12.048 23.4237 11.2778 23.6697 10.4101C23.9156 9.5422 23.8864 8.61946 23.586 7.76877C23.2856 6.91827 22.7289 6.18177 21.9925 5.66093C21.2561 5.14002 20.3762 4.86029 19.4742 4.86029C18.5722 4.86029 17.6924 5.14 16.956 5.66093C16.2196 6.18177 15.6628 6.91824 15.3624 7.76877C15.0621 8.61936 15.0328 9.5421 15.2787 10.4101C15.5246 11.2778 16.0338 12.048 16.7357 12.6145C16.3329 12.8383 15.9598 13.1117 15.6251 13.4285C15.4505 13.5874 15.3479 13.8105 15.3405 14.0464C15.3332 14.2824 15.4218 14.5113 15.5863 14.6807C15.7507 14.8503 15.9768 14.9458 16.2129 14.9456C16.4491 14.9454 16.675 14.8495 16.8392 14.6797C17.564 14.0106 18.5161 13.6422 19.5026 13.6491C20.4889 13.656 21.4358 14.0377 22.1511 14.7169C22.8618 15.4252 23.2595 16.3882 23.2558 17.3915V18.5543C23.2558 18.8659 23.422 19.1538 23.6918 19.3096C23.9617 19.4654 24.2941 19.4654 24.564 19.3096C24.8338 19.1538 25 18.8659 25 18.5543V17.3915C25.0021 16.6646 24.86 15.9445 24.5817 15.2731C24.3034 14.6015 23.8946 13.992 23.3791 13.4797C23.0295 13.1418 22.6374 12.851 22.2127 12.6145ZM16.8636 9.2423C16.8649 8.54841 17.1417 7.88349 17.6331 7.39375C18.1246 6.90392 18.7905 6.62946 19.4843 6.63056C20.1782 6.63174 20.8432 6.90836 21.333 7.39975C21.8229 7.89115 22.0975 8.55697 22.0964 9.25086C22.0954 9.94466 21.8188 10.6097 21.3275 11.0996C20.8362 11.5895 20.1704 11.8643 19.4766 11.8633C18.7829 11.8627 18.1177 11.5869 17.6272 11.0963C17.1366 10.6058 16.8608 9.94068 16.8602 9.24695L16.8636 9.2423Z" fill="#7C2A7A"/>
</g>
<defs>
<clipPath id="clip0_33_28">
<rect width="25" height="21" fill="white" transform="translate(0 0.5)"/>
</clipPath>
</defs>
</svg>
