<svg width="25" height="26" viewBox="0 0 25 26" fill="none" xmlns="http://www.w3.org/2000/svg">
<g clip-path="url(#clip0_33_31)">
<path d="M0.596209 24.2894C3.51902 25.1335 6.55067 25.5404 9.59279 25.4968C12.6349 25.5404 15.6666 25.1335 18.5894 24.2894C18.7629 24.2315 18.914 24.1207 19.021 23.9724C19.1281 23.8241 19.1857 23.6459 19.1859 23.463V21.7198C19.183 19.8074 18.6087 17.9395 17.5366 16.3554C16.4644 14.7713 14.9433 13.5434 13.1684 12.8291C14.3924 12.0549 15.3318 10.9043 15.8452 9.55042C16.3584 8.19659 16.418 6.71263 16.0146 5.32221C15.6113 3.9316 14.7671 2.70964 13.609 1.83987C12.4508 0.970146 11.0415 0.5 9.59293 0.5C8.14431 0.5 6.735 0.970146 5.57685 1.83987C4.41868 2.7095 3.57446 3.9315 3.17125 5.32221C2.7679 6.71272 2.82741 8.19649 3.34068 9.55042C3.85403 10.9044 4.79336 12.0549 6.01744 12.8291C4.24245 13.5434 2.72137 14.7713 1.64927 16.3554C0.577121 17.9394 0.00281397 19.8075 0 21.7198V23.463C0.000181676 23.6459 0.0577771 23.8241 0.16488 23.9724C0.271895 24.1207 0.422696 24.2315 0.596209 24.2894ZM4.65089 7.19263C4.65089 5.88265 5.17152 4.62632 6.0983 3.70007C7.0251 2.77377 8.28208 2.25344 9.59274 2.25344C10.9034 2.25344 12.1604 2.77379 13.0872 3.70007C14.014 4.62637 14.5346 5.88267 14.5346 7.19263C14.5346 8.50259 14.014 9.75894 13.0872 10.6852C12.1604 11.6115 10.9034 12.1318 9.59274 12.1318C8.2825 12.1303 7.02644 11.6094 6.09993 10.6835C5.17341 9.75757 4.65242 8.50221 4.65089 7.19263ZM1.74389 21.7198C1.74389 19.6392 2.57085 17.6438 4.04279 16.1727C5.51474 14.7016 7.51119 13.8751 9.59284 13.8751C11.6745 13.8751 13.671 14.7016 15.1429 16.1727C16.6148 17.6439 17.4418 19.6393 17.4418 21.7198V22.8064C14.8755 23.4496 12.2385 23.7678 9.59288 23.7536C6.94728 23.7678 4.31028 23.4496 1.74399 22.8064L1.74389 21.7198Z" fill="#7C2A7A"/>
<path d="M18.314 10.9685H20.3489V13.0023C20.3489 13.3138 20.5152 13.6015 20.785 13.7572C21.0548 13.9129 21.3873 13.9129 21.6571 13.7572C21.9269 13.6015 22.0931 13.3138 22.0931 13.0023V10.9685H24.128C24.4396 10.9685 24.7275 10.8024 24.8833 10.5327C25.0391 10.2631 25.0391 9.93078 24.8833 9.66111C24.7275 9.39144 24.4396 9.22529 24.128 9.22529H22.0931V7.19149C22.0931 6.88008 21.9269 6.59234 21.6571 6.43661C21.3873 6.2809 21.0548 6.2809 20.785 6.43661C20.5152 6.59233 20.3489 6.88005 20.3489 7.19149V9.22529H18.314C18.0024 9.22529 17.7146 9.39145 17.5587 9.66111C17.4029 9.93078 17.4029 10.2631 17.5587 10.5327C17.7145 10.8024 18.0024 10.9685 18.314 10.9685Z" fill="#7C2A7A"/>
</g>
<defs>
<clipPath id="clip0_33_31">
<rect width="25" height="25" fill="white" transform="translate(0 0.5)"/>
</clipPath>
</defs>
</svg>
