<svg width="25" height="21" viewBox="0 0 25 21" fill="none" xmlns="http://www.w3.org/2000/svg">
<g clip-path="url(#clip0_50_8)">
<mask id="mask0_50_8" style="mask-type:luminance" maskUnits="userSpaceOnUse" x="0" y="0" width="25" height="21">
<path d="M25 0H0V21H25V0Z" fill="white"/>
</mask>
<g mask="url(#mask0_50_8)">
<path d="M0 19.2125C0 19.5241 0.166249 19.812 0.436066 19.9678C0.705892 20.1236 1.03837 20.1236 1.3082 19.9678C1.57802 19.812 1.74426 19.5241 1.74426 19.2125V17.5845C1.74426 15.9654 2.38745 14.4125 3.53232 13.2676C4.67725 12.1227 6.23011 11.4796 7.84925 11.4796C9.4684 11.4796 11.0213 12.1227 12.1662 13.2676C13.3111 14.4125 13.9542 15.9654 13.9542 17.5845V19.2125C13.9542 19.5241 14.1205 19.812 14.3903 19.9678C14.6601 20.1236 14.9926 20.1236 15.2624 19.9678C15.5323 19.812 15.6985 19.5241 15.6985 19.2125V17.5845C15.6961 16.0009 15.2148 14.4551 14.3182 13.1497C13.4215 11.8444 12.1512 10.8406 10.6738 10.2703C11.7134 9.65168 12.5211 8.70888 12.973 7.58689C13.4248 6.46475 13.4958 5.2254 13.175 4.05883C12.8542 2.89245 12.1594 1.86359 11.1974 1.13033C10.2352 0.397111 9.05902 0 7.84931 0C6.63961 0 5.46339 0.397087 4.50126 1.13033C3.53919 1.86355 2.84439 2.89241 2.52361 4.05883C2.20283 5.22521 2.27379 6.46475 2.72566 7.58689C3.17754 8.70894 3.98525 9.65175 5.0248 10.2703C3.54746 10.8407 2.27724 11.8445 1.38046 13.1497C0.483789 14.455 0.00258153 16.0008 0.000116309 17.5845L0 19.2125ZM7.84918 1.76989C8.85151 1.76989 9.81276 2.16807 10.5216 2.87678C11.2303 3.58558 11.6285 4.54683 11.6285 5.54922C11.6285 6.55162 11.2303 7.5128 10.5216 8.22167C9.81283 8.93037 8.85158 9.32855 7.84918 9.32855C6.84679 9.32855 5.88561 8.93037 5.17674 8.22167C4.46803 7.51287 4.06985 6.55162 4.06985 5.54922C4.07113 4.54727 4.46966 3.58674 5.17809 2.87817C5.88661 2.16975 6.84718 1.77115 7.84918 1.76989Z" fill="white"/>
<path d="M22.2129 12.1144C22.9149 11.5479 23.4239 10.7777 23.6699 9.90999C23.9158 9.04214 23.8866 8.1194 23.5862 7.26871C23.2858 6.41821 22.7291 5.68171 21.9927 5.16087C21.2563 4.63996 20.3764 4.36023 19.4744 4.36023C18.5724 4.36023 17.6926 4.63994 16.9562 5.16087C16.2198 5.68171 15.663 6.41818 15.3626 7.26871C15.0623 8.1193 15.033 9.04204 15.2789 9.90999C15.5248 10.7777 16.034 11.5479 16.7359 12.1144C16.3331 12.3382 15.96 12.6116 15.6253 12.9284C15.4507 13.0873 15.3481 13.3104 15.3407 13.5463C15.3334 13.7823 15.422 14.0112 15.5865 14.1806C15.7509 14.3502 15.977 14.4457 16.2131 14.4455C16.4493 14.4453 16.6752 14.3494 16.8394 14.1796C17.5642 13.5105 18.5163 13.1421 19.5028 13.149C20.4891 13.1559 21.436 13.5376 22.1513 14.2168C22.862 14.9251 23.2597 15.8881 23.256 16.8914V18.0542C23.256 18.3658 23.4222 18.6537 23.692 18.8095C23.9619 18.9653 24.2943 18.9653 24.5642 18.8095C24.834 18.6537 25.0002 18.3658 25.0002 18.0542V16.8914C25.0023 16.1645 24.8602 15.4444 24.5819 14.773C24.3036 14.1014 23.8948 13.4919 23.3793 12.9796C23.0297 12.6417 22.6376 12.3509 22.2129 12.1144ZM16.8638 8.74224C16.8651 8.04835 17.1419 7.38343 17.6333 6.89369C18.1248 6.40386 18.7907 6.1294 19.4845 6.1305C20.1784 6.13168 20.8434 6.4083 21.3332 6.89969C21.8231 7.39109 22.0977 8.05691 22.0966 8.7508C22.0956 9.4446 21.819 10.1096 21.3277 10.5995C20.8364 11.0894 20.1706 11.3642 19.4768 11.3632C18.7831 11.3626 18.1179 11.0868 17.6274 10.5962C17.1368 10.1057 16.861 9.44062 16.8604 8.74689L16.8638 8.74224Z" fill="white"/>
</g>
</g>
<defs>
<clipPath id="clip0_50_8">
<rect width="25" height="21" fill="white"/>
</clipPath>
</defs>
</svg>
