<svg width="56" height="53" viewBox="0 0 56 53" fill="none" xmlns="http://www.w3.org/2000/svg">
<path d="M43.628 7.75613H42.9768V7.10978C42.9754 5.22448 42.2202 3.41694 40.8774 2.08386C39.5344 0.751 37.7134 0.00144781 35.814 0H20.186C18.2866 0.00141389 16.4656 0.750948 15.1226 2.08386C13.7798 3.41694 13.0247 5.22448 13.0232 7.10978V7.75613H12.372C9.09199 7.76017 5.94738 9.05549 3.62819 11.3575C1.309 13.6596 0.00406327 16.7811 0 20.0366V40.7196C0.00406978 43.9753 1.30905 47.0967 3.62819 49.3987C5.94753 51.7007 9.09225 52.996 12.372 53H43.628C46.908 52.996 50.0526 51.7006 52.3718 49.3987C54.691 47.0965 55.9959 43.9751 56 40.7196V20.0366C55.9959 16.7808 54.6909 13.6595 52.3718 11.3575C50.0525 9.05544 46.9077 7.76016 43.628 7.75613ZM16.9302 7.10978C16.9316 6.2532 17.2751 5.43193 17.8854 4.82617C18.4956 4.22042 19.323 3.87946 20.186 3.87806H35.814C36.677 3.87948 37.5044 4.22042 38.1146 4.82617C38.7249 5.43193 39.0684 6.2532 39.0698 7.10978V7.75613H16.9302V7.10978ZM3.90689 20.0367C3.90974 17.809 4.80242 15.6734 6.38923 14.0981C7.97625 12.523 10.1278 11.6369 12.3721 11.6341H43.6281C45.8723 11.6369 48.0238 12.523 49.611 14.0981C51.1978 15.6733 52.0905 17.8089 52.0933 20.0367V22.622C52.0905 24.8497 51.1978 26.9853 49.611 28.5606C48.024 30.1357 45.8724 31.0218 43.6281 31.0246H34.8582C34.2986 29.0276 32.8835 27.3752 30.988 26.5053C29.0925 25.6351 26.9079 25.6351 25.0124 26.5053C23.1169 27.3752 21.7018 29.0276 21.1422 31.0246H12.3723C10.1281 31.0218 7.97656 30.1357 6.38944 28.5606C4.80263 26.9854 3.90991 24.8498 3.9071 22.622L3.90689 20.0367ZM31.2558 32.9635C31.2558 33.8205 30.9127 34.6426 30.3023 35.2488C29.6916 35.8547 28.8634 36.1953 28 36.1953C27.1366 36.1953 26.3084 35.8547 25.6977 35.2488C25.0873 34.6426 24.7442 33.8205 24.7442 32.9635C24.7442 32.1065 25.0873 31.2844 25.6977 30.6783C26.3084 30.0724 27.1366 29.7318 28 29.7318C28.863 29.7332 29.6904 30.0742 30.3006 30.6799C30.9109 31.2857 31.2544 32.107 31.2558 32.9635ZM43.628 49.1221H12.372C10.1278 49.1193 7.97625 48.2332 6.38913 46.6582C4.80232 45.0829 3.9096 42.9473 3.90678 40.7196V31.5311C6.18873 33.6905 9.21925 34.8974 12.3719 34.9024H21.1418C21.7014 36.8994 23.1165 38.5518 25.012 39.4218C26.9075 40.2919 29.0921 40.2919 30.9876 39.4218C32.8831 38.5518 34.2982 36.8994 34.8578 34.9024H43.6277C46.7791 34.9002 49.809 33.697 52.0928 31.5414V40.7195C52.09 42.9472 51.1973 45.0828 49.6104 46.6581C48.0234 48.2332 45.8719 49.1193 43.6275 49.1221L43.628 49.1221Z" fill="url(#paint0_linear_23_20)"/>
<defs>
<linearGradient id="paint0_linear_23_20" x1="7.69858e-08" y1="27.2571" x2="56" y2="27.2571" gradientUnits="userSpaceOnUse">
<stop stop-color="#5292FC"/>
<stop offset="1" stop-color="#6ABEFF"/>
</linearGradient>
</defs>
</svg>
