<svg width="1400" height="1300" viewBox="0 0 1400 1300" fill="none" xmlns="http://www.w3.org/2000/svg">
<path d="M450 350.001C422.385 350.001 400 372.386 400 400.001C400 427.616 422.385 450.001 450 450.001H650C677.615 450.001 700 427.616 700 400.001C700 372.386 677.615 350.001 650 350.001H450Z" fill="white"/>
<path d="M400 600.001C400 572.386 422.385 550.001 450 550.001H950C977.615 550.001 1000 572.386 1000 600.001C1000 627.616 977.615 650.001 950 650.001H450C422.385 650.001 400 627.616 400 600.001Z" fill="white"/>
<path d="M450 750.001C422.385 750.001 400 772.386 400 800.001C400 827.616 422.385 850.001 450 850.001H950C977.615 850.001 1000 827.616 1000 800.001C1000 772.386 977.615 750.001 950 750.001H450Z" fill="white"/>
<path fill-rule="evenodd" clip-rule="evenodd" d="M700 0.000671387C321.56 0.000671387 0 261.121 0 600.001C0 773.401 85.4267 927.694 218.68 1035.85L152.571 1234.19C146.243 1253.17 151.836 1274.09 166.795 1287.38C181.753 1300.67 203.191 1303.76 221.295 1295.24L484.921 1171.18C552.785 1189.92 625.081 1200 700.001 1200C1078.44 1200 1400 938.88 1400 600C1400 261.12 1078.44 0 700.001 0L700 0.000671387ZM100 600.001C100 331.361 360.48 100.001 700 100.001C1039.52 100.001 1300 331.361 1300 600.001C1300 868.641 1039.52 1100 700 1100C627.943 1100 559 1089.41 495.2 1070.06C483.361 1066.47 470.601 1067.4 459.408 1072.67L284.355 1155.05L324.803 1033.69C331.704 1013 324.381 990.203 306.709 977.401C178.283 884.313 99.9893 748.627 99.9893 600.001H100Z" fill="white"/>
</svg>
