<svg width="948" height="683" viewBox="0 0 948 683" fill="none" xmlns="http://www.w3.org/2000/svg">
<path d="M77.1129 683H870.274C890.688 682.883 910.239 674.724 924.674 660.287C939.112 645.852 947.271 626.302 947.387 605.887V275.403H0V605.887C0.117044 626.301 8.27585 645.852 22.7135 660.287C37.1482 674.725 56.6978 682.884 77.1129 683ZM605.887 462.678H738.081C749.888 462.678 760.798 468.977 766.702 479.202C772.606 489.426 772.606 502.025 766.702 512.25C760.798 522.475 749.889 528.774 738.081 528.774H605.887C594.08 528.774 583.17 522.474 577.265 512.25C571.361 502.025 571.361 489.426 577.265 479.202C583.169 468.977 594.079 462.678 605.887 462.678Z" fill="white"/>
<path d="M947.387 77.1129C947.27 56.6987 939.111 37.1481 924.674 22.7135C910.239 8.27531 890.689 0.11633 870.274 0H77.1129C56.6987 0.117044 37.1482 8.27584 22.7135 22.7135C8.27532 37.1481 0.11633 56.6978 0 77.1129V187.274H947.387V77.1129Z" fill="white"/>
</svg>
