<svg width="668" height="634" viewBox="0 0 668 634" fill="none" xmlns="http://www.w3.org/2000/svg">
<path d="M34 600.667H265.443M265.443 600.667H269.223M265.443 600.667C266.073 600.673 266.703 600.673 267.333 600.673C267.963 600.673 268.593 600.673 269.223 600.667M265.443 600.667C137.447 599.65 34 495.56 34 367.327V231.428C34 214.435 47.7683 200.667 64.7617 200.667H469.89C486.883 200.667 500.667 214.435 500.667 231.428V234M269.223 600.667H500.667M269.223 600.667C397.22 599.65 500.667 495.56 500.667 367.327M500.667 234H550.667C596.69 234 634 271.31 634 317.333C634 363.357 596.69 400.667 550.667 400.667H500.667V367.327M500.667 234V367.327M400.667 34L367.333 100.667M300.667 34L267.333 100.667M200.667 34L167.333 100.667" stroke="white" stroke-width="66.6667" stroke-linecap="round" stroke-linejoin="round"/>
</svg>
