<svg width="700" height="700" viewBox="0 0 700 700" fill="none" xmlns="http://www.w3.org/2000/svg">
<path fill-rule="evenodd" clip-rule="evenodd" d="M418.356 83.1776C443.886 89.7652 468.591 100.472 490.823 113.648L555.883 60.9421L639.883 144.942L586.352 210.002C600.352 232.236 610.235 256.119 616.822 282.469L700 290.704V409.296L616.822 418.356C610.235 443.886 600.352 468.591 586.352 490.823L639.883 555.883L555.883 639.883L490.823 586.352C468.588 600.352 443.883 610.235 418.356 616.822L409.296 700H290.704L282.469 616.822C256.116 610.235 232.234 600.352 210.002 586.352L144.942 639.883L60.9421 555.883L113.648 490.823C100.47 468.588 89.7652 443.883 83.1776 418.356L0 409.296V290.704L83.1776 282.469C89.7652 256.116 100.472 232.234 113.648 210.002L60.9421 144.942L144.942 60.9421L210.002 113.648C232.236 100.47 256.119 89.7652 282.469 83.1776L290.704 0H409.296L418.356 83.1776ZM350.001 250.355C405.178 250.355 450.468 294.825 450.468 350.001C450.468 405.176 405.173 450.468 350.001 450.468C294.823 450.468 250.355 405.173 250.355 350.001C250.355 294.823 294.825 250.355 350.001 250.355ZM350.001 175.414C447.178 175.414 525.415 253.651 525.415 350.001C525.415 447.178 447.178 525.415 350.001 525.415C253.645 525.415 175.414 447.178 175.414 350.001C175.414 253.645 253.651 175.414 350.001 175.414Z" fill="white"/>
</svg>
