<svg width="667" height="534" viewBox="0 0 667 534" fill="none" xmlns="http://www.w3.org/2000/svg">
<path d="M666.667 33.3333V166.667L333.333 300L0 166.667V33.3333C0 24.4928 3.51189 16.0143 9.76311 9.76311C16.0143 3.5119 24.4928 0 33.3333 0H633.333C642.174 0 650.652 3.5119 656.904 9.76311C663.155 16.0143 666.667 24.4928 666.667 33.3333ZM0 238.467V500C0 508.841 3.51189 517.319 9.76311 523.57C16.0143 529.821 24.4928 533.333 33.3333 533.333H633.333C642.174 533.333 650.652 529.821 656.904 523.57C663.155 517.319 666.667 508.841 666.667 500V238.467L333.333 371.8L0 238.467Z" fill="white"/>
</svg>
