<svg width="360" height="306" viewBox="0 0 360 306" fill="none" xmlns="http://www.w3.org/2000/svg">
<path d="M266.414 32.7931C247.219 32.7931 229.149 41.7427 217.899 56.8413L193.711 89.361C190.546 93.5968 185.485 96.1245 180.07 96.1245C174.656 96.1245 169.594 93.5968 166.43 89.361L142.242 56.8413C130.992 41.7427 112.922 32.7931 93.7265 32.7931C60.6796 32.7931 33.8906 58.8226 33.8906 90.9324C33.8906 125.023 56.3906 158.158 81.7735 188.15C110.672 222.309 146.039 252.369 170.297 270.338C172.547 271.976 175.852 273.208 180.14 273.208C184.43 273.208 187.735 271.976 189.985 270.338C214.241 252.369 249.61 222.241 278.509 188.15C303.961 158.158 326.39 125.023 326.39 90.9324C326.39 58.8226 299.601 32.7931 266.555 32.7931H266.414ZM190.546 37.6438C208.125 14.0054 236.39 0 266.414 0C318.094 0 360 40.718 360 90.9324C360 137.799 329.836 178.995 304.384 208.987C273.375 245.606 235.969 277.375 210.305 296.366C201.656 302.789 190.969 306 180 306C169.031 306 158.344 302.789 149.695 296.366C124.031 277.375 86.625 245.606 55.6171 209.056C30.164 179.064 0 137.799 0 90.9324C0 40.718 41.9063 0 93.586 0C123.609 0 151.875 14.0054 169.453 37.6438L180 51.7856L190.546 37.6438Z" fill="white"/>
</svg>
