<svg width="1031" height="1031" viewBox="0 0 1031 1031" fill="none" xmlns="http://www.w3.org/2000/svg">
<path d="M736.118 514.958C736.118 637.102 637.102 736.118 514.958 736.118C392.814 736.118 293.798 637.102 293.798 514.958C293.798 392.814 392.814 293.798 514.958 293.798C637.102 293.798 736.118 392.814 736.118 514.958Z" fill="white"/>
<path d="M514.958 216.825C544.227 216.825 568.081 192.977 568.081 163.703V53.1227C568.081 23.8533 544.232 0 514.958 0C485.689 0 461.835 23.8488 461.835 53.1227V164.787C461.835 192.973 485.688 216.823 514.958 216.823V216.825Z" fill="white"/>
<path d="M229.835 303.555C239.593 313.313 253.684 318.734 266.696 318.734C279.703 318.734 293.799 313.313 303.557 303.555C324.156 282.956 324.156 249.349 303.557 228.75L224.414 149.608C203.815 129.008 170.208 129.008 149.609 149.608C129.01 170.207 129.01 203.813 149.609 224.413L229.835 303.555Z" fill="white"/>
<path d="M216.825 514.958C216.825 485.688 192.977 461.835 163.703 461.835H53.1227C23.8533 461.835 0 485.684 0 514.958C0 544.227 23.8488 568.08 53.1227 568.08H164.787C192.973 568.08 216.823 544.228 216.823 514.958H216.825Z" fill="white"/>
<path d="M229.835 726.36L150.692 805.503C130.093 826.102 130.093 859.709 150.692 880.308C160.45 890.066 174.541 895.487 187.553 895.487C200.561 895.487 214.656 890.066 224.414 880.308L303.557 801.166C324.156 780.566 324.156 746.96 303.557 726.36C284.041 705.761 250.434 705.761 229.835 726.36Z" fill="white"/>
<path d="M514.958 813.091C485.689 813.091 461.835 836.94 461.835 866.214V977.878C461.835 1007.15 485.684 1031 514.958 1031C544.227 1031 568.081 1007.15 568.081 977.878V866.214C568.081 836.941 544.228 813.091 514.958 813.091Z" fill="white"/>
<path d="M800.081 726.36C779.482 705.761 745.875 705.761 725.276 726.36C704.677 746.96 704.677 780.566 725.276 801.166L804.418 880.308C814.176 890.066 828.267 895.487 841.279 895.487C854.287 895.487 868.382 890.066 878.14 880.308C898.739 859.709 898.739 826.102 878.14 805.503L800.081 726.36Z" fill="white"/>
<path d="M976.792 461.836H866.212C836.943 461.836 813.09 485.685 813.09 514.959C813.09 544.228 836.938 568.081 866.212 568.081H977.876C1007.15 568.081 1031 544.232 1031 514.959C1031 485.689 1006.06 461.836 976.79 461.836H976.792Z" fill="white"/>
<path d="M763.221 319.817C776.228 319.817 790.324 314.396 800.082 304.638L879.224 225.496C899.823 204.896 899.823 171.29 879.224 150.691C858.625 130.091 825.018 130.091 804.419 150.691L725.277 229.833C704.678 250.432 704.678 284.039 725.277 304.638C736.118 314.396 749.126 319.817 763.221 319.817Z" fill="white"/>
</svg>
