<svg width="1432" height="1240" viewBox="0 0 1432 1240" fill="none" xmlns="http://www.w3.org/2000/svg">
<path d="M1431.69 906.623C1396.07 834.592 1333.56 782.816 1259.56 760.623L1134.27 317.516C1137.63 317.725 1140.96 318.027 1144.35 318.027H1198.71L1238.71 278.027L1238.71 40L1198.71 0H1144.41C1092.36 0 1046.22 25.2507 1017.2 64H889.358C849.661 64 817.358 96.3027 817.358 136V200C817.358 239.713 849.645 272 889.358 272H895.853V639.88L895.806 639.995C895.79 737.021 816.817 815.981 719.793 815.995H681.907C705.506 694.62 705.506 692.349 705.506 687.948C705.506 640.219 687.861 596.636 658.913 563.005H665.553C722.897 563.005 769.553 516.349 769.553 459.005V441.021C769.553 383.677 722.897 337.021 665.553 337.021H393.553C336.209 337.021 289.553 383.677 289.553 441.021V459.005C289.553 477.437 294.418 494.719 302.866 509.74C129.466 556.057 1.35913 714.433 1.35913 902.207V1031.98L41.3591 1071.98H109.536C131.682 1168.18 217.583 1239.98 320.51 1239.98C423.422 1239.98 509.31 1168.16 531.456 1071.98L973.577 1072.13C995.785 1168.24 1081.64 1240 1184.52 1240C1304.27 1240 1401.38 1142.88 1401.38 1023.14C1401.38 1003.81 1398.51 985.204 1393.69 967.412L1408.89 962.162L1431.69 906.623ZM1334.91 903.04L1076.48 992.128H977.793C996.433 898.961 1078.87 828.528 1177.46 828.528C1239.68 828.538 1296.8 856.252 1334.91 903.038L1334.91 903.04ZM1144.43 79.9996H1158.73V238.026H1144.38C1100.81 238.026 1065.37 202.589 1065.37 159.016C1065.39 115.453 1100.84 79.9943 1144.43 79.9943V79.9996ZM897.361 144H986.148C985.685 148.958 985.382 153.953 985.382 159.041C985.382 170.353 986.617 181.358 988.872 192H897.367L897.361 144ZM369.535 441.026C369.535 428.016 380.524 417.026 393.535 417.026H665.535C678.545 417.026 689.535 428.016 689.535 441.026V459.01C689.535 472.021 678.545 483.01 665.535 483.01H393.535C380.524 483.01 369.535 472.021 369.535 459.01V441.026ZM81.3613 902.213C81.3613 722.346 227.695 575.986 406.548 575.973H444.917C454.339 577.03 517.959 584.692 554.292 604.853C602.532 631.618 619.62 667.014 625.428 684.722C625.428 684.852 625.459 684.962 625.459 685.092C622.433 702.436 605.011 792.389 594.099 848.332L633.365 895.993L719.813 895.978C860.919 895.978 975.746 781.175 975.813 640.071L975.844 318.498C984.917 320.019 994.787 321.763 1005.78 323.841C1023.64 327.201 1041.93 333.425 1057.44 339.648L1173.2 748.755C1066.8 750.338 974.443 810.676 927.269 898.821L927.222 898.775C927.222 898.775 927.014 899.301 926.712 899.988C925.863 901.603 925.144 903.301 924.326 904.931C918.967 915.457 905.54 938.082 879.608 960.42C854.28 982.243 835.686 989.618 824.52 992.004L81.3731 992.009L81.3613 902.213ZM320.508 1160C262.268 1160 212.587 1123.37 192.893 1072H448.107C428.429 1123.37 378.747 1160 320.508 1160ZM1184.51 1160C1128.67 1160 1080.75 1126.3 1059.53 1078.25C1067.6 1076.25 1078.21 1073.73 1091.37 1070.76L1096.22 1069.95L1098.54 1069.14C1124.19 1063.45 1158.79 1056.23 1203.91 1047.72C1244.94 1039.98 1289.77 1037.08 1320.7 1035.99C1314.19 1105.46 1255.63 1160 1184.51 1160L1184.51 1160Z" fill="white"/>
<path d="M0 177.369H369.987V257.369H0V177.369Z" fill="white"/>
<path d="M87.636 305.369H250.343V385.369H87.636V305.369Z" fill="white"/>
</svg>
