<svg width="384" height="389" viewBox="0 0 384 389" fill="none" xmlns="http://www.w3.org/2000/svg">
<path d="M145.8 194.4L115.805 224.395C106.236 220.675 95.909 218.7 85.05 218.7C38.0448 218.7 0 256.745 0 303.75C0 350.755 38.0448 388.8 85.05 388.8C132.055 388.8 170.1 350.755 170.1 303.75C170.1 292.891 168.05 282.564 164.405 272.995L379.08 58.32C384.471 52.9284 384.471 44.2715 379.08 38.88C357.59 17.3896 322.81 17.3896 301.32 38.88L194.4 145.8L164.405 115.805C168.125 106.237 170.1 95.909 170.1 85.05C170.1 38.0446 132.055 0 85.05 0C38.0448 0 0 38.0446 0 85.05C0 132.055 38.0448 170.1 85.05 170.1C95.909 170.1 106.236 168.05 115.805 164.405L145.8 194.4ZM220.143 268.744L301.32 349.92C322.81 371.41 357.59 371.41 379.08 349.92C384.471 344.529 384.471 335.871 379.08 330.48L268.743 220.144L220.143 268.744ZM48.6 85.05C48.6 64.9265 64.9265 48.6 85.05 48.6C105.173 48.6 121.5 64.9265 121.5 85.05C121.5 105.173 105.173 121.5 85.05 121.5C64.9265 121.5 48.6 105.173 48.6 85.05ZM85.05 267.3C105.173 267.3 121.5 283.626 121.5 303.75C121.5 323.874 105.173 340.2 85.05 340.2C64.9265 340.2 48.6 323.874 48.6 303.75C48.6 283.626 64.9265 267.3 85.05 267.3Z" fill="white"/>
</svg>
