<svg width="25" height="25" viewBox="0 0 25 25" fill="none" xmlns="http://www.w3.org/2000/svg">
<path d="M23.7115 0.635335C22.9025 0.0268712 21.8513 -0.157733 20.8836 0.138778L12.9162 2.52831C12.7835 2.56855 12.6455 2.5889 12.5069 2.58881H12.4929C12.3543 2.5889 12.2163 2.56855 12.0837 2.52831L4.11625 0.138778C3.14805 -0.152105 2.09935 0.0321292 1.28835 0.635591C0.477355 1.23905 -0.000434955 2.19063 3.01603e-05 3.20163V18.1132C-0.00296774 18.8016 0.217599 19.4724 0.628657 20.0247C1.03963 20.5771 1.61875 20.981 2.27909 21.176L11.5814 23.9667C11.7619 24.0193 11.9468 24.0555 12.1337 24.0748C12.2495 24.1244 12.374 24.1505 12.5 24.1515C12.6129 24.1506 12.7243 24.1256 12.8268 24.0783C13.0273 24.0581 13.2254 24.0191 13.4186 23.962L22.7209 21.1714C23.3813 20.9764 23.9604 20.5724 24.3713 20.0201C24.7824 19.4678 25.003 18.797 25 18.1085V3.20156C25.0044 2.18965 24.5259 1.23626 23.7116 0.635284L23.7115 0.635335ZM2.78132 19.5051C2.48036 19.4167 2.21627 19.2327 2.02913 18.981C1.84209 18.7293 1.74197 18.4234 1.74406 18.1097V3.20161C1.74433 2.81617 1.89759 2.44652 2.17001 2.17382C2.44255 1.9011 2.81199 1.74759 3.19755 1.74703C3.34017 1.7473 3.48197 1.76847 3.61852 1.8098L11.5813 4.19933C11.5964 4.19933 11.6127 4.19933 11.6278 4.20978V22.1597L2.78132 19.5051ZM23.2557 18.1097C23.2578 18.4234 23.1577 18.7293 22.9706 18.981C22.7835 19.2327 22.5194 19.4167 22.2184 19.5051L13.3719 22.1597V4.20974C13.387 4.20974 13.4034 4.20975 13.4185 4.1993L21.3859 1.80977C21.8263 1.67759 22.3034 1.7618 22.6719 2.03688C23.0405 2.31185 23.257 2.74527 23.2556 3.20511L23.2557 18.1097Z" fill="white"/>
<path d="M20.4278 5.04347L15.7766 6.20626C15.588 6.25359 15.4206 6.3626 15.301 6.51594C15.1813 6.66928 15.1163 6.85824 15.1162 7.05273V10.5411C15.1165 10.8096 15.2403 11.063 15.4519 11.2283C15.6635 11.3936 15.9393 11.4523 16.2 11.3876L20.8511 10.2248C21.0397 10.1775 21.2072 10.0684 21.3268 9.91511C21.4464 9.76176 21.5115 9.57281 21.5116 9.37832V5.88995C21.5117 5.62133 21.388 5.36761 21.1763 5.20219C20.9646 5.03685 20.6884 4.97825 20.4278 5.04347ZM19.7674 8.69812L16.8604 9.42486V7.733L19.7674 7.00626V8.69812Z" fill="white"/>
<path d="M20.4278 12.0202L15.7767 13.183C15.4984 13.2518 15.2718 13.4532 15.1705 13.7214C15.0692 13.9896 15.1063 14.2905 15.2696 14.5262C15.4329 14.7618 15.7016 14.9022 15.9883 14.9015C16.06 14.9016 16.1315 14.8931 16.2011 14.8759L20.8522 13.7131C21.1547 13.6375 21.3938 13.4064 21.4796 13.1067C21.5653 12.8069 21.4846 12.4842 21.2679 12.2601C21.0513 12.036 20.7314 11.9445 20.429 12.0202L20.4278 12.0202Z" fill="white"/>
<path d="M20.4278 15.5086L15.7767 16.6713C15.4984 16.7402 15.2718 16.9416 15.1705 17.2098C15.0692 17.478 15.1063 17.7789 15.2696 18.0145C15.4329 18.2502 15.7016 18.3905 15.9883 18.3899C16.06 18.39 16.1315 18.3814 16.2011 18.3643L20.8522 17.2015C21.1547 17.1259 21.3938 16.8947 21.4796 16.595C21.5653 16.2952 21.4846 15.9726 21.2679 15.7485C21.0513 15.5244 20.7314 15.4329 20.429 15.5086L20.4278 15.5086Z" fill="white"/>
<path d="M9.22322 13.183L4.57206 12.0202C4.26955 11.9445 3.94979 12.036 3.73314 12.2601C3.51639 12.4842 3.43572 12.8069 3.52147 13.1067C3.60723 13.4063 3.84633 13.6375 4.14875 13.7131L8.7999 14.8759C8.86921 14.893 8.94025 14.9015 9.01156 14.9015C9.29817 14.9018 9.56652 14.7613 9.72959 14.5255C9.89265 14.2899 9.92944 13.9891 9.82806 13.721C9.72677 13.453 9.5002 13.2518 9.22204 13.1829L9.22322 13.183Z" fill="white"/>
<path d="M9.22322 16.6713L4.57206 15.5086C4.26955 15.4329 3.94979 15.5244 3.73314 15.7485C3.51639 15.9726 3.43572 16.2953 3.52147 16.595C3.60723 16.8947 3.84633 17.1259 4.14875 17.2015L8.7999 18.3643C8.86921 18.3814 8.94025 18.3899 9.01156 18.3899C9.29817 18.3902 9.56652 18.2496 9.72959 18.0139C9.89265 17.7782 9.92944 17.4775 9.82806 17.2094C9.72677 16.9414 9.5002 16.7402 9.22204 16.6713L9.22322 16.6713Z" fill="white"/>
<path d="M9.22322 6.20626L4.57206 5.04347C4.26955 4.9678 3.94979 5.05928 3.73314 5.28338C3.51639 5.50749 3.43572 5.83017 3.52147 6.12994C3.60723 6.42963 3.84633 6.66082 4.14875 6.7364L8.7999 7.89919C8.86921 7.91627 8.94025 7.92481 9.01156 7.92481C9.29817 7.92508 9.56652 7.78455 9.72959 7.54881C9.89265 7.31316 9.92944 7.01239 9.82806 6.7443C9.72677 6.47632 9.5002 6.27509 9.22204 6.20623L9.22322 6.20626Z" fill="white"/>
<path d="M9.22322 9.6946L4.57206 8.53182C4.26955 8.45614 3.94979 8.54762 3.73314 8.77172C3.51639 8.99583 3.43572 9.31851 3.52147 9.61828C3.60723 9.91797 3.84633 10.1492 4.14875 10.2247L8.7999 11.3875C8.86921 11.4046 8.94025 11.4131 9.01156 11.4131C9.29817 11.4134 9.56652 11.2729 9.72959 11.0371C9.89265 10.8015 9.92944 10.5007 9.82806 10.2326C9.72677 9.96466 9.5002 9.76343 9.22204 9.69457L9.22322 9.6946Z" fill="white"/>
</svg>
