<svg width="25" height="26" viewBox="0 0 25 26" fill="none" xmlns="http://www.w3.org/2000/svg">
<g clip-path="url(#clip0_39_9)">
<path d="M23.7115 1.13533C22.9025 0.526871 21.8513 0.342267 20.8836 0.638778L12.9162 3.02831C12.7835 3.06855 12.6455 3.0889 12.5069 3.08881H12.4929C12.3543 3.0889 12.2163 3.06855 12.0837 3.02831L4.11625 0.638778C3.14805 0.347895 2.09935 0.532129 1.28835 1.13559C0.477355 1.73905 -0.000434955 2.69063 3.01603e-05 3.70163V18.6132C-0.00296774 19.3016 0.217599 19.9724 0.628657 20.5247C1.03963 21.0771 1.61875 21.481 2.27909 21.676L11.5814 24.4667C11.7619 24.5193 11.9468 24.5555 12.1337 24.5748C12.2495 24.6244 12.374 24.6505 12.5 24.6515C12.6129 24.6506 12.7243 24.6256 12.8268 24.5783C13.0273 24.5581 13.2254 24.5191 13.4186 24.462L22.7209 21.6714C23.3813 21.4764 23.9604 21.0724 24.3713 20.5201C24.7824 19.9678 25.003 19.297 25 18.6085V3.70156C25.0044 2.68965 24.5258 1.73631 23.7115 1.13533ZM2.78132 20.0051C2.48036 19.9167 2.21627 19.7327 2.02913 19.481C1.84209 19.2293 1.74197 18.9234 1.74406 18.6097V3.70161C1.74433 3.31617 1.89759 2.94652 2.17001 2.67382C2.44255 2.4011 2.81199 2.24759 3.19755 2.24703C3.34017 2.2473 3.48197 2.26847 3.61852 2.3098L11.5813 4.69933C11.5964 4.69933 11.6127 4.69933 11.6278 4.70978V22.6597L2.78132 20.0051ZM23.2557 18.6097C23.2578 18.9234 23.1577 19.2293 22.9706 19.481C22.7835 19.7327 22.5194 19.9167 22.2184 20.0051L13.3719 22.6597V4.70974C13.387 4.70974 13.4034 4.70975 13.4185 4.6993L21.3859 2.30977C21.8263 2.17759 22.3034 2.2618 22.6719 2.53688C23.0405 2.81185 23.257 3.24527 23.2556 3.70511L23.2557 18.6097Z" fill="#272531"/>
<path d="M20.4278 5.54342L15.7766 6.70621C15.588 6.75354 15.4206 6.86255 15.301 7.01589C15.1813 7.16923 15.1163 7.35819 15.1162 7.55268V11.041C15.1165 11.3095 15.2403 11.563 15.4519 11.7283C15.6635 11.8936 15.9393 11.9522 16.2 11.8875L20.8511 10.7248C21.0397 10.6775 21.2072 10.5683 21.3268 10.4151C21.4464 10.2617 21.5115 10.0728 21.5116 9.87827V6.3899C21.5117 6.12128 21.388 5.86756 21.1763 5.70214C20.9646 5.5368 20.6884 5.4782 20.4278 5.54342ZM19.7674 9.19807L16.8604 9.92481V8.23295L19.7674 7.50621V9.19807Z" fill="#272531"/>
<path d="M20.4278 12.5201L15.7767 13.6829C15.4984 13.7517 15.2718 13.9531 15.1705 14.2213C15.0692 14.4895 15.1063 14.7904 15.2696 15.0261C15.4329 15.2617 15.7016 15.4021 15.9883 15.4014C16.06 15.4015 16.1315 15.393 16.2011 15.3758L20.8522 14.213C21.1547 14.1374 21.3938 13.9063 21.4796 13.6066C21.5653 13.3068 21.4846 12.9841 21.2679 12.76C21.0513 12.5359 20.7314 12.4444 20.429 12.5201H20.4278Z" fill="#272531"/>
<path d="M20.4278 16.0085L15.7767 17.1712C15.4984 17.2401 15.2718 17.4415 15.1705 17.7097C15.0692 17.9779 15.1063 18.2788 15.2696 18.5144C15.4329 18.7501 15.7016 18.8904 15.9883 18.8898C16.06 18.8899 16.1315 18.8813 16.2011 18.8642L20.8522 17.7014C21.1547 17.6258 21.3938 17.3946 21.4796 17.0949C21.5653 16.7951 21.4846 16.4725 21.2679 16.2484C21.0513 16.0243 20.7314 15.9328 20.429 16.0085H20.4278Z" fill="#272531"/>
<path d="M9.22322 13.6829L4.57206 12.5201C4.26955 12.4444 3.94979 12.5359 3.73314 12.76C3.51639 12.9841 3.43572 13.3068 3.52147 13.6066C3.60723 13.9062 3.84633 14.1374 4.14875 14.213L8.7999 15.3758C8.86921 15.3929 8.94025 15.4014 9.01156 15.4014C9.29817 15.4017 9.56652 15.2612 9.72959 15.0254C9.89265 14.7898 9.92944 14.489 9.82806 14.2209C9.72677 13.9529 9.5002 13.7517 9.22204 13.6828L9.22322 13.6829Z" fill="#272531"/>
<path d="M9.22322 17.1712L4.57206 16.0085C4.26955 15.9328 3.94979 16.0243 3.73314 16.2484C3.51639 16.4725 3.43572 16.7952 3.52147 17.0949C3.60723 17.3946 3.84633 17.6258 4.14875 17.7014L8.7999 18.8642C8.86921 18.8813 8.94025 18.8898 9.01156 18.8898C9.29817 18.8901 9.56652 18.7495 9.72959 18.5138C9.89265 18.2781 9.92944 17.9774 9.82806 17.7093C9.72677 17.4413 9.5002 17.2401 9.22204 17.1712H9.22322Z" fill="#272531"/>
<path d="M9.22322 6.70623L4.57206 5.54344C4.26955 5.46777 3.94979 5.55925 3.73314 5.78335C3.51639 6.00746 3.43572 6.33014 3.52147 6.62991C3.60723 6.9296 3.84633 7.16079 4.14875 7.23637L8.7999 8.39916C8.86921 8.41624 8.94025 8.42478 9.01156 8.42478C9.29817 8.42505 9.56652 8.28452 9.72959 8.04878C9.89265 7.81313 9.92944 7.51236 9.82806 7.24427C9.72677 6.97629 9.5002 6.77506 9.22204 6.7062L9.22322 6.70623Z" fill="#272531"/>
<path d="M9.22322 10.1946L4.57206 9.03185C4.26955 8.95617 3.94979 9.04765 3.73314 9.27175C3.51639 9.49586 3.43572 9.81854 3.52147 10.1183C3.60723 10.418 3.84633 10.6492 4.14875 10.7247L8.7999 11.8875C8.86921 11.9046 8.94025 11.9131 9.01156 11.9131C9.29817 11.9134 9.56652 11.7729 9.72959 11.5371C9.89265 11.3015 9.92944 11.0007 9.82806 10.7326C9.72677 10.4647 9.5002 10.2635 9.22204 10.1946L9.22322 10.1946Z" fill="#272531"/>
</g>
<defs>
<clipPath id="clip0_39_9">
<rect width="25" height="25" fill="white" transform="translate(0 0.5)"/>
</clipPath>
</defs>
</svg>
