<svg width="42" height="47" viewBox="0 0 42 47" fill="none" xmlns="http://www.w3.org/2000/svg">
<path d="M34.5484 18.8H33.871V12.7571C33.871 9.37373 32.515 6.12891 30.1013 3.73647C27.6875 1.34407 24.4137 0 21 0C17.5863 0 14.3126 1.34407 11.8988 3.73647C9.48509 6.12891 8.12903 9.37373 8.12903 12.7571V18.8H7.45161C5.47531 18.8 3.57997 19.5781 2.18254 20.9633C0.785075 22.3484 0 24.227 0 26.1857V39.6143C0 41.573 0.785075 43.4516 2.18254 44.8367C3.57997 46.2219 5.47531 47 7.45161 47H34.5484C36.5246 47 38.42 46.2219 39.8174 44.8367C41.215 43.4516 42 41.573 42 39.6143V26.1857C42 24.227 41.215 22.3484 39.8174 20.9633C38.42 19.5781 36.5246 18.8 34.5484 18.8ZM12.1935 12.7571C12.1935 10.4422 13.1214 8.22205 14.7729 6.5851C16.4244 4.94819 18.6643 4.02857 21 4.02857C23.3357 4.02857 25.5756 4.94819 27.2271 6.5851C28.8787 8.22205 29.8065 10.4422 29.8065 12.7571V18.8H12.1935V12.7571ZM37.9355 39.6143C37.9355 40.5046 37.5786 41.3587 36.9435 41.9882C36.3083 42.6177 35.4466 42.9714 34.5484 42.9714H7.45161C6.5533 42.9714 5.69179 42.6177 5.05658 41.9882C4.42138 41.3587 4.06452 40.5046 4.06452 39.6143V26.1857C4.06452 25.2954 4.42138 24.4413 5.05658 23.8118C5.69179 23.1823 6.5533 22.8286 7.45161 22.8286H34.5484C35.4466 22.8286 36.3083 23.1823 36.9435 23.8118C37.5786 24.4413 37.9355 25.2954 37.9355 26.1857V39.6143Z" fill="#B33DBC"/>
</svg>
