<svg width="71" height="71" viewBox="0 0 71 71" fill="none" xmlns="http://www.w3.org/2000/svg">
<path d="M68.5232 66.0465H67.6976V18.9884C67.6958 17.4562 67.0864 15.9874 66.0031 14.9038C64.9196 13.8205 63.4507 13.2111 61.9185 13.2093H48.7093C48.4324 13.2168 48.1564 13.2444 47.8837 13.2919V5.77907C47.8819 4.24686 47.2725 2.77805 46.1892 1.69449C45.1056 0.611194 43.6368 0.00178326 42.1046 0H28.8954C27.3632 0.00180598 25.8944 0.611188 24.8108 1.69449C23.7275 2.77805 23.1181 4.24686 23.1163 5.77907V26.5012C22.8436 26.4537 22.5676 26.4261 22.2907 26.4186H9.08146C7.54926 26.4204 6.08045 27.0298 4.99689 28.1131C3.9136 29.1967 3.30419 30.6655 3.30241 32.1977V66.0465H2.47683C1.59194 66.0465 0.774354 66.5186 0.331843 67.2849C-0.110614 68.0512 -0.110614 68.9954 0.331843 69.7616C0.774301 70.5279 1.59188 71 2.47683 71H68.5232C69.4081 71 70.2256 70.5279 70.6682 69.7616C71.1106 68.9954 71.1106 68.0512 70.6682 67.2849C70.2257 66.5186 69.4081 66.0465 68.5232 66.0465ZM8.25588 32.1977C8.25588 31.7418 8.62559 31.3721 9.08146 31.3721H22.2907C22.5098 31.3721 22.7198 31.459 22.8746 31.6138C23.0294 31.7686 23.1163 31.9786 23.1163 32.1977V66.0465H8.25588V32.1977ZM28.0698 32.1977V5.77907C28.0698 5.3232 28.4395 4.95349 28.8954 4.95349H42.1046C42.3237 4.95349 42.5337 5.04043 42.6885 5.19523C42.8433 5.35003 42.9302 5.56003 42.9302 5.77907V66.0465H28.0698V32.1977ZM47.8837 66.0465V18.9884C47.8837 18.5325 48.2534 18.1628 48.7093 18.1628H61.9185C62.1376 18.1628 62.3476 18.2497 62.5024 18.4045C62.6572 18.5593 62.7441 18.7693 62.7441 18.9884V66.0465H47.8837Z" fill="url(#paint0_linear_25_2)"/>
<defs>
<linearGradient id="paint0_linear_25_2" x1="35.5" y1="0" x2="35.5" y2="71" gradientUnits="userSpaceOnUse">
<stop stop-color="#CD39D5"/>
<stop offset="1" stop-color="#A33BA3"/>
</linearGradient>
</defs>
</svg>
