<svg width="15" height="13" viewBox="0 0 15 13" fill="none" xmlns="http://www.w3.org/2000/svg">
<g clip-path="url(#clip0_39_34)">
<path d="M12.1118 9.99787C11.8822 8.95052 10.9496 8.1665 9.83328 8.1665C8.54456 8.1665 7.5 9.21107 7.5 10.4998C7.5 10.8219 7.76115 11.0831 8.08331 11.0831C8.40547 11.0831 8.66662 10.8219 8.66662 10.4998C8.66662 9.85539 9.18885 9.33313 9.83328 9.33313C10.3185 9.33313 10.7343 9.62928 10.9102 10.0507C10.2778 10.3143 9.83328 10.9382 9.83328 11.6664C9.83328 11.9886 10.0944 12.2497 10.4166 12.2497C10.7387 12.2497 10.9999 11.9886 10.9999 11.6664C10.9999 11.344 11.2608 11.0831 11.5832 11.0831C11.9056 11.0831 12.1665 11.344 12.1665 11.6664C12.1665 11.9886 12.4277 12.2497 12.7498 12.2497C13.072 12.2497 13.3331 11.9886 13.3331 11.6664C13.3332 10.884 12.82 10.2219 12.1118 9.99787Z" fill="#272531"/>
<path d="M12.9263 4.24143C12.7441 2.74969 11.5282 1.58706 10.0414 1.58706C9.29478 1.58706 8.61653 1.88042 8.10314 2.36131C7.49297 1.68369 6.66048 1.25396 5.74998 1.17904V0.583313C5.74998 0.261155 5.48882 0 5.16667 0C4.84451 0 4.58335 0.261155 4.58335 0.583313V1.27942C4.15171 1.3918 3.75108 1.58489 3.39641 1.84236L2.59698 1.27444C2.33435 1.08785 1.97019 1.14951 1.7836 1.41214C1.59701 1.67477 1.65867 2.03893 1.9213 2.22552L2.56233 2.68092C2.26585 3.09181 2.04708 3.56736 1.92824 4.08327H1.08339C0.761236 4.08327 0.50008 4.34443 0.50008 4.66659C0.50008 4.98874 0.761236 5.2499 1.08339 5.2499H1.83574C1.8822 5.94502 2.10789 6.60084 2.47817 7.15684C1.84296 7.38158 1.28207 7.83454 0.916108 8.47235C0.0957288 9.89939 0.524307 11.7572 1.88581 12.633C2.15675 12.8073 2.51768 12.729 2.69197 12.458C2.86625 12.1871 2.78791 11.8261 2.51697 11.6518C1.6836 11.1158 1.414 9.94711 1.92778 9.0534C2.29987 8.40492 2.98555 8.07839 3.65511 8.1815C3.78263 8.50071 3.98325 8.79363 4.25529 9.03062C4.49821 9.24223 4.86666 9.21685 5.07829 8.97394C5.2899 8.73102 5.26453 8.36257 5.02161 8.15093C4.86255 8.01236 4.75419 7.83041 4.69918 7.63308C4.69497 7.5951 4.68707 7.5578 4.67566 7.52171C4.63191 7.27007 4.67156 7.01288 4.78834 6.79372L4.78963 6.79129C4.79857 6.77461 4.808 6.75815 4.81785 6.74194L4.81954 6.73909C4.84035 6.705 4.86313 6.67196 4.88782 6.64019C4.91557 6.60451 4.94535 6.5717 4.97638 6.54096C4.98051 6.53689 4.9844 6.53243 4.98858 6.52844C4.99711 6.52026 5.00608 6.51288 5.01483 6.50509C5.02456 6.49645 5.03408 6.48745 5.04406 6.47925C5.05054 6.47392 5.05732 6.46921 5.06391 6.46407C5.07654 6.45423 5.08909 6.44425 5.10208 6.43514C5.10782 6.43113 5.11378 6.42763 5.11958 6.42372C5.13372 6.41423 5.14785 6.40474 5.16237 6.3961C5.16806 6.39271 5.17391 6.38984 5.17965 6.38661C5.19456 6.37816 5.20946 6.36974 5.22469 6.36219C5.2307 6.35921 5.23691 6.35672 5.24295 6.35388C5.2581 6.34677 5.27328 6.33966 5.2887 6.33343C5.29534 6.33075 5.30212 6.32859 5.3088 6.32607C5.32383 6.32038 5.3389 6.3147 5.35416 6.30983C5.36162 6.30745 5.36922 6.30565 5.37674 6.30346C5.38568 6.30086 5.39465 6.29843 5.40368 6.2961C5.3981 6.48436 5.41516 6.67617 5.45773 6.86782C5.52762 7.18233 5.83923 7.38059 6.1537 7.31073C6.46818 7.24087 6.66647 6.92924 6.59661 6.61476C6.55012 6.40556 6.56423 6.19759 6.62543 6.01097L6.64186 5.96722C6.73945 5.70721 6.92349 5.50381 7.15362 5.39547L7.15684 5.39397C7.17371 5.3861 7.19083 5.37874 7.20817 5.3719L7.2097 5.3713C7.24606 5.35706 7.28344 5.34511 7.32169 5.33562C7.42787 5.30907 7.53664 5.30338 7.64648 5.3176L7.70414 5.32506C8.06808 5.39577 8.381 5.69258 8.4753 6.1166C8.54525 6.43107 8.85685 6.62931 9.17133 6.55939C9.4858 6.48945 9.68404 6.17785 9.61412 5.86337C9.45091 5.1294 8.95408 4.56252 8.32686 4.30065C8.3276 4.29619 8.32834 4.29174 8.32907 4.28728C8.37055 4.04885 8.45502 3.82223 8.57812 3.61696L8.62413 3.54024C8.9414 3.06299 9.46029 2.75371 10.0414 2.75371C10.8791 2.75371 11.5881 3.39584 11.7489 4.25857C10.8682 4.53528 10.233 5.38812 10.233 6.38746C10.233 6.70962 10.4942 6.97077 10.8163 6.97077C11.1385 6.97077 11.3997 6.70962 11.3997 6.38746C11.3997 5.79665 11.8402 5.33048 12.3662 5.33048C12.8928 5.33048 13.3334 5.7966 13.3334 6.38746C13.3334 6.70962 13.5945 6.97077 13.9167 6.97077C14.2388 6.97077 14.5 6.70962 14.5 6.38746C14.5001 5.36633 13.837 4.49837 12.9263 4.24143ZM7.40364 3.34749C7.2885 3.60632 7.20704 3.88465 7.16529 4.17627C7.14916 4.17925 7.13303 4.18266 7.11689 4.18606C7.10333 4.1889 7.08977 4.19193 7.07623 4.19505C7.06418 4.19784 7.05212 4.20006 7.04006 4.20306C6.97698 4.21879 6.91548 4.23771 6.85522 4.25876C6.85186 4.25994 6.84838 4.26098 6.84502 4.26218C6.81885 4.27148 6.79315 4.28151 6.76753 4.29176C6.76138 4.29423 6.75512 4.29652 6.74899 4.29904C6.72378 4.30943 6.69898 4.32048 6.67434 4.33177C6.66838 4.3345 6.66234 4.33713 6.65641 4.33992C6.63117 4.35178 6.60631 4.36422 6.5817 4.37702C6.57689 4.37954 6.57203 4.38197 6.56724 4.38451C6.54156 4.3981 6.51627 4.41227 6.49128 4.42687C6.48803 4.42878 6.48475 4.43067 6.48149 4.43258C6.45519 4.44814 6.42929 4.46425 6.40378 4.48087L6.39924 4.48385C6.15031 4.64704 5.93958 4.86004 5.77718 5.10695C5.27024 5.06908 4.76437 5.22122 4.35408 5.53799C4.34651 5.54384 4.3389 5.54966 4.33141 5.55562C4.3211 5.5638 4.3109 5.57208 4.30073 5.58048C4.29084 5.58863 4.28102 5.59691 4.27126 5.60525C4.26267 5.61258 4.25406 5.61988 4.24558 5.62737C4.23197 5.63938 4.21854 5.65165 4.2052 5.66404C4.20003 5.66882 4.19478 5.6735 4.18967 5.67834C4.17252 5.69455 4.15565 5.71115 4.13897 5.72802C4.13222 5.73486 4.1256 5.74186 4.11893 5.7488C4.10813 5.76004 4.09738 5.77133 4.08677 5.78285C4.07928 5.79097 4.07187 5.79917 4.06446 5.8074C4.05492 5.81806 4.04551 5.82886 4.03613 5.83975C4.0285 5.84861 4.02088 5.85741 4.01336 5.86643C4.00439 5.87723 3.99558 5.88825 3.98678 5.89924C3.98024 5.90739 3.97352 5.91532 3.96706 5.92358C3.78548 6.15693 3.65677 6.41734 3.57917 6.68892C3.20681 6.22034 2.99307 5.62155 2.99307 4.98177C2.99307 3.51185 4.10679 2.3335 5.46402 2.3335C6.23089 2.33347 6.93949 2.71398 7.40364 3.34749Z" fill="#272531"/>
</g>
<defs>
<clipPath id="clip0_39_34">
<rect width="14" height="13" fill="white" transform="translate(0.5)"/>
</clipPath>
</defs>
</svg>
