<svg width="14" height="13" viewBox="0 0 14 13" fill="none" xmlns="http://www.w3.org/2000/svg">
<path d="M11.6118 9.99787C11.3822 8.95052 10.4496 8.1665 9.33325 8.1665C8.04453 8.1665 6.99997 9.21107 6.99997 10.4998C6.99997 10.8219 7.26112 11.0831 7.58328 11.0831C7.90544 11.0831 8.16659 10.8219 8.16659 10.4998C8.16659 9.85539 8.68882 9.33313 9.33325 9.33313C9.81848 9.33313 10.2343 9.62928 10.4102 10.0507C9.77774 10.3143 9.33325 10.9382 9.33325 11.6664C9.33325 11.9886 9.5944 12.2497 9.91656 12.2497C10.2387 12.2497 10.4999 11.9886 10.4999 11.6664C10.4999 11.344 10.7608 11.0831 11.0832 11.0831C11.4056 11.0831 11.6665 11.344 11.6665 11.6664C11.6665 11.9886 11.9277 12.2497 12.2498 12.2497C12.572 12.2497 12.8331 11.9886 12.8331 11.6664C12.8332 10.884 12.32 10.2219 11.6118 9.99787Z" fill="#FEFEFE"/>
<path d="M12.4263 4.24143C12.2441 2.74969 11.0282 1.58706 9.54142 1.58706C8.79478 1.58706 8.11653 1.88042 7.60314 2.36131C6.99297 1.68369 6.16048 1.25396 5.24998 1.17904V0.583313C5.24998 0.261155 4.98882 0 4.66667 0C4.34451 0 4.08335 0.261155 4.08335 0.583313V1.27942C3.65171 1.3918 3.25108 1.58489 2.89641 1.84236L2.09698 1.27444C1.83435 1.08785 1.47019 1.14951 1.2836 1.41214C1.09701 1.67477 1.15867 2.03893 1.4213 2.22552L2.06233 2.68092C1.76585 3.09181 1.54708 3.56736 1.42824 4.08327H0.583393C0.261236 4.08327 8.06172e-05 4.34443 8.06172e-05 4.66659C8.06172e-05 4.98874 0.261236 5.2499 0.583393 5.2499H1.33574C1.3822 5.94502 1.60789 6.60084 1.97817 7.15684C1.34296 7.38158 0.782069 7.83454 0.416108 8.47235C-0.404271 9.89939 0.0243068 11.7572 1.38581 12.633C1.65675 12.8073 2.01768 12.729 2.19197 12.458C2.36625 12.1871 2.28791 11.8261 2.01697 11.6518C1.1836 11.1158 0.914 9.94711 1.42778 9.0534C1.79987 8.40492 2.48555 8.07839 3.15511 8.1815C3.28263 8.50071 3.48325 8.79363 3.75529 9.03062C3.99821 9.24223 4.36666 9.21685 4.57829 8.97394C4.7899 8.73102 4.76453 8.36257 4.52161 8.15093C4.36255 8.01236 4.25419 7.83041 4.19918 7.63308C4.19497 7.5951 4.18707 7.5578 4.17566 7.52171C4.13191 7.27007 4.17156 7.01288 4.28834 6.79372C4.28878 6.7929 4.28919 6.79211 4.28963 6.79129C4.29857 6.77461 4.308 6.75815 4.31785 6.74194C4.31842 6.74101 4.31897 6.74002 4.31954 6.73909C4.34035 6.705 4.36313 6.67196 4.38782 6.64019C4.41557 6.60451 4.44535 6.5717 4.47638 6.54096C4.48051 6.53689 4.4844 6.53243 4.48858 6.52844C4.49711 6.52026 4.50608 6.51288 4.51483 6.50509C4.52456 6.49645 4.53408 6.48745 4.54406 6.47925C4.55054 6.47392 4.55732 6.46921 4.56391 6.46407C4.57654 6.45423 4.58909 6.44425 4.60208 6.43514C4.60782 6.43113 4.61378 6.42763 4.61958 6.42372C4.63372 6.41423 4.64785 6.40474 4.66237 6.3961C4.66806 6.39271 4.67391 6.38984 4.67965 6.38661C4.69456 6.37816 4.70946 6.36974 4.72469 6.36219C4.7307 6.35921 4.73691 6.35672 4.74295 6.35388C4.7581 6.34677 4.77328 6.33966 4.7887 6.33343C4.79534 6.33075 4.80212 6.32859 4.8088 6.32607C4.82383 6.32038 4.8389 6.3147 4.85416 6.30983C4.86162 6.30745 4.86922 6.30565 4.87674 6.30346C4.88568 6.30086 4.89465 6.29843 4.90368 6.2961C4.8981 6.48436 4.91516 6.67617 4.95773 6.86782C5.02762 7.18233 5.33923 7.38059 5.6537 7.31073C5.96818 7.24087 6.16647 6.92924 6.09661 6.61476C6.05012 6.40556 6.06423 6.19759 6.12543 6.01097L6.14186 5.96722C6.23945 5.70721 6.42349 5.50381 6.65362 5.39547C6.65468 5.39498 6.65578 5.39449 6.65684 5.39397C6.67371 5.3861 6.69083 5.37874 6.70817 5.3719C6.70868 5.37171 6.70918 5.37149 6.7097 5.3713C6.74606 5.35706 6.78344 5.34511 6.82169 5.33562C6.92787 5.30907 7.03664 5.30338 7.14648 5.3176L7.20414 5.32506C7.56808 5.39577 7.881 5.69258 7.9753 6.1166C8.04525 6.43107 8.35685 6.62931 8.67133 6.55939C8.9858 6.48945 9.18404 6.17785 9.11412 5.86337C8.95091 5.1294 8.45408 4.56252 7.82686 4.30065C7.8276 4.29619 7.82834 4.29174 7.82907 4.28728C7.87055 4.04885 7.95502 3.82223 8.07812 3.61696L8.12413 3.54024C8.4414 3.06299 8.96029 2.75371 9.54136 2.75371C10.3791 2.75371 11.0881 3.39584 11.2489 4.25857C10.3682 4.53528 9.73304 5.38812 9.73304 6.38746C9.73304 6.70962 9.99419 6.97077 10.3163 6.97077C10.6385 6.97077 10.8997 6.70962 10.8997 6.38746C10.8997 5.79665 11.3402 5.33048 11.8662 5.33048C12.3928 5.33048 12.8334 5.7966 12.8334 6.38746C12.8334 6.70962 13.0945 6.97077 13.4167 6.97077C13.7388 6.97077 14 6.70962 14 6.38746C14.0001 5.36633 13.337 4.49837 12.4263 4.24143ZM6.90364 3.34749C6.7885 3.60632 6.70704 3.88465 6.66529 4.17627C6.64916 4.17925 6.63303 4.18266 6.61689 4.18606C6.60333 4.1889 6.58977 4.19193 6.57623 4.19505C6.56418 4.19784 6.55212 4.20006 6.54006 4.20306C6.47698 4.21879 6.41548 4.23771 6.35522 4.25876C6.35186 4.25994 6.34838 4.26098 6.34502 4.26218C6.31885 4.27148 6.29315 4.28151 6.26753 4.29176C6.26138 4.29423 6.25512 4.29652 6.24899 4.29904C6.22378 4.30943 6.19898 4.32048 6.17434 4.33177C6.16838 4.3345 6.16234 4.33713 6.15641 4.33992C6.13117 4.35178 6.10631 4.36422 6.0817 4.37702C6.07689 4.37954 6.07203 4.38197 6.06724 4.38451C6.04156 4.3981 6.01627 4.41227 5.99128 4.42687C5.98803 4.42878 5.98475 4.43067 5.98149 4.43258C5.95519 4.44814 5.92929 4.46425 5.90378 4.48087C5.90228 4.48185 5.90075 4.48284 5.89924 4.48385C5.65031 4.64704 5.43958 4.86004 5.27718 5.10695C4.77024 5.06908 4.26437 5.22122 3.85408 5.53799C3.84651 5.54384 3.8389 5.54966 3.83141 5.55562C3.8211 5.5638 3.8109 5.57208 3.80073 5.58048C3.79084 5.58863 3.78102 5.59691 3.77126 5.60525C3.76267 5.61258 3.75406 5.61988 3.74558 5.62737C3.73197 5.63938 3.71854 5.65165 3.7052 5.66404C3.70003 5.66882 3.69478 5.6735 3.68967 5.67834C3.67252 5.69455 3.65565 5.71115 3.63897 5.72802C3.63222 5.73486 3.6256 5.74186 3.61893 5.7488C3.60813 5.76004 3.59738 5.77133 3.58677 5.78285C3.57928 5.79097 3.57187 5.79917 3.56446 5.8074C3.55492 5.81806 3.54551 5.82886 3.53613 5.83975C3.5285 5.84861 3.52088 5.85741 3.51336 5.86643C3.50439 5.87723 3.49558 5.88825 3.48678 5.89924C3.48024 5.90739 3.47352 5.91532 3.46706 5.92358C3.28548 6.15693 3.15677 6.41734 3.07917 6.68892C2.70681 6.22034 2.49307 5.62155 2.49307 4.98177C2.49307 3.51185 3.60679 2.3335 4.96402 2.3335C5.73089 2.33347 6.43949 2.71398 6.90364 3.34749Z" fill="#FEFEFE"/>
</svg>
