<svg width="25" height="25" viewBox="0 0 25 25" fill="none" xmlns="http://www.w3.org/2000/svg">
<path d="M12.5029 0.5C15.0423 0.500006 17.5162 1.30561 19.5684 2.80078C21.6001 4.28122 23.1141 6.36239 23.8984 8.74902V8.76074L23.9229 8.83496C24.6923 11.2177 24.6923 13.7824 23.9229 16.165L23.8984 16.2402V16.25C23.1143 18.637 21.6004 20.7186 19.5684 22.1992C17.516 23.6944 15.0423 24.5 12.5029 24.5C9.9636 24.5 7.48967 23.6944 5.4375 22.1992C3.38542 20.704 1.86048 18.5963 1.08301 16.1797L1.07617 16.1592L1.07227 16.1504C0.309173 13.7769 0.308444 11.2239 1.07129 8.85059L1.07715 8.84082L1.08301 8.82031C1.86033 6.4037 3.38542 4.29603 5.4375 2.80078C7.48986 1.30552 9.9636 0.5 12.5029 0.5ZM8.58496 16.9482C8.91735 18.9029 9.45508 20.5588 10.0977 21.7402C10.4185 22.3301 10.7758 22.8218 11.1641 23.1719C11.5508 23.5206 12.0045 23.7598 12.5029 23.7598C13.0008 23.7598 13.454 23.5211 13.8408 23.1729C14.2291 22.8232 14.5873 22.3318 14.9082 21.7422C15.5508 20.5614 16.0885 18.9057 16.4209 16.9482L16.5205 16.3652H8.48535L8.58496 16.9482ZM2.2207 17.0684C2.86807 18.5211 3.81475 19.821 4.99902 20.8828C6.18333 21.9446 7.57895 22.7447 9.09375 23.2305L10.2969 23.6162L9.68359 22.5117C8.70223 20.7448 8.06662 18.8067 7.81152 16.8018L7.75586 16.3652H1.90723L2.2207 17.0684ZM17.1943 16.8018C16.9392 18.8068 16.3036 20.7448 15.3223 22.5117L14.709 23.6162L15.9121 23.2305C17.4269 22.7447 18.8225 21.9446 20.0068 20.8828C21.1912 19.821 22.1378 18.5211 22.7852 17.0684L23.0986 16.3652H17.25L17.1943 16.8018ZM1.59473 9.76465C1.36578 10.6594 1.24794 11.5794 1.24414 12.5029V12.5068C1.24795 13.4304 1.36575 14.3503 1.59473 15.2451L1.69141 15.6211H7.64844L7.59961 15.0762C7.52276 14.2164 7.47853 13.3596 7.47852 12.5049C7.47852 11.6502 7.5228 10.7884 7.59961 9.93359L7.64844 9.38867H1.69141L1.59473 9.76465ZM8.35449 9.84082C8.27295 10.6883 8.22266 11.5754 8.22266 12.5049C8.22267 13.4343 8.27294 14.3215 8.35449 15.1689L8.39746 15.6211H16.6084L16.6514 15.1689C16.7329 14.3215 16.7832 13.4343 16.7832 12.5049C16.7832 11.5754 16.7329 10.6883 16.6514 9.84082L16.6084 9.38867H8.39746L8.35449 9.84082ZM17.4062 9.93262C17.4831 10.7925 17.5273 11.6501 17.5273 12.5049C17.5273 13.3597 17.483 14.2213 17.4062 15.0762L17.3574 15.6211H23.3125L23.4102 15.2471C23.8782 13.449 23.8782 11.5608 23.4102 9.7627L23.3125 9.38867H17.3574L17.4062 9.93262ZM9.09375 1.7793C7.57903 2.26503 6.18332 3.06414 4.99902 4.12598C3.81469 5.18771 2.86806 6.4878 2.2207 7.94043L1.90723 8.64453H7.75586L7.81152 8.20703C8.06665 6.20227 8.70232 4.26482 9.68359 2.49805L10.2969 1.39258L9.09375 1.7793ZM12.5029 1.24902C12.0049 1.24902 11.551 1.48853 11.1641 1.83691C10.7759 2.18654 10.4184 2.67729 10.0977 3.2666C9.45501 4.44739 8.91736 6.10301 8.58496 8.06055L8.48535 8.64453H16.5205L16.4209 8.06055C16.0886 6.10587 15.5508 4.44997 14.9082 3.26855C14.5875 2.67899 14.2298 2.18792 13.8418 1.83789C13.4551 1.48913 13.0013 1.24903 12.5029 1.24902ZM15.3223 2.49805C16.3035 4.26479 16.9391 6.20235 17.1943 8.20703L17.25 8.64453H23.0986L22.7852 7.94043C22.1377 6.48777 21.1911 5.18773 20.0068 4.12598C18.8225 3.06415 17.4269 2.26505 15.9121 1.7793L14.709 1.39258L15.3223 2.49805Z" fill="#272531" stroke="#272531"/>
</svg>
