<svg width="360" height="306" viewBox="0 0 360 306" fill="none" xmlns="http://www.w3.org/2000/svg">
<path d="M266.414 0.5C317.831 0.5 359.5 41.0078 359.5 90.9326C359.5 136.141 331.304 176.098 306.401 205.819L304.002 208.664C273.025 245.246 235.651 276.989 210.008 295.965H210.007C201.453 302.317 190.873 305.5 180 305.5C169.127 305.5 158.547 302.317 149.993 295.965L147.555 294.148C122.432 275.309 87.1658 245.099 57.4551 210.44L55.998 208.732L53.5996 205.888C28.696 176.162 0.500092 136.141 0.5 90.9326C0.5 41.0078 42.1688 0.500012 93.5859 0.5C123.455 0.5 151.57 14.434 169.052 37.9424H169.053L179.6 52.085L180 52.6221L180.4 52.085L190.947 37.9424C208.429 14.4341 236.544 0.500104 266.414 0.5ZM266.414 32.293C247.367 32.2931 229.415 41.0346 218.035 55.833L217.498 56.543L193.31 89.0615C190.241 93.1688 185.33 95.624 180.07 95.624C174.812 95.624 169.898 93.1688 166.83 89.0615L142.644 56.543C131.297 41.3147 113.076 32.293 93.7266 32.293C60.4172 32.293 33.3906 58.5332 33.3906 90.9326C33.3907 125.224 56.0111 158.484 81.3916 188.474C110.322 222.67 145.72 252.755 169.999 270.74L170.003 270.742C172.345 272.447 175.755 273.708 180.141 273.708C184.527 273.708 187.937 272.447 190.279 270.742L190.282 270.74C214.561 252.755 249.959 222.601 278.89 188.474C304.34 158.483 326.891 125.224 326.891 90.9326C326.891 58.5332 299.863 32.293 266.555 32.293H266.414Z" fill="#272531" stroke="#272531"/>
</svg>
