<svg width="388" height="389" viewBox="0 0 388 389" fill="none" xmlns="http://www.w3.org/2000/svg">
<path d="M35.959 85.1621C40.6797 149.654 70.32 182 100.912 199.165L102.123 199.845L101.623 198.549C90.7072 170.273 81.6785 133.336 76.7461 85.0752L76.7002 84.626H35.9199L35.959 85.1621ZM310.778 85.0752C306.073 131.288 297.576 167.164 287.267 194.91L286.777 196.227L287.988 195.515C318.877 177.362 346.767 145.099 351.489 85.165L351.532 84.626H310.824L310.778 85.0752ZM170 284.451L169.717 284.314C157.642 278.504 142.593 267.698 127.909 247.792L127.805 247.649L127.633 247.604C113.694 243.968 98.5484 238.439 83.7852 230.11L83.7832 230.109C43.1638 207.359 6.46434 164.643 0.712891 88.1211L0.583008 86.3066C-0.838334 65.2809 16.2962 49.0996 35.8506 49.0996H74.0449L74.0146 48.5713C73.7871 44.6284 73.6353 40.6838 73.4834 36.583C72.7414 16.9196 88.6298 0.776271 108.25 0.505859V0.576172H278.851C298.39 0.576172 314.359 16.3975 314.14 35.7354L314.117 36.6592C313.966 40.6844 313.812 44.7044 313.586 48.6475L313.556 49.1758H351.751C371.001 49.176 387.976 64.8559 387.074 85.4717L387.018 86.457C381.425 163.786 342.452 206.796 299.719 229.638L297.681 230.71C285.715 236.919 273.52 241.541 261.927 244.95L261.76 244.999L261.659 245.142C246.37 266.791 230.488 278.202 217.883 284.315L217.601 284.452V340.775H266.7C279.865 340.775 290.501 351.411 290.501 364.575C290.501 377.74 279.865 388.376 266.7 388.376H120.9C107.736 388.376 97.1006 377.74 97.1006 364.575C97.1008 351.411 107.736 340.775 120.9 340.775H170V284.451Z" fill="#272531" stroke="#272531"/>
</svg>
