<svg width="1031" height="1031" viewBox="0 0 1031 1031" fill="none" xmlns="http://www.w3.org/2000/svg">
<path d="M514.958 294.465C636.734 294.465 735.451 393.182 735.451 514.958C735.451 636.734 636.734 735.451 514.958 735.451C393.182 735.451 294.465 636.734 294.465 514.958C294.465 393.182 393.182 294.465 514.958 294.465Z" fill="#272531" stroke="#272531" stroke-width="1.33333"/>
<path d="M514.958 0.666992C543.864 0.667175 567.414 24.2219 567.414 53.123V163.703C567.414 192.473 544.079 215.937 515.364 216.156H514.958C486.047 216.156 462.502 192.596 462.502 164.787V53.123C462.502 24.2174 486.057 0.666992 514.958 0.666992Z" fill="#272531" stroke="#272531" stroke-width="1.33333"/>
<path d="M150.081 150.079C170.42 129.74 203.604 129.74 223.943 150.079L303.086 229.222C323.424 249.561 323.424 282.745 303.086 303.084C293.459 312.711 279.535 318.067 266.696 318.067C253.853 318.067 239.934 312.711 230.306 303.084L230.303 303.08L150.078 223.938C129.742 203.599 129.743 170.417 150.081 150.079Z" fill="#272531" stroke="#272531" stroke-width="1.33333"/>
<path d="M53.123 462.502H163.703C192.473 462.502 215.937 485.836 216.156 514.552V514.958C216.156 543.869 192.596 567.414 164.787 567.414H53.123C24.2175 567.414 0.667175 543.859 0.666992 514.958C0.666992 486.052 24.2218 462.502 53.123 462.502Z" fill="#272531" stroke="#272531" stroke-width="1.33333"/>
<path d="M230.307 726.832C250.653 706.486 283.827 706.505 303.073 726.819L303.079 726.825L303.085 726.832C323.424 747.171 323.424 780.356 303.085 800.694L223.943 879.837C214.316 889.464 200.393 894.82 187.554 894.82C174.71 894.82 160.791 889.464 151.164 879.837C130.825 859.498 130.825 826.313 151.164 805.975L230.307 726.832Z" fill="#272531" stroke="#272531" stroke-width="1.33333"/>
<path d="M514.958 813.758C543.86 813.758 567.414 837.309 567.414 866.214V977.878C567.414 1006.78 543.859 1030.33 514.958 1030.33C486.053 1030.33 462.502 1006.78 462.502 977.878V866.214C462.502 837.308 486.057 813.758 514.958 813.758Z" fill="#272531" stroke="#272531" stroke-width="1.33333"/>
<path d="M725.747 726.832C746.085 706.494 779.267 706.493 799.606 726.828V726.829L877.665 805.971L877.668 805.975C898.007 826.313 898.007 859.498 877.668 879.837C868.041 889.464 854.118 894.82 841.28 894.82C828.436 894.82 814.517 889.464 804.89 879.837L725.747 800.694C705.409 780.356 705.409 747.171 725.747 726.832Z" fill="#272531" stroke="#272531" stroke-width="1.33333"/>
<path d="M866.213 462.503H976.79L977.467 462.507C1006.1 462.871 1030.33 486.301 1030.33 514.959C1030.33 543.864 1006.78 567.415 977.877 567.415H866.213C837.307 567.415 813.757 543.86 813.757 514.959C813.757 486.053 837.311 462.503 866.213 462.503Z" fill="#272531" stroke="#272531" stroke-width="1.33333"/>
<path d="M804.891 151.162C825.23 130.823 858.414 130.823 878.753 151.162C899.092 171.501 899.092 204.686 878.753 225.024L799.611 304.167C789.983 313.794 776.06 319.15 763.221 319.15C749.311 319.15 736.462 313.805 725.733 304.151C705.409 283.811 705.415 250.638 725.748 230.305L804.891 151.162Z" fill="#272531" stroke="#272531" stroke-width="1.33333"/>
</svg>
