<svg width="1432" height="1240" viewBox="0 0 1432 1240" fill="none" xmlns="http://www.w3.org/2000/svg">
<path d="M1144.41 0.666992H1198.44L1238.04 40.2754L1238.04 277.75L1198.43 317.36H1144.35C1140.99 317.36 1137.7 317.06 1134.32 316.851L1133.38 316.793L1133.63 317.697L1258.91 760.805L1259.01 761.156L1259.36 761.262C1333.1 783.375 1395.4 834.926 1430.96 906.649L1408.39 961.63L1393.48 966.782L1392.89 966.985L1393.05 967.587C1397.85 985.33 1400.71 1003.88 1400.71 1023.14C1400.71 1142.51 1303.9 1239.33 1184.52 1239.33C1081.96 1239.33 996.366 1167.8 974.226 1071.98L974.107 1071.46H973.577L531.457 1071.32L530.926 1071.32L530.806 1071.83C508.728 1167.72 423.103 1239.32 320.51 1239.32C217.902 1239.32 132.264 1167.73 110.186 1071.83L110.067 1071.32H41.6365L2.02612 1031.71V902.207C2.02612 714.744 129.921 556.625 303.038 510.384L303.868 510.162L303.447 509.413C295.053 494.487 290.219 477.318 290.219 459.005V441.021C290.219 384.046 336.578 337.688 393.553 337.688H665.553C722.529 337.688 768.886 384.046 768.886 441.021V459.005C768.886 515.981 722.529 562.339 665.553 562.339H657.459L658.407 563.44C687.256 596.957 704.84 640.387 704.84 687.948C704.84 690.079 704.852 691.689 701.9 707.987C698.951 724.272 693.052 755.179 681.253 815.867L681.098 816.661H719.793C817.141 816.648 896.384 737.461 896.471 640.127L896.519 640.011V271.333H889.358C850.013 271.333 818.025 239.345 818.025 200V136C818.025 96.6709 850.029 64.667 889.358 64.667H1017.53L1017.73 64.3994C1046.63 25.809 1092.58 0.66703 1144.41 0.666992ZM192.271 1072.24C212.059 1123.86 261.981 1160.67 320.508 1160.67C379.033 1160.67 428.957 1123.86 448.729 1072.24L449.076 1071.33H191.924L192.271 1072.24ZM1320.68 1035.33C1289.73 1036.42 1244.87 1039.31 1203.79 1047.07C1158.66 1055.58 1124.05 1062.79 1098.4 1068.49L1098.36 1068.5L1098.32 1068.51L1096.06 1069.3L1091.26 1070.11L1091.24 1070.11L1091.23 1070.11C1078.06 1073.08 1067.44 1075.61 1059.37 1077.61L1058.6 1077.8L1058.92 1078.52C1080.24 1126.8 1128.39 1160.66 1184.5 1160.67V1160.67H1184.51C1255.98 1160.67 1314.82 1105.86 1321.36 1036.06L1321.44 1035.3L1320.68 1035.33ZM1177.46 827.861C1078.54 827.861 995.84 898.526 977.139 991.997L976.98 992.794H1076.59L1076.7 992.758L1335.09 903.68L1336.1 903.438L1335.43 902.617C1297.2 855.676 1239.89 827.872 1177.46 827.861ZM393.535 416.359C380.156 416.359 368.868 427.648 368.868 441.026V459.011C368.868 472.389 380.156 483.677 393.535 483.677H665.535C678.913 483.677 690.201 472.389 690.201 459.011V441.026C690.201 427.648 678.913 416.36 665.535 416.359H393.535ZM1144.43 79.3271C1100.47 79.3271 1064.72 115.085 1064.7 159.016C1064.7 202.957 1100.44 238.693 1144.38 238.693H1159.4V79.333H1145.09V79.3271H1144.43ZM896.695 144L896.7 192V192.666H989.695L989.524 191.861C987.278 181.263 986.05 170.305 986.05 159.041C986.05 153.979 986.35 149.006 986.812 144.062L986.88 143.333H896.695V144ZM626.094 684.616L626.061 684.515C620.213 666.682 603.032 631.133 554.615 604.27H554.614C536.357 594.139 511.289 587.167 489.651 582.597C467.998 578.023 449.714 575.84 444.992 575.311L444.955 575.307H406.548C227.325 575.32 80.6951 721.98 80.6951 902.213L80.7068 992.01V992.676H81.3728L824.52 992.671H824.591L824.659 992.656C835.957 990.242 854.648 982.804 880.042 960.925L880.043 960.926C906.057 938.516 919.533 915.815 924.921 905.233L924.923 905.229C925.337 904.404 925.725 903.562 926.111 902.736C926.499 901.907 926.886 901.091 927.302 900.299L927.313 900.277L927.322 900.256C927.418 900.038 927.502 899.835 927.576 899.66L927.857 899.136C974.921 811.196 1067.06 751.001 1173.21 749.422L1174.08 749.408L1173.84 748.573L1058.08 339.467L1057.99 339.151L1057.69 339.029L1054.75 337.861C1039.86 332.029 1022.7 326.346 1005.91 323.187C994.906 321.107 985.031 319.361 975.954 317.84L975.177 317.71V318.498L975.146 640.071C975.079 780.807 860.551 895.312 719.812 895.312L633.678 895.326L594.813 848.15C605.728 792.191 623.094 702.529 626.116 685.207L626.126 685.149V685.092C626.126 684.977 626.111 684.876 626.104 684.821C626.096 684.757 626.095 684.738 626.094 684.723V684.616Z" fill="#272531" stroke="#272531" stroke-width="1.33333"/>
<path d="M369.32 178.036V256.702H0.666992V178.036H369.32Z" fill="#272531" stroke="#272531" stroke-width="1.33333"/>
<path d="M249.676 306.036V384.702H88.303V306.036H249.676Z" fill="#272531" stroke="#272531" stroke-width="1.33333"/>
</svg>
