<svg width="700" height="700" viewBox="0 0 700 700" fill="none" xmlns="http://www.w3.org/2000/svg">
<path d="M408.697 0.666992L417.693 83.25L417.743 83.708L418.189 83.8232C443.653 90.3936 468.299 101.074 490.483 114.221L490.883 114.458L491.243 114.166L555.835 61.8369L638.982 144.985L585.838 209.578L585.532 209.949L585.788 210.356C599.747 232.527 609.604 256.343 616.176 282.631L616.289 283.086L616.757 283.133L699.333 291.308V408.697L616.75 417.693L616.292 417.743L616.177 418.189C609.603 443.665 599.745 468.304 585.788 490.468L585.532 490.875L585.838 491.247L638.983 555.838L555.838 638.983L491.247 585.838L490.875 585.532L490.468 585.788C468.301 599.745 443.662 609.603 418.189 616.177L417.743 616.292L417.693 616.75L408.697 699.333H291.308L283.133 616.757L283.086 616.289L282.631 616.176L280.173 615.55C254.853 608.984 231.831 599.311 210.356 585.788L209.949 585.532L209.578 585.838L144.985 638.982L61.8369 555.835L114.166 491.243L114.458 490.883L114.221 490.483C101.072 468.297 90.3936 443.65 83.8232 418.189L83.708 417.743L83.25 417.693L0.666992 408.697V291.308L83.2432 283.133L83.7109 283.086L83.8242 282.631C90.3932 256.353 101.072 232.53 114.221 210.342L114.458 209.942L114.166 209.582L61.8379 144.988L144.988 61.8379L209.582 114.166L209.942 114.458L210.342 114.221C232.532 101.07 256.355 90.3932 282.631 83.8242L283.086 83.7109L283.133 83.2432L291.308 0.666992H408.697ZM350.001 174.748C253.283 174.748 174.748 253.278 174.748 350.001C174.748 447.545 253.276 526.082 350.001 526.082C447.546 526.082 526.082 447.546 526.082 350.001C526.082 253.282 447.545 174.748 350.001 174.748ZM350.001 251.022C404.817 251.023 449.802 295.201 449.802 350.001C449.802 404.808 404.805 449.802 350.001 449.802C295.199 449.802 251.023 404.813 251.022 350.001C251.022 295.192 295.194 251.022 350.001 251.022Z" fill="#272531" stroke="#272531" stroke-width="1.33333"/>
</svg>
