<svg width="668" height="668" viewBox="0 0 668 668" fill="none" xmlns="http://www.w3.org/2000/svg">
<path d="M500.667 634.007L167.333 634M500.667 634.007L527.437 634C564.7 634 583.333 634 597.58 626.74C610.123 620.35 620.35 610.143 626.74 597.6C634 583.353 634 564.7 634 527.437V241.318C634 226.357 634 218.84 632.403 211.702C630.983 205.333 628.643 199.217 625.44 193.532C621.887 187.225 616.9 181.685 607.097 170.793L515.257 68.747C503.897 56.1247 498.14 49.727 491.227 45.1327C485.01 41 478.14 37.9527 470.91 36.0957C462.75 34 453.993 34 436.5 34H140.673C103.336 34 84.654 34 70.3933 41.2663C57.849 47.6577 47.6577 57.849 41.2663 70.3933C34 84.654 34 103.336 34 140.673V527.34C34 564.677 34 583.32 41.2663 597.58C47.6577 610.123 57.849 620.35 70.3933 626.74C84.64 634 103.3 634 140.564 634H167.333M500.667 634.007V507.23C500.667 469.967 500.667 451.307 493.407 437.06C487.017 424.517 476.79 414.323 464.247 407.933C449.987 400.667 431.343 400.667 394.007 400.667H274.007C236.67 400.667 217.987 400.667 203.727 407.933C191.182 414.323 180.991 424.517 174.6 437.06C167.333 451.32 167.333 470.003 167.333 507.34V634M434 167.333H234" stroke="#272531" stroke-width="66.6667" stroke-linecap="round" stroke-linejoin="round"/>
</svg>
