<svg width="384" height="389" viewBox="0 0 384 389" fill="none" xmlns="http://www.w3.org/2000/svg">
<path d="M85.0498 0.5C131.779 0.5 169.6 38.3207 169.6 85.0498C169.6 95.8474 167.636 106.113 163.938 115.623L163.82 115.928L194.399 146.507L194.753 146.153L301.674 39.2334C322.969 17.9386 357.432 17.9384 378.727 39.2334C383.922 44.4297 383.922 52.7706 378.727 57.9668L164.051 272.642L163.822 272.87L163.938 273.173C167.562 282.688 169.6 292.954 169.6 303.75C169.6 350.479 131.779 388.3 85.0498 388.3C38.3208 388.3 0.5 350.479 0.5 303.75C0.5 257.021 38.3208 219.2 85.0498 219.2C95.8474 219.2 106.114 221.163 115.624 224.861L115.928 224.979L146.507 194.4L146.153 194.047L116.158 164.051L115.93 163.822L115.627 163.938C106.113 167.562 95.8451 169.6 85.0498 169.6C38.3208 169.6 0.5 131.779 0.5 85.0498C0.5001 38.3207 38.3209 0.500086 85.0498 0.5ZM378.727 330.834C383.922 336.03 383.922 344.371 378.727 349.566C357.432 370.861 322.969 370.861 301.674 349.566L220.851 268.743L268.743 220.851L378.727 330.834ZM85.0498 266.8C64.6503 266.8 48.0996 283.35 48.0996 303.75C48.0996 324.15 64.6503 340.7 85.0498 340.7C105.449 340.7 122 324.15 122 303.75C122 283.35 105.449 266.8 85.0498 266.8ZM85.0498 48.0996C64.6503 48.0997 48.0997 64.6503 48.0996 85.0498C48.0996 105.449 64.6503 122 85.0498 122C105.449 122 122 105.449 122 85.0498C122 64.6503 105.449 48.0996 85.0498 48.0996Z" fill="#272531" stroke="#272531"/>
</svg>
