<svg width="1400" height="1300" viewBox="0 0 1400 1300" fill="none" xmlns="http://www.w3.org/2000/svg">
<path d="M450 350.668H650C677.246 350.668 699.333 372.754 699.333 400.001C699.333 427.247 677.246 449.334 650 449.334H450C422.754 449.334 400.667 427.247 400.667 400.001C400.667 372.754 422.754 350.668 450 350.668Z" fill="#272531" stroke="#272531" stroke-width="1.33333"/>
<path d="M450 550.668H950C977.246 550.668 999.333 572.754 999.333 600.001C999.333 627.247 977.246 649.334 950 649.334H450C422.754 649.334 400.667 627.247 400.667 600.001C400.667 572.754 422.754 550.668 450 550.668Z" fill="#272531" stroke="#272531" stroke-width="1.33333"/>
<path d="M450 750.668H950C977.246 750.668 999.333 772.754 999.333 800.001C999.333 827.247 977.246 849.334 950 849.334H450C422.754 849.334 400.667 827.247 400.667 800.001C400.667 772.754 422.754 750.668 450 750.668Z" fill="#272531" stroke="#272531" stroke-width="1.33333"/>
<path d="M700 0.666992H700.001L704.431 0.678711C1080.69 2.70649 1399.33 262.912 1399.33 600C1399.33 938.41 1078.18 1199.33 700.001 1199.33C625.141 1199.33 552.905 1189.26 485.099 1170.54L484.86 1170.47L484.638 1170.58L221.011 1294.64C203.148 1303.04 181.996 1299.99 167.237 1286.88C152.479 1273.77 146.959 1253.13 153.203 1234.4L219.312 1036.06L219.458 1035.63L219.101 1035.34C85.9785 927.283 0.667093 773.17 0.666992 600.001C0.666992 261.591 321.817 0.667002 700 0.666992ZM700 99.334C360.498 99.334 99.7664 330.513 99.3359 599.334H99.3223V600.001C99.3224 748.875 177.748 884.748 306.318 977.94C323.754 990.572 330.979 1013.06 324.17 1033.48L283.723 1154.84L283.229 1156.31L284.639 1155.65L459.691 1073.28L459.692 1073.28C470.736 1068.08 483.327 1067.16 495.007 1070.7C558.87 1090.06 627.877 1100.67 700 1100.67C1039.78 1100.67 1300.67 869.107 1300.67 600.001C1300.67 330.895 1039.78 99.334 700 99.334Z" fill="#272531" stroke="#272531" stroke-width="1.33333"/>
</svg>
