<svg width="948" height="683" viewBox="0 0 948 683" fill="none" xmlns="http://www.w3.org/2000/svg">
<path d="M946.721 276.07V605.887C946.606 625.809 938.767 644.9 924.869 659.141L924.202 659.815C909.892 674.129 890.509 682.217 870.271 682.333H77.1172C56.8775 682.218 37.495 674.129 23.1846 659.815C9.09469 645.728 1.0367 626.726 0.677734 606.831L0.666992 605.884V276.07H946.721ZM605.887 462.011C593.84 462.011 582.711 468.437 576.688 478.868C570.665 489.299 570.666 502.152 576.688 512.583C582.712 523.013 593.841 529.441 605.887 529.441H738.081C750.128 529.441 761.256 523.014 767.279 512.583C773.302 502.152 773.302 489.299 767.279 478.868C761.256 468.438 750.127 462.011 738.081 462.011H605.887Z" fill="#272531" stroke="#272531" stroke-width="1.33333"/>
<path d="M870.271 0.666992L871.219 0.677734C891.115 1.03619 910.115 9.09441 924.202 23.1846C938.292 37.2715 946.35 56.2736 946.709 76.1689L946.721 77.1172V186.607H0.666992V77.1172C0.782323 56.8775 8.8706 37.495 23.1846 23.1846C37.2715 9.09471 56.2736 1.03672 76.1689 0.677734L77.1172 0.666992H870.271Z" fill="#272531" stroke="#272531" stroke-width="1.33333"/>
</svg>
