<svg width="50" height="48" viewBox="0 0 50 48" fill="none" xmlns="http://www.w3.org/2000/svg">
<path fill-rule="evenodd" clip-rule="evenodd" d="M0 10.8C0 4.83533 4.79696 0 10.7143 0H23.8096C29.0693 0 33.3334 4.29806 33.3334 9.6V12C33.3334 13.3255 32.2674 14.4 30.9524 14.4C29.6374 14.4 28.5715 13.3255 28.5715 12V9.6C28.5715 6.94903 26.4396 4.8 23.8096 4.8H10.7143C7.42689 4.8 4.76191 7.4863 4.76191 10.8V37.2C4.76191 40.5137 7.42689 43.2 10.7143 43.2H23.8096C26.4396 43.2 28.5715 41.051 28.5715 38.4V36C28.5715 34.6745 29.6374 33.6 30.9524 33.6C32.2674 33.6 33.3334 34.6745 33.3334 36V38.4C33.3334 43.7018 29.0693 48 23.8096 48H10.7143C4.79696 48 0 43.1647 0 37.2V10.8ZM38.7927 15.1029C39.7224 14.1657 41.23 14.1657 42.1598 15.1029L49.3027 22.303C50.2324 23.2402 50.2324 24.7598 49.3027 25.697L42.1598 32.897C41.23 33.8342 39.7224 33.8342 38.7927 32.897C37.8629 31.9598 37.8629 30.4402 38.7927 29.503L41.871 26.4H21.4286C20.1136 26.4 19.0476 25.3255 19.0476 24C19.0476 22.6745 20.1136 21.6 21.4286 21.6H41.871L38.7927 18.4971C37.8629 17.5598 37.8629 16.0402 38.7927 15.1029Z" fill="#272531"/>
</svg>
