<svg width="256" height="253" viewBox="0 0 256 253" fill="none" xmlns="http://www.w3.org/2000/svg">
<g clip-path="url(#clip0_46_2)">
<path d="M81 12.5H35C22.5736 12.5 12.5 22.5736 12.5 35V81C12.5 93.4264 22.5736 103.5 35 103.5H81C93.4264 103.5 103.5 93.4264 103.5 81V35C103.5 22.5736 93.4264 12.5 81 12.5Z" stroke="#272531" stroke-width="25"/>
<path d="M221 12.5H175C162.574 12.5 152.5 22.5736 152.5 35V81C152.5 93.4264 162.574 103.5 175 103.5H221C233.426 103.5 243.5 93.4264 243.5 81V35C243.5 22.5736 233.426 12.5 221 12.5Z" stroke="#AA1D17" stroke-width="25"/>
<path d="M81 149.5H35C22.5736 149.5 12.5 159.574 12.5 172V218C12.5 230.426 22.5736 240.5 35 240.5H81C93.4264 240.5 103.5 230.426 103.5 218V172C103.5 159.574 93.4264 149.5 81 149.5Z" stroke="#272531" stroke-width="25"/>
<path d="M221 149.5H175C162.574 149.5 152.5 159.574 152.5 172V218C152.5 230.426 162.574 240.5 175 240.5H221C233.426 240.5 243.5 230.426 243.5 218V172C243.5 159.574 233.426 149.5 221 149.5Z" stroke="#272531" stroke-width="25"/>
</g>
<defs>
<clipPath id="clip0_46_2">
<rect width="256" height="253" fill="white"/>
</clipPath>
</defs>
</svg>
