<svg width="273" height="323" viewBox="0 0 273 323" fill="none" xmlns="http://www.w3.org/2000/svg">
<path d="M106.884 124.902L129.417 118.519H129.416C140.021 115.439 149.085 108.491 154.811 99.0497C160.538 89.6081 162.513 78.3601 160.344 67.532L153.705 35.0728C151.088 22.3272 142.953 11.3983 131.493 5.23706C120.034 -0.925731 106.432 -1.68854 94.3546 3.15625L62.1507 16.0662H62.1495C48.9539 21.3934 37.1709 29.7042 27.7242 40.3465C18.2775 50.9888 11.4231 63.6757 7.70029 77.4081L5.92867 84.0146C0.0352528 105.77 -1.48334 128.478 1.45778 150.826C4.40011 173.172 11.7445 194.714 23.0676 214.203L36.7592 237.917C47.9738 257.466 62.9545 274.596 80.8329 288.317C98.7127 302.037 119.136 312.076 140.919 317.852L147.542 319.624C161.305 323.273 175.726 323.686 189.675 320.828C203.624 317.97 216.722 311.921 227.94 303.154L255.229 281.737C265.473 273.707 271.621 261.543 272.012 248.531C272.404 235.52 266.998 223.008 257.256 214.377L232.473 192.402C224.179 185.114 213.451 181.201 202.411 181.441C191.372 181.68 180.823 186.052 172.853 193.695L156.001 209.956C154.658 211.267 152.582 211.46 151.021 210.419L128.776 195.737C115.185 186.709 106.603 171.839 105.589 155.554L103.993 128.967C103.896 127.104 105.091 125.42 106.882 124.898L106.884 124.902ZM81.7006 157.01C82.4325 168.751 85.8747 180.164 91.7556 190.351C97.6353 200.539 105.796 209.228 115.596 215.735L137.841 230.417H137.843C143.133 233.939 149.471 235.545 155.801 234.964C162.131 234.383 168.07 231.651 172.632 227.225L189.5 210.915H189.499C193.123 207.433 197.925 205.441 202.949 205.331C207.973 205.222 212.856 207.004 216.628 210.325L241.38 232.3C245.807 236.226 248.263 241.914 248.085 247.828C247.907 253.742 245.112 259.273 240.455 262.924L213.166 284.355V284.356C204.864 290.826 195.178 295.288 184.866 297.395C174.555 299.502 163.895 299.195 153.722 296.5L147.115 294.744H147.114C128.368 289.766 110.793 281.12 95.4089 269.306C80.0253 257.491 67.1377 242.744 57.4919 225.915L43.8003 202.201H43.799C34.0781 185.439 27.7759 166.917 25.2586 147.703C22.7414 128.491 24.058 108.969 29.1336 90.2689L30.9052 83.6462C33.6356 73.4877 38.6837 64.0998 45.653 56.2189C52.6223 48.3383 61.3234 42.1807 71.0717 38.2284L103.276 25.3022H103.277C108.768 23.1067 114.949 23.4583 120.155 26.2609C125.362 29.0649 129.057 34.032 130.246 39.8242L136.885 72.2835C137.875 77.2057 136.979 82.3197 134.376 86.6125C131.771 90.9049 127.648 94.0605 122.826 95.4556L100.292 101.839C94.1691 103.559 88.8217 107.331 85.1478 112.522C81.4723 117.714 79.692 124.01 80.1047 130.357L81.7006 157.01Z" fill="#272531"/>
</svg>
