<svg width="20" height="21" viewBox="0 0 20 21" fill="none" xmlns="http://www.w3.org/2000/svg">
<g clip-path="url(#clip0_39_29)">
<path d="M15.1798 14.6941C16.6203 12.999 17.3495 10.8125 17.2144 8.5921C17.0793 6.37168 16.0907 4.28968 14.4553 2.78165C12.8201 1.27369 10.6648 0.456797 8.44068 0.501763C6.21673 0.546836 4.09627 1.45041 2.52339 3.02339C0.950509 4.59636 0.0469168 6.71673 0.00176507 8.94068C-0.0432362 11.1648 0.773749 13.32 2.28165 14.9553C3.78961 16.5907 5.87168 17.5793 8.0921 17.7144C10.3125 17.8495 12.499 17.1204 14.1941 15.6798L18.8282 20.313C19.006 20.4787 19.2574 20.5397 19.4914 20.4741C19.7255 20.4084 19.9084 20.2255 19.9741 19.9914C20.0397 19.7574 19.9787 19.506 19.813 19.3282L15.1798 14.6941ZM1.4364 9.13653C1.4364 7.22696 2.19495 5.39562 3.54534 4.04534C4.89573 2.69506 6.72696 1.9364 8.63653 1.9364C10.5461 1.9364 12.3774 2.69495 13.7277 4.04534C15.078 5.39573 15.8367 7.22696 15.8367 9.13653C15.8367 11.0461 15.0781 12.8774 13.7277 14.2277C12.3773 15.578 10.5461 16.3367 8.63653 16.3367C6.7277 16.3345 4.89748 15.5751 3.54776 14.2253C2.19794 12.8755 1.43863 11.0453 1.4364 9.13653Z" fill="#272531"/>
</g>
<defs>
<clipPath id="clip0_39_29">
<rect width="20" height="20" fill="white" transform="translate(0 0.5)"/>
</clipPath>
</defs>
</svg>
