<svg width="20" height="20" viewBox="0 0 20 20" fill="none" xmlns="http://www.w3.org/2000/svg">
<path d="M15.1798 14.1941C16.6203 12.499 17.3495 10.3125 17.2144 8.0921C17.0793 5.87168 16.0907 3.78968 14.4553 2.28165C12.8201 0.773691 10.6648 -0.0432034 8.44068 0.00176256C6.21673 0.0468363 4.09627 0.950414 2.52339 2.52339C0.950509 4.09636 0.0469168 6.21673 0.00176507 8.44068C-0.0432362 10.6648 0.773749 12.82 2.28165 14.4553C3.78961 16.0907 5.87168 17.0793 8.0921 17.2144C10.3125 17.3495 12.499 16.6204 14.1941 15.1798L18.8282 19.813C19.006 19.9787 19.2574 20.0397 19.4914 19.9741C19.7255 19.9084 19.9084 19.7255 19.9741 19.4914C20.0397 19.2574 19.9787 19.006 19.813 18.8282L15.1798 14.1941ZM1.4364 8.63653C1.4364 6.72696 2.19495 4.89562 3.54534 3.54534C4.89573 2.19506 6.72696 1.4364 8.63653 1.4364C10.5461 1.4364 12.3774 2.19495 13.7277 3.54534C15.078 4.89573 15.8367 6.72696 15.8367 8.63653C15.8367 10.5461 15.0781 12.3774 13.7277 13.7277C12.3773 15.078 10.5461 15.8367 8.63653 15.8367C6.7277 15.8345 4.89748 15.0751 3.54776 13.7253C2.19794 12.3755 1.43863 10.5453 1.4364 8.63653Z" fill="#D4CFD5"/>
</svg>
