<svg width="18" height="25" viewBox="0 0 18 25" fill="none" xmlns="http://www.w3.org/2000/svg">
<path d="M9.87099 9.01165V8.72096H11.3226C13.0929 8.71878 14.79 8.01365 16.0419 6.76027C17.2936 5.50682 17.9978 3.80746 18 2.0349V0.872098C18 0.640811 17.9083 0.418979 17.7449 0.255443C17.5816 0.0918331 17.36 0 17.129 0H14.8065C13.451 0.00236187 12.1285 0.417421 11.0139 1.18996C9.89944 1.9625 9.04599 3.05606 8.56684 4.32556C8.05469 3.70274 7.41173 3.20055 6.68374 2.8549C5.95575 2.50915 5.16054 2.32845 4.35489 2.32555H2.0323C1.80132 2.32555 1.57977 2.41739 1.41645 2.58099C1.25305 2.74451 1.16134 2.96634 1.16134 3.19765V4.52668C1.16315 5.99099 1.74498 7.39483 2.77897 8.43019C3.81305 9.46561 5.21512 10.0481 6.67742 10.0499H8.12903V15.1267C5.43716 15.186 0 15.5744 0 17.7325V21.8023C0.000635086 22.6502 0.337309 23.4632 0.936023 24.0628C1.53481 24.6622 2.34671 24.9993 3.19355 25H14.8065C15.6533 24.9994 16.4652 24.6623 17.064 24.0628C17.6627 23.4632 17.9993 22.6502 18 21.8023V17.7325C18 15.5743 12.5628 15.186 9.87097 15.1267L9.87099 9.01165ZM9.87099 6.68606C9.87253 5.37582 10.393 4.11977 11.3182 3.19325C12.2434 2.26673 13.4979 1.74566 14.8065 1.74413H16.2581V2.03483C16.2566 3.34507 15.7361 4.60112 14.8109 5.52764C13.8857 6.45415 12.6312 6.97522 11.3226 6.97676H9.87099V6.68606ZM2.90325 4.5267V4.06977H4.35486C5.35548 4.07104 6.31472 4.46956 7.02235 5.17796C7.72983 5.88645 8.12785 6.84695 8.1291 7.8489V8.30584H6.67749C5.67688 8.30466 4.71763 7.90611 4.01001 7.19764C3.30252 6.48915 2.9045 5.52866 2.90325 4.5267ZM14.8065 23.2559H3.19357C2.80881 23.2552 2.43992 23.1019 2.16783 22.8295C1.89574 22.557 1.74259 22.1876 1.74196 21.8024V19.4419C4.10333 20.1015 6.54924 20.4072 9.00002 20.3489C11.4508 20.4072 13.8967 20.1015 16.2581 19.4419V21.8024C16.2575 22.1876 16.1043 22.557 15.8322 22.8295C15.5601 23.1019 15.1912 23.2552 14.8065 23.2559ZM9.00002 18.6047C6.67071 18.6963 4.34232 18.4016 2.10893 17.7326C4.34223 17.0635 6.67071 16.7688 9.00002 16.8605C11.3293 16.7688 13.6577 17.0635 15.8911 17.7326C13.6578 18.4017 11.3293 18.6963 9.00002 18.6047Z" fill="white"/>
</svg>
