<svg width="45" height="43" viewBox="0 0 45 43" fill="none" xmlns="http://www.w3.org/2000/svg">
<g clip-path="url(#clip0_50_21)">
<mask id="mask0_50_21" style="mask-type:luminance" maskUnits="userSpaceOnUse" x="0" y="0" width="45" height="43">
<path d="M44.5 0.5H0.5V42.5H44.5V0.5Z" fill="white"/>
</mask>
<g mask="url(#mask0_50_21)">
<path d="M38.2256 11.7975H31.9695C31.6195 11.7997 31.2781 11.6911 30.9951 11.4874C30.7122 11.2839 30.5027 10.996 30.3972 10.6661L28.4647 4.78466C27.9153 3.11319 26.6743 1.75086 25.0503 1.03601C23.4265 0.32133 21.5719 0.32133 19.948 1.03601C18.324 1.75086 17.083 3.11319 16.5336 4.78466L14.6012 10.6682C14.4953 10.9977 14.2856 11.285 14.0027 11.4882C13.7198 11.6915 13.3786 11.7998 13.0288 11.7975H6.77267C4.99498 11.7968 3.30062 12.5423 2.11084 13.8484C0.921225 15.1545 0.348343 16.8984 0.534513 18.6463C0.720839 20.3941 1.64879 21.9816 3.08755 23.0139L8.14817 26.6569C8.42997 26.8589 8.63998 27.1439 8.74807 27.4711C8.85619 27.7982 8.85683 28.1508 8.74999 28.4785L6.81541 34.3599C6.26779 36.0312 6.46259 37.8535 7.35136 39.3746C8.24028 40.8959 9.73984 41.9731 11.4781 42.339C13.2161 42.7049 15.0294 42.3249 16.4683 41.2937L21.5289 37.6507C21.8105 37.4453 22.1512 37.3344 22.5013 37.3344C22.8512 37.3344 23.192 37.4453 23.4737 37.6507L28.5343 41.2937C29.5996 42.077 30.8916 42.5 32.2191 42.5C33.5467 42.5 34.8388 42.077 35.904 41.2937C36.9876 40.5343 37.7946 39.4497 38.2053 38.2011C38.6162 36.9524 38.6088 35.6061 38.1847 34.3618L36.2501 28.4925C36.1434 28.1648 36.1442 27.8124 36.2523 27.4852C36.3604 27.1583 36.5703 26.8732 36.8519 26.6709L41.9126 23.0279C43.3514 21.9957 44.2793 20.408 44.4654 18.6603C44.6518 16.9125 44.0789 15.1686 42.8893 13.8624C41.6997 12.5563 40.0053 11.8108 38.2274 11.8115L38.2256 11.7975ZM40.107 20.557L35.0463 24.2C34.2375 24.7782 33.6354 25.5957 33.327 26.5343C33.0187 27.4729 33.02 28.4841 33.3309 29.4217L35.2634 35.3032C35.5426 36.1561 35.4431 37.0858 34.9896 37.862C34.536 38.6381 33.7708 39.1877 32.884 39.3744C31.9972 39.561 31.0719 39.3671 30.3378 38.8411L25.2772 35.198C24.4709 34.6153 23.4981 34.3015 22.4992 34.3015C21.5004 34.3015 20.5276 34.6154 19.7211 35.198L14.6605 38.8411C13.9264 39.3671 13.0014 39.561 12.1145 39.3744C11.2277 39.1877 10.4625 38.6381 10.0089 37.862C9.55536 37.0858 9.45586 36.1561 9.73512 35.3032L11.6676 29.4217C11.979 28.4837 11.9804 27.4721 11.6721 26.5332C11.3637 25.5942 10.7614 24.7764 9.95214 24.1981L4.89356 20.557C4.15945 20.0303 3.68589 19.2204 3.5909 18.3286C3.49574 17.4368 3.78779 16.5471 4.39458 15.8805C5.00137 15.214 5.86585 14.8334 6.77283 14.8334H13.029C14.0293 14.838 15.0049 14.5276 15.8148 13.9472C16.6245 13.3667 17.2262 12.5465 17.5328 11.6053L19.4653 5.72381C19.7463 4.87154 20.3796 4.17709 21.2081 3.81263C22.0365 3.44832 22.9824 3.44832 23.8109 3.81263C24.6393 4.17709 25.2727 4.87154 25.5537 5.72381L27.4862 11.6033C27.791 12.5465 28.3919 13.369 29.2018 13.9513C30.0118 14.5337 30.9884 14.8455 31.9899 14.8415H38.2461C39.1533 14.8411 40.0182 15.2212 40.6255 15.8876C41.2327 16.5541 41.5253 17.444 41.4303 18.3361C41.3353 19.2282 40.8617 20.0384 40.1274 20.5652L40.107 20.557Z" fill="white"/>
</g>
</g>
<defs>
<clipPath id="clip0_50_21">
<rect width="44" height="43" fill="white" transform="translate(0.5)"/>
</clipPath>
</defs>
</svg>
