<svg width="44" height="43" viewBox="0 0 44 43" fill="none" xmlns="http://www.w3.org/2000/svg">
<g clip-path="url(#clip0_44_12)">
<path d="M37.7256 11.7975H31.4695C31.1195 11.7997 30.7781 11.6911 30.4951 11.4874C30.2122 11.2839 30.0027 10.996 29.8972 10.6661L27.9647 4.78466C27.4153 3.11319 26.1743 1.75086 24.5503 1.03601C22.9265 0.321329 21.0719 0.321329 19.448 1.03601C17.824 1.75086 16.583 3.11319 16.0336 4.78466L14.1012 10.6682C13.9953 10.9977 13.7856 11.285 13.5027 11.4882C13.2198 11.6915 12.8786 11.7998 12.5288 11.7975H6.27267C4.49498 11.7968 2.80062 12.5423 1.61084 13.8484C0.421225 15.1545 -0.151657 16.8984 0.0345131 18.6463C0.220839 20.3941 1.14879 21.9816 2.58755 23.0139L7.64817 26.6569C7.92997 26.8589 8.13998 27.1439 8.24807 27.4711C8.35619 27.7982 8.35683 28.1508 8.24999 28.4785L6.31541 34.3599C5.76779 36.0312 5.96259 37.8535 6.85136 39.3746C7.74028 40.8959 9.23984 41.9731 10.9781 42.339C12.7161 42.7049 14.5294 42.3249 15.9683 41.2937L21.0289 37.6507C21.3105 37.4453 21.6512 37.3344 22.0013 37.3344C22.3512 37.3344 22.692 37.4453 22.9737 37.6507L28.0343 41.2937C29.0996 42.077 30.3916 42.5 31.7191 42.5C33.0467 42.5 34.3388 42.077 35.404 41.2937C36.4876 40.5343 37.2946 39.4497 37.7053 38.2011C38.1162 36.9524 38.1088 35.6061 37.6847 34.3618L35.7501 28.4925C35.6434 28.1648 35.6442 27.8124 35.7523 27.4852C35.8604 27.1583 36.0703 26.8732 36.3519 26.6709L41.4126 23.0279C42.8514 21.9957 43.7793 20.408 43.9654 18.6603C44.1518 16.9125 43.5789 15.1686 42.3893 13.8624C41.1997 12.5563 39.5053 11.8108 37.7274 11.8115L37.7256 11.7975ZM39.607 20.557L34.5463 24.2C33.7375 24.7782 33.1354 25.5957 32.827 26.5343C32.5187 27.4729 32.52 28.4841 32.8309 29.4217L34.7634 35.3032C35.0426 36.1561 34.9431 37.0858 34.4896 37.862C34.036 38.6381 33.2708 39.1877 32.384 39.3744C31.4972 39.561 30.5719 39.3671 29.8378 38.8411L24.7772 35.198C23.9709 34.6153 22.9981 34.3015 21.9992 34.3015C21.0004 34.3015 20.0276 34.6154 19.2211 35.198L14.1605 38.8411C13.4264 39.3671 12.5014 39.561 11.6145 39.3744C10.7277 39.1877 9.9625 38.6381 9.50893 37.862C9.05536 37.0858 8.95586 36.1561 9.23512 35.3032L11.1676 29.4217C11.479 28.4837 11.4804 27.4721 11.1721 26.5332C10.8637 25.5942 10.2614 24.7764 9.45214 24.1981L4.39356 20.557C3.65945 20.0303 3.18589 19.2204 3.0909 18.3286C2.99574 17.4368 3.28779 16.5471 3.89458 15.8805C4.50137 15.214 5.36585 14.8334 6.27283 14.8334H12.529C13.5293 14.838 14.5049 14.5276 15.3148 13.9472C16.1245 13.3667 16.7262 12.5465 17.0328 11.6053L18.9653 5.72381C19.2463 4.87154 19.8796 4.17709 20.7081 3.81263C21.5365 3.44832 22.4824 3.44832 23.3109 3.81263C24.1393 4.17709 24.7727 4.87154 25.0537 5.72381L26.9862 11.6033C27.291 12.5465 27.8919 13.369 28.7018 13.9513C29.5118 14.5337 30.4884 14.8455 31.4899 14.8415H37.7461C38.6533 14.8411 39.5182 15.2212 40.1255 15.8876C40.7327 16.5541 41.0253 17.444 40.9303 18.3361C40.8353 19.2282 40.3617 20.0384 39.6274 20.5652L39.607 20.557Z" fill="#272531"/>
</g>
<defs>
<clipPath id="clip0_44_12">
<rect width="44" height="42" fill="white" transform="translate(0 0.5)"/>
</clipPath>
</defs>
</svg>
