<svg width="344" height="344" viewBox="0 0 344 344" fill="none" xmlns="http://www.w3.org/2000/svg">
<path d="M299.219 47.875H247.354V43.8854C247.345 32.2483 242.719 21.0912 234.491 12.8627C226.263 4.63558 215.106 0.00893667 203.469 0H139.635C127.998 0.00872729 116.841 4.63526 108.613 12.8627C100.386 21.0912 95.7589 32.2483 95.75 43.8854V47.875H43.8854C32.2483 47.8837 21.0912 52.5103 12.8627 60.7377C4.63558 68.9662 0.00893667 80.1233 0 91.7604V107.719C0.00872729 119.356 4.63526 130.513 12.8627 138.741C21.0912 146.969 32.2483 151.595 43.8854 151.604C44.9439 151.604 45.9588 152.024 46.7068 152.772C47.4548 153.52 47.875 154.535 47.875 155.594V299.219C47.8837 310.856 52.5103 322.013 60.7377 330.241C68.9662 338.469 80.1233 343.095 91.7604 343.104H251.344C262.981 343.095 274.138 338.469 282.366 330.241C290.594 322.013 295.22 310.856 295.229 299.219V155.594C295.229 153.391 297.016 151.604 299.219 151.604C310.856 151.595 322.013 146.969 330.241 138.741C338.469 130.513 343.095 119.356 343.104 107.719V91.7604C343.095 80.1233 338.469 68.9662 330.241 60.7377C322.013 52.5106 310.856 47.8839 299.219 47.875ZM119.687 43.8854C119.696 38.5981 121.801 33.5288 125.54 29.7897C129.279 26.0507 134.348 23.9461 139.635 23.9375H203.469C208.756 23.9462 213.825 26.0507 217.564 29.7897C221.303 33.5288 223.408 38.5981 223.417 43.8854V47.875H119.687V43.8854ZM319.167 107.719C319.158 113.006 317.053 118.075 313.314 121.814C309.575 125.553 304.506 127.658 299.219 127.667C291.814 127.675 284.716 130.62 279.48 135.855C274.245 141.091 271.3 148.189 271.292 155.594V299.219C271.283 304.506 269.178 309.575 265.439 313.314C261.7 317.053 256.631 319.158 251.344 319.167H91.7604C86.4731 319.158 81.4038 317.053 77.6647 313.314C73.9257 309.575 71.8211 304.506 71.8125 299.219V155.594C71.8038 148.189 68.859 141.091 63.624 135.855C58.3877 130.62 51.2898 127.675 43.8854 127.667C38.5981 127.658 33.5288 125.553 29.7897 121.814C26.0507 118.075 23.9461 113.006 23.9375 107.719V91.7604C23.9462 86.4731 26.0507 81.4038 29.7897 77.6647C33.5288 73.9257 38.5981 71.8211 43.8854 71.8125H299.219C304.506 71.8212 309.575 73.9257 313.314 77.6647C317.053 81.4038 319.158 86.4731 319.167 91.7604V107.719Z" fill="#272531"/>
<path d="M139.635 159.583C136.461 159.583 133.417 160.844 131.172 163.089C128.927 165.333 127.667 168.378 127.667 171.552V235.385C127.667 239.662 129.948 243.613 133.651 245.751C137.354 247.889 141.917 247.889 145.62 245.751C149.323 243.613 151.604 239.662 151.604 235.385V171.552C151.604 168.378 150.344 165.333 148.098 163.089C145.854 160.844 142.81 159.583 139.635 159.583Z" fill="#272531"/>
<path d="M203.469 159.583C200.295 159.583 197.25 160.844 195.006 163.089C192.76 165.333 191.5 168.378 191.5 171.552V235.385C191.5 239.662 193.782 243.613 197.484 245.751C201.187 247.889 205.75 247.889 209.453 245.751C213.156 243.613 215.437 239.662 215.437 235.385V171.552C215.437 168.378 214.177 165.333 211.932 163.089C209.688 160.844 206.643 159.583 203.469 159.583Z" fill="#272531"/>
</svg>
