<svg width="57" height="45" viewBox="0 0 57 45" fill="none" xmlns="http://www.w3.org/2000/svg">
<path d="M0 43.0459C0 43.744 0.372483 44.3891 0.977011 44.7382C1.58156 45.0873 2.32648 45.0873 2.93103 44.7382C3.53558 44.3891 3.90804 43.7441 3.90804 43.0459V39.3984C3.90804 35.7706 5.34912 32.2915 7.9142 29.7262C10.4794 27.1612 13.9586 25.7201 17.5864 25.7201C21.2141 25.7201 24.6933 27.1612 27.2585 29.7262C29.8236 32.2915 31.2647 35.7707 31.2647 39.3984V43.0459C31.2647 43.744 31.6371 44.3891 32.2417 44.7382C32.8462 45.0873 33.5911 45.0873 34.1957 44.7382C34.8002 44.3891 35.1727 43.7441 35.1727 43.0459V39.3984C35.1672 35.8502 34.089 32.3868 32.08 29.4621C30.071 26.5375 27.2249 24.2886 23.9148 23.0107C26.244 21.6247 28.0537 19.5123 29.0661 16.9985C30.0785 14.4844 30.2375 11.7076 29.5188 9.09386C28.8001 6.48058 27.2434 4.17541 25.0878 2.53252C22.9321 0.889731 20.2968 0 17.5865 0C14.8761 0 12.2408 0.889679 10.0851 2.53252C7.9296 4.1753 6.3729 6.48048 5.65418 9.09386C4.93547 11.7071 5.09445 14.4844 6.10686 16.9985C7.11931 19.5125 8.92899 21.6249 11.2581 23.0107C7.94813 24.2887 5.10219 26.5377 3.09293 29.4621C1.08394 32.3866 0.00578396 35.8499 0.000260592 39.3984L0 43.0459ZM17.5862 3.96547C19.8319 3.96547 21.9856 4.85759 23.5738 6.44546C25.1617 8.03353 26.0538 10.1872 26.0538 12.4331C26.0538 14.679 25.1617 16.8325 23.5738 18.4207C21.9858 20.0086 19.8321 20.9007 17.5862 20.9007C15.3403 20.9007 13.1868 20.0086 11.5986 18.4207C10.0107 16.8327 9.11856 14.679 9.11856 12.4331C9.12141 10.1882 10.0143 8.03614 11.6016 6.44858C13.189 4.86135 15.3411 3.96838 17.5861 3.96557L17.5862 3.96547Z" fill="url(#paint0_linear_23_22)"/>
<path d="M49.7678 27.1428C51.3406 25.8735 52.481 24.1478 53.0322 22.2036C53.5832 20.2592 53.5177 18.1917 52.8448 16.2858C52.1716 14.3802 50.9243 12.7301 49.2744 11.5631C47.6244 10.396 45.6531 9.76929 43.6322 9.76929C41.6112 9.76929 39.6401 10.396 37.99 11.5631C36.3401 12.7301 35.0926 14.3802 34.4196 16.2858C33.7467 18.1915 33.6812 20.2589 34.2322 22.2036C34.7831 24.1478 35.9238 25.8735 37.4964 27.1428C36.5941 27.6441 35.7582 28.2568 35.0083 28.9665C34.6171 29.3225 34.3871 29.8222 34.3706 30.3508C34.3541 30.8796 34.5528 31.3925 34.9212 31.7721C35.2896 32.152 35.7962 32.3661 36.3252 32.3655C36.8544 32.3651 37.3606 32.1501 37.7285 31.7699C39.3523 30.2708 41.4855 29.4452 43.6958 29.4607C45.9056 29.4762 48.0272 30.3315 49.6298 31.8532C51.2221 33.44 52.1132 35.5978 52.1048 37.8455V40.4509C52.1048 41.149 52.4773 41.794 53.0819 42.1432C53.6864 42.4923 54.4313 42.4922 55.0359 42.1432C55.6404 41.7941 56.0129 41.1491 56.0129 40.4509V37.8455C56.0176 36.2169 55.699 34.6037 55.0756 33.0993C54.4521 31.5947 53.5362 30.2289 52.3811 29.0811C51.5978 28.3242 50.7193 27.6726 49.7678 27.1428ZM37.7831 19.5872C37.786 18.0326 38.4062 16.5428 39.5072 15.4455C40.6083 14.3481 42.1003 13.7331 43.6548 13.7356C45.2095 13.7382 46.6994 14.358 47.7969 15.459C48.8944 16.56 49.5097 18.0517 49.5073 19.6064C49.505 21.1609 48.8852 22.6508 47.7845 23.7485C46.6838 24.8462 45.192 25.4617 43.6375 25.4597C42.0832 25.4583 40.5929 24.8403 39.4939 23.7412C38.3948 22.6423 37.7768 21.152 37.7754 19.5977L37.7831 19.5872Z" fill="url(#paint1_linear_23_22)"/>
<defs>
<linearGradient id="paint0_linear_23_22" x1="5.96542" y1="25" x2="34.3931" y2="26.7851" gradientUnits="userSpaceOnUse">
<stop stop-color="#31B0B4"/>
<stop offset="1" stop-color="#0DAEB3"/>
</linearGradient>
<linearGradient id="paint1_linear_23_22" x1="37.6189" y1="27.9002" x2="55.5393" y2="28.8774" gradientUnits="userSpaceOnUse">
<stop stop-color="#31B0B4"/>
<stop offset="1" stop-color="#0DAEB3"/>
</linearGradient>
</defs>
</svg>
