<svg width="25" height="21" viewBox="0 0 25 21" fill="none" xmlns="http://www.w3.org/2000/svg">
<path d="M0 19.2125C0 19.5241 0.166249 19.812 0.436066 19.9678C0.705892 20.1236 1.03837 20.1236 1.3082 19.9678C1.57802 19.812 1.74426 19.5241 1.74426 19.2125V17.5845C1.74426 15.9654 2.38745 14.4125 3.53232 13.2676C4.67725 12.1227 6.23011 11.4796 7.84925 11.4796C9.4684 11.4796 11.0213 12.1227 12.1662 13.2676C13.3111 14.4125 13.9542 15.9654 13.9542 17.5845V19.2125C13.9542 19.5241 14.1205 19.812 14.3903 19.9678C14.6601 20.1236 14.9926 20.1236 15.2624 19.9678C15.5323 19.812 15.6985 19.5241 15.6985 19.2125V17.5845C15.6961 16.0009 15.2148 14.4551 14.3182 13.1497C13.4215 11.8444 12.1512 10.8406 10.6738 10.2703C11.7134 9.65168 12.5211 8.70888 12.973 7.58689C13.4248 6.46475 13.4958 5.2254 13.175 4.05883C12.8542 2.89245 12.1594 1.86359 11.1974 1.13033C10.2352 0.397111 9.05902 0 7.84931 0C6.63961 0 5.46339 0.397087 4.50126 1.13033C3.53919 1.86355 2.84439 2.89241 2.52361 4.05883C2.20283 5.22521 2.27379 6.46475 2.72566 7.58689C3.17754 8.70894 3.98525 9.65175 5.0248 10.2703C3.54746 10.8407 2.27724 11.8445 1.38046 13.1497C0.483789 14.455 0.00258153 16.0008 0.000116309 17.5845L0 19.2125ZM7.84918 1.76989C8.85151 1.76989 9.81276 2.16807 10.5216 2.87678C11.2303 3.58558 11.6285 4.54683 11.6285 5.54922C11.6285 6.55162 11.2303 7.5128 10.5216 8.22167C9.81283 8.93037 8.85158 9.32855 7.84918 9.32855C6.84679 9.32855 5.88561 8.93037 5.17674 8.22167C4.46803 7.51287 4.06985 6.55162 4.06985 5.54922C4.07113 4.54727 4.46966 3.58674 5.17809 2.87817C5.88661 2.16975 6.84714 1.7712 7.84914 1.76994L7.84918 1.76989Z" fill="white"/>
<path d="M22.2127 12.1145C22.9147 11.548 23.4237 10.7778 23.6697 9.91005C23.9156 9.0422 23.8864 8.11946 23.586 7.26877C23.2856 6.41827 22.7289 5.68177 21.9925 5.16093C21.2561 4.64002 20.3762 4.36029 19.4742 4.36029C18.5722 4.36029 17.6924 4.64 16.956 5.16093C16.2196 5.68177 15.6628 6.41824 15.3624 7.26877C15.0621 8.11936 15.0328 9.0421 15.2787 9.91005C15.5246 10.7778 16.0338 11.548 16.7357 12.1145C16.3329 12.3383 15.9598 12.6117 15.6251 12.9285C15.4505 13.0874 15.3479 13.3105 15.3405 13.5464C15.3332 13.7824 15.4218 14.0113 15.5863 14.1807C15.7507 14.3503 15.9768 14.4458 16.2129 14.4456C16.4491 14.4454 16.675 14.3495 16.8392 14.1797C17.564 13.5106 18.5161 13.1422 19.5026 13.1491C20.4889 13.156 21.4358 13.5377 22.1511 14.2169C22.8618 14.9252 23.2595 15.8882 23.2558 16.8915V18.0543C23.2558 18.3659 23.422 18.6538 23.6918 18.8096C23.9617 18.9654 24.2941 18.9654 24.564 18.8096C24.8338 18.6538 25 18.3659 25 18.0543V16.8915C25.0021 16.1646 24.86 15.4445 24.5817 14.7731C24.3034 14.1015 23.8946 13.492 23.3791 12.9797C23.0295 12.6418 22.6374 12.351 22.2127 12.1145ZM16.8636 8.7423C16.8649 8.04841 17.1417 7.38349 17.6331 6.89375C18.1246 6.40392 18.7905 6.12946 19.4843 6.13056C20.1782 6.13174 20.8432 6.40836 21.333 6.89975C21.8229 7.39115 22.0975 8.05697 22.0964 8.75086C22.0954 9.44466 21.8188 10.1097 21.3275 10.5996C20.8362 11.0895 20.1704 11.3643 19.4766 11.3633C18.7829 11.3627 18.1177 11.0869 17.6272 10.5963C17.1366 10.1058 16.8608 9.44068 16.8602 8.74695L16.8636 8.7423Z" fill="white"/>
</svg>
