<svg width="36" height="45" viewBox="0 0 36 45" fill="none" xmlns="http://www.w3.org/2000/svg">
<path d="M0 43.0459C0 43.744 0.372483 44.3891 0.977011 44.7382C1.58156 45.0873 2.32648 45.0873 2.93103 44.7382C3.53558 44.3891 3.90804 43.7441 3.90804 43.0459V39.3984C3.90804 35.7706 5.34912 32.2915 7.9142 29.7262C10.4794 27.1612 13.9586 25.7201 17.5864 25.7201C21.2141 25.7201 24.6933 27.1612 27.2585 29.7262C29.8236 32.2915 31.2647 35.7707 31.2647 39.3984V43.0459C31.2647 43.744 31.6371 44.3891 32.2417 44.7382C32.8462 45.0873 33.5911 45.0873 34.1957 44.7382C34.8002 44.3891 35.1727 43.7441 35.1727 43.0459V39.3984C35.1672 35.8502 34.089 32.3868 32.08 29.4621C30.071 26.5375 27.2249 24.2886 23.9148 23.0107C26.244 21.6247 28.0537 19.5123 29.0661 16.9985C30.0785 14.4844 30.2375 11.7076 29.5188 9.09386C28.8001 6.48058 27.2434 4.17541 25.0878 2.53252C22.9321 0.889731 20.2968 0 17.5865 0C14.8761 0 12.2408 0.889679 10.0851 2.53252C7.9296 4.1753 6.3729 6.48048 5.65418 9.09386C4.93547 11.7071 5.09445 14.4844 6.10686 16.9985C7.11931 19.5125 8.92899 21.6249 11.2581 23.0107C7.94813 24.2887 5.10219 26.5377 3.09293 29.4621C1.08394 32.3866 0.00578396 35.8499 0.000260592 39.3984L0 43.0459ZM17.5862 3.96547C19.8319 3.96547 21.9856 4.85759 23.5738 6.44546C25.1617 8.03353 26.0538 10.1872 26.0538 12.4331C26.0538 14.679 25.1617 16.8325 23.5738 18.4207C21.9858 20.0086 19.8321 20.9007 17.5862 20.9007C15.3403 20.9007 13.1868 20.0086 11.5986 18.4207C10.0107 16.8327 9.11856 14.679 9.11856 12.4331C9.12141 10.1882 10.0143 8.03614 11.6016 6.44858C13.189 4.86135 15.3412 3.96828 17.5862 3.96547Z" fill="#B33DBC"/>
</svg>
