<svg width="800" height="800" viewBox="0 0 800 800" fill="none" xmlns="http://www.w3.org/2000/svg">
<path fill-rule="evenodd" clip-rule="evenodd" d="M298.61 572.903C298.718 603.188 281.013 630.556 253.762 642.225C226.511 653.89 195.089 647.557 174.17 626.18C153.251 604.803 146.96 572.601 158.236 544.607C169.511 516.615 196.129 498.356 225.659 498.356C244.971 498.318 263.507 506.153 277.188 520.134C290.869 534.114 298.575 553.094 298.61 572.903Z" stroke="#232323" stroke-width="50" stroke-linecap="round" stroke-linejoin="round"/>
<path fill-rule="evenodd" clip-rule="evenodd" d="M656.913 572.903C657.019 603.188 639.315 630.556 612.064 642.225C584.814 653.89 553.39 647.557 532.473 626.18C511.552 604.803 505.263 572.601 516.538 544.607C527.813 516.615 554.429 498.356 583.96 498.356C603.272 498.318 621.81 506.153 635.488 520.134C649.17 534.114 656.875 553.094 656.913 572.903Z" stroke="#232323" stroke-width="50" stroke-linecap="round" stroke-linejoin="round"/>
<path d="M89.3156 338.508C84.4186 351.84 91.2571 366.619 104.59 371.515C117.922 376.412 132.701 369.575 137.598 356.242L89.3156 338.508ZM139.1 277.56L115.167 268.145C115.096 268.327 115.026 268.509 114.959 268.693L139.1 277.56ZM335.72 193.102C349.924 193.102 361.439 181.588 361.439 167.384C361.439 153.181 349.924 141.667 335.72 141.667V193.102ZM113.457 373.093C127.66 373.093 139.175 361.578 139.175 347.375C139.175 333.171 127.66 321.657 113.457 321.657V373.093ZM69.6926 347.375L69.4971 373.093H69.6926V347.375ZM33.217 384.237L7.49922 384.052V384.237H33.217ZM7.49922 441.708C7.49922 455.911 19.0135 467.426 33.217 467.426C47.4206 467.426 58.935 455.911 58.935 441.708H7.49922ZM113.457 321.657C99.253 321.657 87.739 333.171 87.739 347.375C87.739 361.578 99.253 373.093 113.457 373.093V321.657ZM335.72 373.093C349.924 373.093 361.439 361.578 361.439 347.375C361.439 333.171 349.924 321.657 335.72 321.657V373.093ZM600.676 356.242C605.573 369.575 620.352 376.412 633.684 371.515C647.016 366.619 653.854 351.84 648.957 338.508L600.676 356.242ZM599.174 277.56L623.315 268.693C623.246 268.509 623.178 268.327 623.106 268.145L599.174 277.56ZM335.72 141.667C321.517 141.667 310.003 153.181 310.003 167.384C310.003 181.588 321.517 193.102 335.72 193.102V141.667ZM624.817 373.093C639.02 373.093 650.535 361.578 650.535 347.375C650.535 333.171 639.02 321.657 624.817 321.657V373.093ZM335.72 321.657C321.517 321.657 310.003 333.171 310.003 347.375C310.003 361.578 321.517 373.093 335.72 373.093V321.657ZM624.817 321.657C610.614 321.657 599.099 333.171 599.099 347.375C599.099 361.578 610.614 373.093 624.817 373.093V321.657ZM732.304 347.375V373.093H732.475L732.304 347.375ZM768.747 384.237H794.465V384.052L768.747 384.237ZM743.03 441.708C743.03 455.911 754.544 467.426 768.747 467.426C782.951 467.426 794.465 455.911 794.465 441.708H743.03ZM511.01 598.621C525.213 598.621 536.728 587.106 536.728 572.903C536.728 558.7 525.213 547.185 511.01 547.185V598.621ZM298.61 547.185C284.406 547.185 272.892 558.7 272.892 572.903C272.892 587.106 284.406 598.621 298.61 598.621V547.185ZM656.913 547.185C642.71 547.185 631.195 558.7 631.195 572.903C631.195 587.106 642.71 598.621 656.913 598.621V547.185ZM732.273 572.903L732.468 547.185H732.273V572.903ZM768.747 536.041L794.465 536.226V536.041H768.747ZM794.465 441.708C794.465 427.505 782.951 415.99 768.747 415.99C754.544 415.99 743.03 427.505 743.03 441.708H794.465ZM152.707 598.621C166.911 598.621 178.425 587.106 178.425 572.903C178.425 558.7 166.911 547.185 152.707 547.185V598.621ZM69.6926 572.903V547.185H69.4971L69.6926 572.903ZM33.217 536.041H7.49854L7.49987 536.226L33.217 536.041ZM58.935 441.708C58.935 427.505 47.4206 415.99 33.217 415.99C19.0135 415.99 7.49922 427.505 7.49922 441.708H58.935ZM361.439 167.384C361.439 153.181 349.924 141.667 335.72 141.667C321.517 141.667 310.003 153.181 310.003 167.384H361.439ZM310.003 347.375C310.003 361.578 321.517 373.093 335.72 373.093C349.924 373.093 361.439 361.578 361.439 347.375H310.003ZM33.217 415.99C19.0135 415.99 7.49922 427.505 7.49922 441.708C7.49922 455.911 19.0135 467.426 33.217 467.426V415.99ZM99.8493 467.426C114.053 467.426 125.567 455.911 125.567 441.708C125.567 427.505 114.053 415.99 99.8493 415.99V467.426ZM768.747 467.426C782.951 467.426 794.465 455.911 794.465 441.708C794.465 427.505 782.951 415.99 768.747 415.99V467.426ZM699.306 415.99C685.103 415.99 673.588 427.505 673.588 441.708C673.588 455.911 685.103 467.426 699.306 467.426V415.99ZM137.598 356.242L163.241 286.426L114.959 268.693L89.3156 338.508L137.598 356.242ZM163.032 286.974C175.543 255.171 188.083 231.804 203.752 216.321C218.328 201.92 236.861 193.102 265.277 193.102V141.667C224.018 141.667 192.284 155.344 167.601 179.733C144.011 203.042 128.3 234.762 115.167 268.145L163.032 286.974ZM265.277 193.102H335.72V141.667H265.277V193.102ZM113.457 321.657H69.6926V373.093H113.457V321.657ZM69.888 321.658C53.251 321.531 37.379 328.196 25.7301 339.968L62.2917 376.148C64.3241 374.094 66.9281 373.072 69.4971 373.093L69.888 321.658ZM25.7301 339.968C14.103 351.72 7.61735 367.589 7.49922 384.052L58.9343 384.422C58.9573 381.185 60.2377 378.223 62.2917 376.148L25.7301 339.968ZM7.49922 384.237V441.708H58.935V384.237H7.49922ZM113.457 373.093H335.72V321.657H113.457V373.093ZM648.957 338.508L623.315 268.693L575.034 286.426L600.676 356.242L648.957 338.508ZM623.106 268.145C609.972 234.762 594.264 203.042 570.672 179.733C545.99 155.344 514.254 141.667 472.996 141.667V193.102C501.412 193.102 519.946 201.92 534.52 216.321C550.191 231.804 562.731 255.171 575.24 286.974L623.106 268.145ZM472.996 141.667H335.72V193.102H472.996V141.667ZM624.817 321.657H335.72V373.093H624.817V321.657ZM624.817 373.093H732.304V321.657H624.817V373.093ZM732.475 373.093C737.653 373.058 742.978 377.506 743.03 384.422L794.465 384.052C794.218 349.974 766.927 321.426 732.132 321.658L732.475 373.093ZM743.03 384.237V441.708H794.465V384.237H743.03ZM511.01 547.185H298.61V598.621H511.01V547.185ZM656.913 598.621H732.273V547.185H656.913V598.621ZM732.074 598.621C748.712 598.748 764.585 592.082 776.233 580.31L739.673 544.13C737.639 546.184 735.037 547.206 732.468 547.185L732.074 598.621ZM776.233 580.31C787.861 568.558 794.345 552.689 794.465 536.226L743.03 535.856C743.006 539.093 741.727 542.055 739.673 544.13L776.233 580.31ZM794.465 536.041V441.708H743.03V536.041H794.465ZM152.707 547.185H69.6926V598.621H152.707V547.185ZM69.4971 547.185C66.9281 547.206 64.3241 546.184 62.2917 544.13L25.7301 580.31C37.379 592.082 53.251 598.748 69.888 598.621L69.4971 547.185ZM62.2917 544.13C60.2377 542.055 58.9573 539.093 58.9343 535.856L7.49987 536.226C7.618 552.689 14.103 568.558 25.7301 580.31L62.2917 544.13ZM58.935 536.041V441.708H7.49922L7.49854 536.041H58.935ZM310.003 167.384V347.375H361.439V167.384H310.003ZM33.217 467.426H99.8493V415.99H33.217V467.426ZM768.747 415.99H699.306V467.426H768.747V415.99Z" fill="#232323"/>
</svg>
