<svg width="800" height="800" viewBox="0 0 800 800" fill="none" xmlns="http://www.w3.org/2000/svg">
<g clip-path="url(#clip0_58_12)">
<path d="M400 320.857C487.661 320.857 558.977 249.541 558.977 161.88C558.977 74.2195 487.661 2.90369 400 2.90369C312.34 2.90369 241.024 74.2195 241.024 161.88C241.024 249.541 312.34 320.857 400 320.857ZM400 49.705C461.856 49.705 512.178 100.027 512.178 161.883C512.178 223.739 461.856 274.061 400 274.061C338.144 274.061 287.822 223.739 287.822 161.883C287.822 100.027 338.144 49.705 400 49.705Z" fill="#232323"/>
<path d="M364 217.333C368.571 221.902 374.556 224.186 380.547 224.186C386.538 224.186 392.523 221.902 397.094 217.333L474.904 139.523C484.041 130.387 484.041 115.569 474.904 106.43C465.764 97.2956 450.952 97.2956 441.81 106.43L380.547 167.696L358.187 145.333C349.048 136.199 334.236 136.199 325.094 145.333C315.957 154.47 315.957 169.288 325.094 178.427L364 217.333Z" fill="#232323"/>
<path d="M95.2054 237.368C147.704 237.368 190.413 194.656 190.413 142.16C190.413 89.6646 147.704 46.9522 95.2054 46.9522C42.7071 46.9522 0 89.6619 0 142.16C0 194.659 42.7098 237.368 95.2054 237.368ZM95.2054 93.7481C121.899 93.7481 143.618 115.464 143.618 142.16C143.618 168.857 121.902 190.572 95.2054 190.572C68.5145 190.572 46.796 168.857 46.796 142.16C46.796 115.464 68.5145 93.7481 95.2054 93.7481Z" fill="#232323"/>
<path d="M257.269 499.087H181.438V360.291C181.438 312.743 142.753 274.058 95.2054 274.058C47.6579 274.058 8.9751 312.743 8.9751 360.291V552.77C8.9751 598.424 46.1145 635.561 91.7657 635.561H190.155V771.138C190.155 784.062 200.63 794.537 213.554 794.537H304.396C317.32 794.537 327.795 784.062 327.795 771.138V569.619C327.798 530.726 296.159 499.087 257.269 499.087ZM280.999 747.739H236.954V612.162C236.954 599.238 226.478 588.762 213.554 588.762H91.7684C71.9219 588.762 55.7737 572.617 55.7737 552.768V360.288C55.7737 338.543 73.4626 320.854 95.2054 320.854C116.951 320.854 134.64 338.543 134.64 360.288V522.484C134.64 535.407 145.115 545.883 158.039 545.883H257.266C270.352 545.883 280.999 556.528 280.999 569.616V747.739Z" fill="#232323"/>
<path d="M704.794 237.368C757.293 237.368 800 194.656 800 142.16C800 89.6646 757.29 46.9522 704.794 46.9522C652.296 46.9522 609.586 89.6646 609.586 142.16C609.586 194.656 652.296 237.368 704.794 237.368ZM704.794 93.7481C731.485 93.7481 753.204 115.464 753.204 142.16C753.204 168.857 731.488 190.572 704.794 190.572C678.101 190.572 656.382 168.857 656.382 142.16C656.382 115.464 678.098 93.7481 704.794 93.7481Z" fill="#232323"/>
<path d="M704.792 274.058C657.245 274.058 618.562 312.743 618.562 360.291V499.087H542.734C503.841 499.087 472.205 530.726 472.205 569.616V771.135C472.205 784.059 482.68 794.535 495.604 794.535H586.446C599.37 794.535 609.845 784.059 609.845 771.135V635.558H708.234C753.888 635.558 791.025 598.419 791.025 552.768V360.288C791.025 312.743 752.34 274.058 704.792 274.058ZM744.226 552.77C744.226 572.617 728.081 588.765 708.232 588.765H586.443C573.519 588.765 563.044 599.24 563.044 612.164V747.741H518.998V569.619C518.998 556.533 529.643 545.886 542.731 545.886H641.958C654.882 545.886 665.358 535.41 665.358 522.486V360.291C665.358 338.545 683.047 320.857 704.792 320.857C726.535 320.857 744.224 338.545 744.224 360.291V552.77H744.226Z" fill="#232323"/>
<path d="M536.264 411.698C549.188 411.698 559.663 401.223 559.663 388.299C559.663 375.375 549.188 364.9 536.264 364.9H263.736C250.812 364.9 240.337 375.375 240.337 388.299C240.337 401.223 250.812 411.698 263.736 411.698H376.601V773.694C376.601 786.618 387.076 797.094 400 797.094C412.924 797.094 423.399 786.618 423.399 773.694V411.698H536.264Z" fill="#232323"/>
</g>
<defs>
<clipPath id="clip0_58_12">
<rect width="800" height="800" fill="white"/>
</clipPath>
</defs>
</svg>
