<svg width="800" height="800" viewBox="0 0 800 800" fill="none" xmlns="http://www.w3.org/2000/svg">
<path d="M349.667 74.3353L183.334 136.669C145.001 151.002 113.668 196.335 113.668 237.335V485.003C113.668 524.337 139.668 576.003 171.335 599.67L314.668 706.67C361.667 742.003 439 742.003 486 706.67L629.333 599.67C661 576.003 687 524.337 687 485.003V237.335C687 196.335 655.667 151.002 617.333 136.669L451 74.3353C422.667 64.002 377.333 64.002 349.667 74.3353Z" stroke="#232323" stroke-width="50" stroke-linecap="round" stroke-linejoin="round"/>
<path d="M400 516.667C473.637 516.667 533.333 456.97 533.333 383.333C533.333 309.695 473.637 250 400 250C326.362 250 266.667 309.695 266.667 383.333C266.667 456.97 326.362 516.667 400 516.667Z" stroke="#232323" stroke-width="50" stroke-miterlimit="10" stroke-linecap="round" stroke-linejoin="round"/>
<path d="M408.333 341.667V372.667C408.333 384.333 402.333 395.333 392 401.333L366.667 416.667" stroke="#232323" stroke-width="50" stroke-miterlimit="10" stroke-linecap="round" stroke-linejoin="round"/>
</svg>
