<svg width="800" height="800" viewBox="0 0 800 800" fill="none" xmlns="http://www.w3.org/2000/svg">
<path d="M27.613 246.122C13.2656 258.97 12.0446 281.023 24.886 295.378C37.7269 309.733 59.7677 310.955 74.1148 298.106L27.613 246.122ZM724.886 298.106C739.232 310.955 761.273 309.733 774.113 295.378C786.957 281.023 785.733 258.97 771.387 246.122L724.886 298.106ZM399.5 627.235C380.245 627.235 364.636 642.852 364.636 662.118C364.636 681.383 380.245 697 399.5 697V627.235ZM399.849 697C419.104 697 434.712 681.383 434.712 662.118C434.712 642.852 419.104 627.235 399.849 627.235V697ZM493.301 558.866C507.542 571.828 529.594 570.785 542.549 556.536C555.508 542.283 554.462 520.223 540.22 507.257L493.301 558.866ZM610.561 429.812C624.803 442.774 646.854 441.731 659.809 427.478C672.765 413.229 671.722 391.165 657.48 378.203L610.561 429.812ZM258.781 507.257C244.537 520.223 243.494 542.283 256.45 556.536C269.406 570.785 291.456 571.828 305.7 558.866L258.781 507.257ZM141.521 378.203C127.278 391.165 126.234 413.229 139.19 427.478C152.147 441.731 174.196 442.774 188.44 429.812L141.521 378.203ZM74.1148 298.106C160.49 220.757 274.469 173.765 399.5 173.765V104C256.655 104 126.278 157.767 27.613 246.122L74.1148 298.106ZM399.5 173.765C524.531 173.765 638.511 220.757 724.886 298.106L771.387 246.122C672.723 157.767 542.343 104 399.5 104V173.765ZM399.5 697H399.849V627.235H399.5V697ZM399.5 522.588C435.643 522.588 468.506 536.301 493.301 558.866L540.22 507.257C503.09 473.467 453.664 452.824 399.5 452.824V522.588ZM399.5 348.176C480.799 348.176 554.804 379.065 610.561 429.812L657.48 378.203C589.388 316.231 498.816 278.412 399.5 278.412V348.176ZM305.7 558.866C330.495 536.301 363.357 522.588 399.5 522.588V452.824C345.336 452.824 295.91 473.467 258.781 507.257L305.7 558.866ZM188.44 429.812C244.198 379.065 318.203 348.176 399.5 348.176V278.412C300.183 278.412 209.613 316.231 141.521 378.203L188.44 429.812Z" fill="#232323"/>
</svg>
